<svg id="Layer_1" data-name="Layer 1" xmlns="http://www.w3.org/2000/svg" xmlns:xlink="http://www.w3.org/1999/xlink" viewBox="0 0 1153 247"><defs><style>.cls-1{fill:url(#New_Gradient_Swatch_1);}</style><linearGradient id="New_Gradient_Swatch_1" x1="4.3433" y1="121.1819" x2="1147.291" y2="121.1819" gradientUnits="userSpaceOnUse"><stop offset="0" stop-color="#3991d3"/><stop offset="0.2005" stop-color="#60b3cb"/><stop offset="0.368" stop-color="#69c7bf"/><stop offset="0.5711" stop-color="#6bd0a7"/><stop offset="0.7843" stop-color="#6bc187"/><stop offset="1" stop-color="#80c077"/></linearGradient></defs><path class="cls-1" d="M161.7656,80.0068c0,44.3164-29.4341,75.7354-84.0029,75.7354H49.6519v75.4033a4.6869,4.6869,0,0,1-4.961,4.9609H9.3042a4.6869,4.6869,0,0,1-4.9609-4.9609V9.564A4.6869,4.6869,0,0,1,9.3042,4.603H77.7627C132.3315,4.603,161.7656,36.0215,161.7656,80.0068Zm-43.3242,0c0-26.788-20.5049-35.3867-41.6709-35.3867H49.6519v70.7735H76.7705C97.9365,115.3936,118.4414,107.126,118.4414,80.0068Z"/><path class="cls-1" d="M232.5376,4.603h35.3867a4.687,4.687,0,0,1,4.961,4.961V231.1455a4.6869,4.6869,0,0,1-4.961,4.9609H232.5376a4.6869,4.6869,0,0,1-4.9609-4.9609V9.564A4.6869,4.6869,0,0,1,232.5376,4.603Z"/><path class="cls-1" d="M522.5742,236.1064H485.2031a6.2982,6.2982,0,0,1-5.9531-3.3076l-45.6392-75.4033-45.6391,75.4033a6.2973,6.2973,0,0,1-5.9531,3.3076H344.6475c-3.9688,0-5.2915-2.3154-3.3072-5.9531l68.128-112.4443L344.6475,10.5562c-1.9844-3.6382-.6612-5.9532,3.3071-5.9532h37.3716A6.2975,6.2975,0,0,1,391.2788,7.91l42.332,69.7822L475.9434,7.91a6.2962,6.2962,0,0,1,5.9521-3.3072h37.3721c3.9678,0,5.291,2.315,3.3066,5.9532l-64.82,107.1528,68.1279,112.4443C527.8662,233.791,526.543,236.1064,522.5742,236.1064Z"/><path class="cls-1" d="M726.293,201.05v30.0957a4.6869,4.6869,0,0,1-4.961,4.9609H599.2969a4.6869,4.6869,0,0,1-4.961-4.9609V9.564a4.687,4.687,0,0,1,4.961-4.961H721.001a4.687,4.687,0,0,1,4.9609,4.961V39.6592A4.687,4.687,0,0,1,721.001,44.62H639.6445V96.874H716.04a4.687,4.687,0,0,1,4.961,4.961V131.93a4.6869,4.6869,0,0,1-4.961,4.9609H639.6445V196.09H721.332A4.6868,4.6868,0,0,1,726.293,201.05Z"/><path class="cls-1" d="M925.7139,201.05v30.0957a4.6869,4.6869,0,0,1-4.961,4.9609H805.332a4.6869,4.6869,0,0,1-4.9609-4.9609V9.564a4.687,4.687,0,0,1,4.9609-4.961h35.3868A4.687,4.687,0,0,1,845.68,9.564V196.09h75.0732A4.6868,4.6868,0,0,1,925.7139,201.05Z"/><path class="cls-1" d="M986.5625,167.3164c0-29.4336,16.8662-51.5918,39.6855-62.1748-15.2128-9.9219-24.8037-26.457-24.8037-44.9775,0-30.7569,25.1348-58.2066,65.4825-58.2066s65.4824,27.45,65.4824,58.2066c0,18.5205-9.5908,35.0556-24.8037,44.9775,22.8193,10.583,39.6855,32.7412,39.6855,62.1748,0,46.3008-40.0166,73.09-80.3642,73.09S986.5625,213.6172,986.5625,167.3164Zm117.4043-1.3223c0-22.8193-17.8584-36.0488-37.04-36.0488s-37.04,13.23-37.04,36.0488c0,21.4971,16.2051,34.7256,37.04,34.7256S1103.9668,187.4912,1103.9668,165.9941Zm-9.9209-103.5156c0-14.5508-11.5752-25.7954-27.1191-25.7954s-27.1192,11.2446-27.1192,25.7954a27.1274,27.1274,0,0,0,54.2383,0Z"/></svg>