<svg width="20" height="20" viewBox="0 0 20 20" fill="none" xmlns="http://www.w3.org/2000/svg">
<path d="M17.2227 5.32328C17.2463 5.30951 17.2659 5.28981 17.2795 5.26613C17.2931 5.24245 17.3002 5.21562 17.3002 5.18831C17.3002 5.16101 17.2931 5.13418 17.2795 5.1105C17.2659 5.08682 17.2463 5.06711 17.2227 5.05335L11.2563 1.58695C10.8746 1.36566 10.4411 1.24913 9.99987 1.24913C9.55862 1.24913 9.12519 1.36566 8.74343 1.58695L2.7782 5.05335C2.75461 5.06711 2.73504 5.08682 2.72144 5.1105C2.70784 5.13418 2.70068 5.16101 2.70068 5.18831C2.70068 5.21562 2.70784 5.24245 2.72144 5.26613C2.73504 5.28981 2.75461 5.30951 2.7782 5.32328L9.92194 9.52562C9.94597 9.53977 9.97335 9.54724 10.0012 9.54724C10.0291 9.54724 10.0565 9.53977 10.0805 9.52562L17.2227 5.32328Z" fill="white"/>
<path d="M2.10962 6.38567C2.0858 6.37191 2.05876 6.36469 2.03124 6.36473C2.00373 6.36478 1.97672 6.37208 1.95293 6.38592C1.92915 6.39975 1.90944 6.41962 1.8958 6.44351C1.88216 6.46741 1.87507 6.49448 1.87525 6.52199V13.3146C1.87584 13.6419 1.96211 13.9634 2.12549 14.247C2.28886 14.5307 2.52365 14.7666 2.8065 14.9314L9.14087 18.7294C9.16461 18.7431 9.19154 18.7503 9.21896 18.7503C9.24637 18.7504 9.27331 18.7431 9.29705 18.7295C9.3208 18.7158 9.34053 18.6961 9.35425 18.6723C9.36798 18.6486 9.37522 18.6217 9.37525 18.5943V10.7134C9.37522 10.686 9.36799 10.6591 9.35427 10.6354C9.34056 10.6116 9.32085 10.5919 9.29712 10.5782L2.10962 6.38567Z" fill="white"/>
<path d="M10.625 10.7408V18.5924C10.625 18.6198 10.6323 18.6467 10.646 18.6704C10.6597 18.6942 10.6794 18.7139 10.7032 18.7276C10.7269 18.7412 10.7539 18.7485 10.7813 18.7484C10.8087 18.7484 10.8356 18.7412 10.8594 18.7275L17.1934 14.9295C17.476 14.7649 17.7107 14.5293 17.8741 14.246C18.0375 13.9628 18.124 13.6417 18.125 13.3146V6.52205C18.1249 6.49467 18.1176 6.46779 18.1039 6.44412C18.0901 6.42044 18.0704 6.40079 18.0466 6.38714C18.0229 6.3735 17.996 6.36632 17.9686 6.36635C17.9412 6.36637 17.9143 6.37359 17.8906 6.38728L10.7031 10.606C10.6795 10.6197 10.6598 10.6393 10.6461 10.663C10.6324 10.6866 10.6251 10.7135 10.625 10.7408Z" fill="white"/>
</svg>
