<svg width="186" height="962" viewBox="0 0 186 962" fill="none" xmlns="http://www.w3.org/2000/svg">
<g opacity="0.4">
<path d="M243.148 865.396L121.574 935.507V623.366L243.148 553.255V865.396Z" fill="url(#paint0_linear)"/>
<path d="M143.951 647.979L133.882 653.946V635.672L143.951 629.705V647.979Z" fill="#C4C4C4"/>
<path d="M165.953 635.672L155.511 641.266V622.993L165.953 617.399V635.672Z" fill="#C4C4C4"/>
<path d="M187.583 622.993L177.514 628.959V610.686L187.583 604.719V622.993Z" fill="#C4C4C4"/>
<path d="M143.951 669.236L133.882 675.203V656.929L143.951 651.335V669.236Z" fill="#C4C4C4"/>
<path d="M165.953 656.93L155.511 662.897V644.623L165.953 638.656V656.93Z" fill="#C4C4C4"/>
<path d="M187.583 644.25L177.514 650.217V631.943L187.583 625.976V644.25Z" fill="#C4C4C4"/>
<path d="M143.951 690.866L133.882 696.46V678.186L143.951 672.592V690.866Z" fill="#C4C4C4"/>
<path d="M165.953 678.186L155.511 684.153V665.879L165.953 659.913V678.186Z" fill="#C4C4C4"/>
<path d="M187.583 665.506L177.514 671.473V653.2L187.583 647.606V665.506Z" fill="#C4C4C4"/>
<path d="M143.951 712.123L133.882 717.717V699.443L143.951 693.849V712.123Z" fill="#C4C4C4"/>
<path d="M165.953 699.443L155.511 705.409V687.136L165.953 681.169V699.443Z" fill="#C4C4C4"/>
<path d="M187.583 687.136L177.514 692.73V674.457L187.583 668.863V687.136Z" fill="#C4C4C4"/>
<path d="M143.951 733.379L133.882 738.973V720.7L143.951 715.106V733.379Z" fill="url(#paint1_linear)"/>
<path d="M165.953 720.7L155.511 726.667V708.394L165.953 702.427V720.7Z" fill="#C4C4C4"/>
<path d="M187.583 708.393L177.514 713.987V695.714L187.583 690.12V708.393Z" fill="#C4C4C4"/>
<path d="M143.951 754.636L133.882 760.23V741.957L143.951 736.363V754.636Z" fill="#C4C4C4"/>
<path d="M165.953 741.956L155.511 747.923V729.65L165.953 723.683V741.956Z" fill="#C4C4C4"/>
<path d="M187.583 729.651L177.514 735.245V716.971L187.583 711.377V729.651Z" fill="url(#paint2_linear)"/>
<path d="M143.951 775.893L133.882 781.86V763.586L143.951 757.62V775.893Z" fill="#C4C4C4"/>
<path d="M165.953 763.214L155.511 769.181V750.907L165.953 744.94V763.214Z" fill="#C4C4C4"/>
<path d="M187.583 750.907L177.514 756.501V738.228L187.583 732.634V750.907Z" fill="#C4C4C4"/>
<path d="M143.951 797.151L133.882 803.118V784.844L143.951 778.877V797.151Z" fill="#C4C4C4"/>
<path d="M165.953 784.47L155.511 790.437V772.164L165.953 766.197V784.47Z" fill="#C4C4C4"/>
<path d="M187.583 772.164L177.514 778.131V759.857L187.583 753.89V772.164Z" fill="#C4C4C4"/>
<path d="M143.951 818.407L133.882 824.374V806.1L143.951 800.133V818.407Z" fill="#C4C4C4"/>
<path d="M165.953 805.728L155.511 811.695V793.421L165.953 787.827V805.728Z" fill="#C4C4C4"/>
<path d="M187.583 793.421L177.514 799.388V781.115L187.583 775.148V793.421Z" fill="#C4C4C4"/>
<path d="M143.951 839.664L133.882 845.631V827.357L143.951 821.391V839.664Z" fill="#C4C4C4"/>
<path d="M165.953 827.357L155.511 832.951V814.678L165.953 809.084V827.357Z" fill="#C4C4C4"/>
<path d="M187.583 814.677L177.514 820.644V802.371L187.583 796.404V814.677Z" fill="url(#paint3_linear)"/>
<path d="M143.951 860.921L133.882 866.888V848.614L143.951 842.647V860.921Z" fill="#C4C4C4"/>
<path d="M165.953 848.614L155.511 854.208V835.935L165.953 830.341V848.614Z" fill="#C4C4C4"/>
<path d="M187.583 835.935L177.514 841.902V823.628L187.583 817.661V835.935Z" fill="#C4C4C4"/>
<path d="M143.951 882.177L133.882 888.144V869.871L143.951 863.904V882.177Z" fill="#C4C4C4"/>
<path d="M165.953 869.871L155.511 875.465V857.192L165.953 851.598V869.871Z" fill="url(#paint4_linear)"/>
<path d="M187.583 857.191L177.514 863.158V844.885L187.583 838.918V857.191Z" fill="#C4C4C4"/>
<path d="M143.951 903.434L133.882 909.401V891.128L143.951 885.161V903.434Z" fill="#C4C4C4"/>
<path d="M165.953 891.128L155.511 896.722V878.821L165.953 872.854V891.128Z" fill="#C4C4C4"/>
<path d="M187.583 878.448L177.514 884.415V866.142L187.583 860.175V878.448Z" fill="#C4C4C4"/>
<path d="M243.148 891.128L121.574 961.239V935.507L243.148 865.396V891.128Z" fill="#B2B2B2"/>
<path d="M0 865.396L121.575 935.507V623.366L0 553.255V865.396Z" fill="url(#paint5_linear)"/>
<path d="M99.1981 647.979L109.267 653.946V635.672L99.1981 629.705V647.979Z" fill="url(#paint6_linear)"/>
<path d="M77.5702 635.672L87.6393 641.266V622.993L77.5702 617.399V635.672Z" fill="#C4C4C4"/>
<path d="M55.9385 622.993L66.0075 628.959V610.686L55.9385 604.719V622.993Z" fill="#C4C4C4"/>
<path d="M33.9357 610.686L44.3776 616.28V598.007L33.9357 592.413V610.686Z" fill="#C4C4C4"/>
<path d="M12.3077 598.007L22.3768 603.973V585.7L12.3077 579.733V598.007Z" fill="#C4C4C4"/>
<path d="M99.1981 669.236L109.267 675.203V656.929L99.1981 651.335V669.236Z" fill="#C4C4C4"/>
<path d="M77.5702 656.93L87.6393 662.897V644.623L77.5702 638.656V656.93Z" fill="#C4C4C4"/>
<path d="M55.9385 644.25L66.0075 650.217V631.943L55.9385 625.976V644.25Z" fill="#C4C4C4"/>
<path d="M33.9357 631.943L44.3776 637.537V619.263L33.9357 613.669V631.943Z" fill="#C4C4C4"/>
<path d="M12.3077 619.263L22.3768 625.23V606.957L12.3077 600.99V619.263Z" fill="#C4C4C4"/>
<path d="M99.1981 690.866L109.267 696.46V678.186L99.1981 672.592V690.866Z" fill="#C4C4C4"/>
<path d="M77.5702 678.186L87.6393 684.153V665.879L77.5702 659.913V678.186Z" fill="#C4C4C4"/>
<path d="M55.9385 665.506L66.0075 671.473V653.2L55.9385 647.606V665.506Z" fill="url(#paint7_linear)"/>
<path d="M33.9357 653.2L44.3776 659.167V640.893L33.9357 634.927V653.2Z" fill="#C4C4C4"/>
<path d="M12.3077 640.52L22.3768 646.487V628.213L12.3077 622.247V640.52Z" fill="url(#paint8_linear)"/>
<path d="M99.1981 712.123L109.267 717.717V699.443L99.1981 693.849V712.123Z" fill="#C4C4C4"/>
<path d="M77.5702 699.443L87.6393 705.409V687.136L77.5702 681.169V699.443Z" fill="#C4C4C4"/>
<path d="M55.9385 687.136L66.0075 692.73V674.457L55.9385 668.863V687.136Z" fill="#C4C4C4"/>
<path d="M33.9357 674.457L44.3776 680.424V662.15L33.9357 656.183V674.457Z" fill="#C4C4C4"/>
<path d="M12.3077 661.777L22.3768 667.744V649.47L12.3077 643.504V661.777Z" fill="#C4C4C4"/>
<path d="M99.1981 733.379L109.267 738.973V720.7L99.1981 715.106V733.379Z" fill="#C4C4C4"/>
<path d="M77.5702 720.7L87.6393 726.667V708.394L77.5702 702.427V720.7Z" fill="#C4C4C4"/>
<path d="M55.9385 708.393L66.0075 713.987V695.714L55.9385 690.12V708.393Z" fill="#C4C4C4"/>
<path d="M33.9357 695.713L44.3776 701.68V683.407L33.9357 677.44V695.713Z" fill="#C4C4C4"/>
<path d="M12.3077 683.034L22.3768 689.001V670.727L12.3077 664.761V683.034Z" fill="#C4C4C4"/>
<path d="M99.1981 754.636L109.267 760.23V741.957L99.1981 736.363V754.636Z" fill="#C4C4C4"/>
<path d="M77.5702 741.956L87.6393 747.923V729.65L77.5702 723.683V741.956Z" fill="#C4C4C4"/>
<path d="M55.9385 729.651L66.0075 735.245V716.971L55.9385 711.377V729.651Z" fill="#C4C4C4"/>
<path d="M33.9357 716.97L44.3776 722.937V704.664L33.9357 698.697V716.97Z" fill="#C4C4C4"/>
<path d="M12.3077 704.291L22.3768 710.258V691.985L12.3077 686.018V704.291Z" fill="#C4C4C4"/>
<path d="M99.1981 775.893L109.267 781.86V763.586L99.1981 757.62V775.893Z" fill="#C4C4C4"/>
<path d="M77.5702 763.214L87.6393 769.181V750.907L77.5702 744.94V763.214Z" fill="#C4C4C4"/>
<path d="M55.9385 750.907L66.0075 756.501V738.228L55.9385 732.634V750.907Z" fill="#C4C4C4"/>
<path d="M33.9357 738.228L44.3776 744.194V725.921L33.9357 719.954V738.228Z" fill="#C4C4C4"/>
<path d="M12.3077 725.921L22.3768 731.515V713.242L12.3077 707.648V725.921Z" fill="#C4C4C4"/>
<path d="M99.1981 797.151L109.267 803.118V784.844L99.1981 778.877V797.151Z" fill="#C4C4C4"/>
<path d="M77.5702 784.47L87.6393 790.437V772.164L77.5702 766.197V784.47Z" fill="#C4C4C4"/>
<path d="M55.9385 772.164L66.0075 778.131V759.857L55.9385 753.89V772.164Z" fill="#C4C4C4"/>
<path d="M33.9357 759.484L44.3776 765.451V747.178L33.9357 741.211V759.484Z" fill="#C4C4C4"/>
<path d="M12.3077 747.178L22.3768 752.772V734.498L12.3077 728.904V747.178Z" fill="#C4C4C4"/>
<path d="M99.1981 818.407L109.267 824.374V806.1L99.1981 800.133V818.407Z" fill="#C4C4C4"/>
<path d="M77.5702 805.728L87.6393 811.695V793.421L77.5702 787.827V805.728Z" fill="#C4C4C4"/>
<path d="M55.9385 793.421L66.0075 799.388V781.115L55.9385 775.148V793.421Z" fill="#C4C4C4"/>
<path d="M33.9357 780.741L44.3776 786.708V768.435L33.9357 762.468V780.741Z" fill="#C4C4C4"/>
<path d="M12.3077 768.435L22.3768 774.029V755.755L12.3077 750.161V768.435Z" fill="#C4C4C4"/>
<path d="M99.1981 839.664L109.267 845.631V827.357L99.1981 821.391V839.664Z" fill="#C4C4C4"/>
<path d="M77.5702 827.357L87.6393 832.951V814.678L77.5702 809.084V827.357Z" fill="#C4C4C4"/>
<path d="M55.9385 814.677L66.0075 820.644V802.371L55.9385 796.404V814.677Z" fill="#C4C4C4"/>
<path d="M33.9357 801.998L44.3776 807.965V789.691L33.9357 783.724V801.998Z" fill="url(#paint9_linear)"/>
<path d="M12.3077 789.692L22.3768 795.286V777.012L12.3077 771.418V789.692Z" fill="#C4C4C4"/>
<path d="M99.1981 860.921L109.267 866.888V848.614L99.1981 842.647V860.921Z" fill="#C4C4C4"/>
<path d="M77.5702 848.614L87.6393 854.208V835.935L77.5702 830.341V848.614Z" fill="#C4C4C4"/>
<path d="M55.9385 835.935L66.0075 841.902V823.628L55.9385 817.661V835.935Z" fill="#C4C4C4"/>
<path d="M33.9357 823.255L44.3776 829.222V810.949L33.9357 804.982V823.255Z" fill="#C4C4C4"/>
<path d="M12.3077 810.948L22.3768 816.542V798.642L12.3077 792.675V810.948Z" fill="#C4C4C4"/>
<path d="M99.1981 882.177L109.267 888.144V869.871L99.1981 863.904V882.177Z" fill="#C4C4C4"/>
<path d="M77.5702 869.871L87.6393 875.465V857.192L77.5702 851.598V869.871Z" fill="#C4C4C4"/>
<path d="M55.9385 857.191L66.0075 863.158V844.885L55.9385 838.918V857.191Z" fill="#C4C4C4"/>
<path d="M33.9357 844.512L44.3776 850.479V832.205L33.9357 826.611V844.512Z" fill="#C4C4C4"/>
<path d="M12.3077 832.205L22.3768 838.172V819.899L12.3077 813.932V832.205Z" fill="#C4C4C4"/>
<path d="M99.1981 903.434L109.267 909.401V891.128L99.1981 885.161V903.434Z" fill="#C4C4C4"/>
<path d="M77.5702 891.128L87.6393 896.722V878.821L77.5702 872.854V891.128Z" fill="url(#paint10_linear)"/>
<path d="M55.9385 878.448L66.0075 884.415V866.142L55.9385 860.175V878.448Z" fill="#C4C4C4"/>
<path d="M33.9357 866.142L44.3776 871.736V853.462L33.9357 847.868V866.142Z" fill="#C4C4C4"/>
<path d="M12.3077 853.463L22.3768 859.429V841.156L12.3077 835.189V853.463Z" fill="#C4C4C4"/>
<path d="M0 891.128L121.575 961.239V935.507L0 865.396V891.128Z" fill="#9E9E9E"/>
<path d="M243.149 553.255L121.575 483.145L0 553.255L121.575 623.366L243.149 553.255Z" fill="#5F5F5F"/>
<path d="M143.951 647.979L133.882 653.946V635.672L143.951 629.705V647.979Z" fill="#C4C4C4"/>
<path d="M121.574 99.402V53.5319" stroke="#BDBDBD" stroke-width="0.831274" stroke-miterlimit="10"/>
<path d="M230.469 530.507L121.574 593.159V313.836L230.469 250.811V530.507Z" fill="url(#paint11_linear)"/>
<path d="M161.105 324.65L152.155 329.871V313.462L161.105 308.241V324.65Z" fill="#BDBDBD" fill-opacity="0.8"/>
<path d="M180.497 313.463L171.547 318.684V302.275L180.497 297.054V313.463Z" fill="#BDBDBD" fill-opacity="0.8"/>
<path d="M141.713 354.858L132.763 360.079V343.67L141.713 338.449V354.858Z" fill="#BDBDBD" fill-opacity="0.8"/>
<path d="M161.105 343.67L152.155 348.891V332.482L161.105 327.261V343.67Z" fill="#BDBDBD" fill-opacity="0.8"/>
<path d="M180.497 332.482L171.547 337.703V321.294L180.497 316.073V332.482Z" fill="#BDBDBD" fill-opacity="0.8"/>
<path d="M141.713 373.877L132.763 379.098V362.689L141.713 357.468V373.877Z" fill="#BDBDBD" fill-opacity="0.8"/>
<path d="M161.105 362.689L152.155 367.91V351.501L161.105 346.28V362.689Z" fill="#BDBDBD" fill-opacity="0.8"/>
<path d="M180.497 351.501L171.547 356.722V340.314L180.497 335.093V351.501Z" fill="#BDBDBD" fill-opacity="0.8"/>
<path d="M141.713 392.896L132.763 398.117V381.708L141.713 376.487V392.896Z" fill="#BDBDBD" fill-opacity="0.8"/>
<path d="M161.105 381.709L152.155 386.93V370.521L161.105 365.3V381.709Z" fill="#BDBDBD" fill-opacity="0.8"/>
<path d="M180.497 370.521L171.547 375.742V359.333L180.497 354.112V370.521Z" fill="#BDBDBD" fill-opacity="0.8"/>
<path d="M141.713 411.916L132.763 417.137V400.728L141.713 395.507V411.916Z" fill="url(#paint12_linear)"/>
<path d="M161.105 400.727L152.155 405.948V389.54L161.105 384.318V400.727Z" fill="#BDBDBD" fill-opacity="0.8"/>
<path d="M180.497 389.539L171.547 394.76V378.352L180.497 373.131V389.539Z" fill="#BDBDBD" fill-opacity="0.8"/>
<path d="M141.713 430.935L132.763 436.156V420.12L141.713 414.526V430.935Z" fill="#BDBDBD" fill-opacity="0.8"/>
<path d="M161.105 419.747L152.155 424.968V408.559L161.105 403.338V419.747Z" fill="#BDBDBD" fill-opacity="0.8"/>
<path d="M180.497 408.559L171.547 413.78V397.371L180.497 392.15V408.559Z" fill="url(#paint13_linear)"/>
<path d="M141.713 449.954L132.763 455.175V439.14L141.713 433.546V449.954Z" fill="#BDBDBD" fill-opacity="0.8"/>
<path d="M161.105 438.767L152.155 443.987V427.952L161.105 422.358V438.767Z" fill="#BDBDBD" fill-opacity="0.8"/>
<path d="M180.497 427.578L171.547 432.799V416.391L180.497 411.17V427.578Z" fill="#BDBDBD" fill-opacity="0.8"/>
<path d="M141.713 468.974L132.763 474.567V458.159L141.713 452.938V468.974Z" fill="#BDBDBD" fill-opacity="0.8"/>
<path d="M161.105 457.786L152.155 463.007V446.971L161.105 441.75V457.786Z" fill="#BDBDBD" fill-opacity="0.8"/>
<path d="M180.497 446.598L171.547 451.819V435.783L180.497 430.562V446.598Z" fill="#BDBDBD" fill-opacity="0.8"/>
<path d="M141.713 488.366L132.763 493.587V477.178L141.713 471.957V488.366Z" fill="#BDBDBD" fill-opacity="0.8"/>
<path d="M161.105 477.178L152.155 482.399V465.99L161.105 460.769V477.178Z" fill="#BDBDBD" fill-opacity="0.8"/>
<path d="M180.497 465.99L171.547 470.838V454.802L180.497 449.581V465.99Z" fill="#BDBDBD" fill-opacity="0.8"/>
<path d="M141.713 507.385L132.763 512.606V496.197L141.713 490.976V507.385Z" fill="#BDBDBD" fill-opacity="0.8"/>
<path d="M161.105 496.197L152.155 501.418V485.009L161.105 479.788V496.197Z" fill="#BDBDBD" fill-opacity="0.8"/>
<path d="M180.497 485.009L171.547 490.23V473.821L180.497 468.6V485.009Z" fill="url(#paint14_linear)"/>
<path d="M141.713 526.404L132.763 531.625V515.216L141.713 509.995V526.404Z" fill="#BDBDBD" fill-opacity="0.8"/>
<path d="M161.105 515.217L152.155 520.438V504.029L161.105 498.808V515.217Z" fill="#BDBDBD" fill-opacity="0.8"/>
<path d="M180.497 504.029L171.547 509.25V492.841L180.497 487.62V504.029Z" fill="#BDBDBD" fill-opacity="0.8"/>
<path d="M141.713 545.424L132.763 550.645V534.236L141.713 529.015V545.424Z" fill="#BDBDBD" fill-opacity="0.8"/>
<path d="M161.105 534.236L152.155 539.457V523.048L161.105 517.827V534.236Z" fill="url(#paint15_linear)"/>
<path d="M180.497 523.048L171.547 528.269V511.86L180.497 506.639V523.048Z" fill="#BDBDBD" fill-opacity="0.8"/>
<path d="M141.713 564.443L132.763 569.664V553.255L141.713 548.034V564.443Z" fill="#BDBDBD" fill-opacity="0.8"/>
<path d="M161.105 553.255L152.155 558.476V542.067L161.105 536.846V553.255Z" fill="#BDBDBD" fill-opacity="0.8"/>
<path d="M180.497 542.067L171.547 547.288V530.879L180.497 525.658V542.067Z" fill="#BDBDBD" fill-opacity="0.8"/>
<path d="M230.469 553.255L121.574 616.28V593.159L230.469 530.507V553.255Z" fill="#B5B0B0"/>
<path d="M12.6788 530.507L121.574 593.159V313.836L12.6788 250.811V530.507Z" fill="url(#paint16_linear)"/>
<path d="M101.436 335.838L110.386 341.059V324.65L101.436 319.429V335.838Z" fill="url(#paint17_linear)"/>
<path d="M82.0438 324.65L90.9941 329.871V313.462L82.0438 308.241V324.65Z" fill="#BDBDBD" fill-opacity="0.8"/>
<path d="M62.6517 313.463L71.602 318.684V302.275L62.6517 297.054V313.463Z" fill="#BDBDBD" fill-opacity="0.8"/>
<path d="M43.2596 301.901L52.2099 307.495V291.087L43.2596 285.866V301.901Z" fill="#BDBDBD" fill-opacity="0.8"/>
<path d="M23.8677 290.713L32.818 295.934V279.898L23.8677 274.677V290.713Z" fill="#BDBDBD" fill-opacity="0.8"/>
<path d="M101.436 354.858L110.386 360.079V343.67L101.436 338.449V354.858Z" fill="#BDBDBD" fill-opacity="0.8"/>
<path d="M82.0438 343.67L90.9941 348.891V332.482L82.0438 327.261V343.67Z" fill="#BDBDBD" fill-opacity="0.8"/>
<path d="M62.6517 332.482L71.602 337.703V321.294L62.6517 316.073V332.482Z" fill="#BDBDBD" fill-opacity="0.8"/>
<path d="M43.2596 321.294L52.2099 326.515V310.106L43.2596 304.885V321.294Z" fill="#BDBDBD" fill-opacity="0.8"/>
<path d="M23.8677 309.734L32.818 315.328V298.919L23.8677 293.698V309.734Z" fill="#BDBDBD" fill-opacity="0.8"/>
<path d="M101.436 373.877L110.386 379.098V362.689L101.436 357.468V373.877Z" fill="#BDBDBD" fill-opacity="0.8"/>
<path d="M82.0438 362.689L90.9941 367.91V351.501L82.0438 346.28V362.689Z" fill="#BDBDBD" fill-opacity="0.8"/>
<path d="M62.6517 351.501L71.602 356.722V340.314L62.6517 335.093V351.501Z" fill="url(#paint18_linear)"/>
<path d="M43.2596 340.314L52.2099 345.535V329.126L43.2596 323.905V340.314Z" fill="#BDBDBD" fill-opacity="0.8"/>
<path d="M23.8677 329.126L32.818 334.347V317.938L23.8677 312.717V329.126Z" fill="url(#paint19_linear)"/>
<path d="M101.436 392.896L110.386 398.117V381.708L101.436 376.487V392.896Z" fill="#BDBDBD" fill-opacity="0.8"/>
<path d="M82.0438 381.709L90.9941 386.93V370.521L82.0438 365.3V381.709Z" fill="#BDBDBD" fill-opacity="0.8"/>
<path d="M62.6517 370.521L71.602 375.742V359.333L62.6517 354.112V370.521Z" fill="#BDBDBD" fill-opacity="0.8"/>
<path d="M43.2596 359.333L52.2099 364.554V348.145L43.2596 342.924V359.333Z" fill="#BDBDBD" fill-opacity="0.8"/>
<path d="M23.8677 348.145L32.818 353.366V336.957L23.8677 331.736V348.145Z" fill="#BDBDBD" fill-opacity="0.8"/>
<path d="M101.436 411.916L110.386 417.137V400.728L101.436 395.507V411.916Z" fill="#BDBDBD" fill-opacity="0.8"/>
<path d="M82.0438 400.727L90.9941 405.948V389.54L82.0438 384.318V400.727Z" fill="#BDBDBD" fill-opacity="0.8"/>
<path d="M62.6517 389.539L71.602 394.76V378.352L62.6517 373.131V389.539Z" fill="#BDBDBD" fill-opacity="0.8"/>
<path d="M43.2596 378.352L52.2099 383.573V367.164L43.2596 361.943V378.352Z" fill="#BDBDBD" fill-opacity="0.8"/>
<path d="M23.8677 367.164L32.818 372.385V355.976L23.8677 350.755V367.164Z" fill="#BDBDBD" fill-opacity="0.8"/>
<path d="M101.436 430.935L110.386 436.156V420.12L101.436 414.526V430.935Z" fill="#BDBDBD" fill-opacity="0.8"/>
<path d="M82.0438 419.747L90.9941 424.968V408.559L82.0438 403.338V419.747Z" fill="#BDBDBD" fill-opacity="0.8"/>
<path d="M62.6517 408.559L71.602 413.78V397.371L62.6517 392.15V408.559Z" fill="#BDBDBD" fill-opacity="0.8"/>
<path d="M43.2596 397.371L52.2099 402.592V386.183L43.2596 380.962V397.371Z" fill="#BDBDBD" fill-opacity="0.8"/>
<path d="M23.8677 386.184L32.818 391.405V374.996L23.8677 369.775V386.184Z" fill="#BDBDBD" fill-opacity="0.8"/>
<path d="M101.436 449.954L110.386 455.175V439.14L101.436 433.546V449.954Z" fill="#BDBDBD" fill-opacity="0.8"/>
<path d="M82.0438 438.767L90.9941 443.987V427.952L82.0438 422.358V438.767Z" fill="#BDBDBD" fill-opacity="0.8"/>
<path d="M62.6517 427.578L71.602 432.799V416.391L62.6517 411.17V427.578Z" fill="#BDBDBD" fill-opacity="0.8"/>
<path d="M43.2596 416.391L52.2099 421.612V405.203L43.2596 399.982V416.391Z" fill="#BDBDBD" fill-opacity="0.8"/>
<path d="M23.8677 405.203L32.818 410.424V394.015L23.8677 388.794V405.203Z" fill="#BDBDBD" fill-opacity="0.8"/>
<path d="M101.436 468.974L110.386 474.567V458.159L101.436 452.938V468.974Z" fill="#BDBDBD" fill-opacity="0.8"/>
<path d="M82.0438 457.786L90.9941 463.007V446.971L82.0438 441.75V457.786Z" fill="#BDBDBD" fill-opacity="0.8"/>
<path d="M62.6517 446.598L71.602 451.819V435.783L62.6517 430.562V446.598Z" fill="#BDBDBD" fill-opacity="0.8"/>
<path d="M43.2596 435.41L52.2099 440.631V424.222L43.2596 419.001V435.41Z" fill="#BDBDBD" fill-opacity="0.8"/>
<path d="M23.8677 424.222L32.818 429.443V413.035L23.8677 407.814V424.222Z" fill="#BDBDBD" fill-opacity="0.8"/>
<path d="M101.436 488.366L110.386 493.587V477.178L101.436 471.957V488.366Z" fill="#BDBDBD" fill-opacity="0.8"/>
<path d="M82.0438 477.178L90.9941 482.399V465.99L82.0438 460.769V477.178Z" fill="#BDBDBD" fill-opacity="0.8"/>
<path d="M62.6517 465.99L71.602 470.838V454.802L62.6517 449.581V465.99Z" fill="#BDBDBD" fill-opacity="0.8"/>
<path d="M43.2596 454.429L52.2099 459.65V443.614L43.2596 438.393V454.429Z" fill="#BDBDBD" fill-opacity="0.8"/>
<path d="M23.8677 443.242L32.818 448.463V432.427L23.8677 426.833V443.242Z" fill="#BDBDBD" fill-opacity="0.8"/>
<path d="M101.436 507.385L110.386 512.606V496.197L101.436 490.976V507.385Z" fill="#BDBDBD" fill-opacity="0.8"/>
<path d="M82.0438 496.197L90.9941 501.418V485.009L82.0438 479.788V496.197Z" fill="#BDBDBD" fill-opacity="0.8"/>
<path d="M62.6517 485.009L71.602 490.23V473.821L62.6517 468.6V485.009Z" fill="#BDBDBD" fill-opacity="0.8"/>
<path d="M43.2596 473.448L52.2099 479.042V462.633L43.2596 457.412V473.448Z" fill="url(#paint20_linear)"/>
<path d="M23.8677 462.261L32.818 467.855V451.446L23.8677 446.225V462.261Z" fill="#BDBDBD" fill-opacity="0.8"/>
<path d="M101.436 526.404L110.386 531.625V515.216L101.436 509.995V526.404Z" fill="#BDBDBD" fill-opacity="0.8"/>
<path d="M82.0438 515.217L90.9941 520.438V504.029L82.0438 498.808V515.217Z" fill="#BDBDBD" fill-opacity="0.8"/>
<path d="M62.6517 504.029L71.602 509.25V492.841L62.6517 487.62V504.029Z" fill="#BDBDBD" fill-opacity="0.8"/>
<path d="M43.2596 492.841L52.2099 498.062V481.653L43.2596 476.432V492.841Z" fill="#BDBDBD" fill-opacity="0.8"/>
<path d="M23.8677 481.28L32.818 486.874V470.465L23.8677 465.244V481.28Z" fill="#BDBDBD" fill-opacity="0.8"/>
<path d="M101.436 545.424L110.386 550.645V534.236L101.436 529.015V545.424Z" fill="#BDBDBD" fill-opacity="0.8"/>
<path d="M82.0438 534.236L90.9941 539.457V523.048L82.0438 517.827V534.236Z" fill="#BDBDBD" fill-opacity="0.8"/>
<path d="M62.6517 523.048L71.602 528.269V511.86L62.6517 506.639V523.048Z" fill="#BDBDBD" fill-opacity="0.8"/>
<path d="M43.2596 511.86L52.2099 517.081V500.672L43.2596 495.451V511.86Z" fill="#BDBDBD" fill-opacity="0.8"/>
<path d="M23.8677 500.673L32.818 505.894V489.485L23.8677 484.264V500.673Z" fill="#BDBDBD" fill-opacity="0.8"/>
<path d="M101.436 564.443L110.386 569.664V553.255L101.436 548.034V564.443Z" fill="#BDBDBD" fill-opacity="0.8"/>
<path d="M82.0438 553.255L90.9941 558.476V542.067L82.0438 536.846V553.255Z" fill="url(#paint21_linear)"/>
<path d="M62.6517 542.067L71.602 547.288V530.879L62.6517 525.658V542.067Z" fill="#BDBDBD" fill-opacity="0.8"/>
<path d="M43.2596 530.88L52.2099 536.101V519.692L43.2596 514.471V530.88Z" fill="#BDBDBD" fill-opacity="0.8"/>
<path d="M23.8677 519.692L32.818 524.912V508.504L23.8677 503.283V519.692Z" fill="#BDBDBD" fill-opacity="0.8"/>
<path d="M12.6788 553.255L121.574 616.28V593.159L12.6788 530.507V553.255Z" fill="#9E9E9E"/>
<path d="M230.469 250.811L121.574 188.159L12.6788 250.811L121.574 313.836L230.469 250.811Z" fill="#9E9E9E"/>
<path d="M214.806 250.81L121.574 304.512V268.711L214.806 214.636V250.81Z" fill="url(#paint22_linear)"/>
<path d="M214.806 250.81L121.574 304.512V268.711L214.806 214.636V250.81Z" fill="url(#paint23_linear)"/>
<path d="M28.3431 250.81L121.575 304.512V268.711L28.3431 214.636V250.81Z" fill="url(#paint24_linear)"/>
<path d="M28.3431 250.81L121.575 304.512V268.711L28.3431 214.636V250.81Z" fill="url(#paint25_linear)"/>
<path d="M214.807 214.636L121.575 160.935L28.3431 214.636L121.575 268.711L214.807 214.636Z" fill="#9E9E9E"/>
<path d="M205.856 214.636L121.574 263.49V246.335L205.856 197.482V214.636Z" fill="url(#paint26_linear)"/>
<path d="M205.856 214.636L121.574 263.49V246.335L205.856 197.482V214.636Z" fill="url(#paint27_linear)"/>
<path d="M37.2924 214.636L121.574 263.49V246.335L37.2924 197.482V214.636Z" fill="url(#paint28_linear)"/>
<path d="M205.856 197.482L121.574 149.001L37.2924 197.482L121.574 246.335L205.856 197.482Z" fill="#9E9E9E"/>
<path d="M184.972 197.482L121.574 234.029V217.248L184.972 180.701V197.482Z" fill="url(#paint29_linear)"/>
<path d="M58.1763 197.482L121.574 234.029V217.248L58.1763 180.701V197.482Z" fill="url(#paint30_linear)"/>
<path d="M58.1763 197.482L121.574 234.029V217.248L58.1763 180.701V197.482Z" fill="url(#paint31_linear)"/>
<path d="M184.972 180.7L121.574 144.153L58.1763 180.7L121.574 217.247L184.972 180.7Z" fill="#9E9E9E"/>
<path d="M121.574 164.664V212.772L177.14 180.7L157.375 144.153L121.574 164.664Z" fill="#D7D7D7"/>
<path d="M121.575 164.664V212.772L66.0084 180.7L85.7736 144.153L121.575 164.664Z" fill="#EEEEEE"/>
<path d="M157.376 144.153L121.575 123.269L85.7734 144.153L121.575 164.664L157.376 144.153Z" fill="#9E9E9E"/>
<path d="M121.574 160.189V90.8246L149.916 144.153L121.574 160.189Z" fill="#D7D7D7"/>
<path d="M121.575 160.189V90.8246L93.6057 144.153L121.575 160.189Z" fill="#EEEEEE"/>
<path d="M141.803 334.728L132.853 339.949V323.54L141.803 318.319V334.728Z" fill="#BDBDBD" fill-opacity="0.8"/>
<path d="M127.914 297.054L125.304 298.173V270.949L127.914 269.457V297.054Z" fill="#FFBC92"/>
<path d="M127.914 297.054L125.304 298.173V270.949L127.914 269.457V297.054Z" fill="url(#paint32_linear)"/>
<path d="M132.763 294.07L130.525 295.562V267.965L132.763 266.473V294.07Z" fill="#FFBC92"/>
<path d="M132.763 294.07L130.525 295.562V267.965L132.763 266.473V294.07Z" fill="url(#paint33_linear)"/>
<path d="M137.611 291.087L135.374 292.579V264.982L137.611 263.863V291.087Z" fill="#FFBC92"/>
<path d="M137.611 291.087L135.374 292.579V264.982L137.611 263.863V291.087Z" fill="url(#paint34_linear)"/>
<path d="M142.458 288.476L140.22 289.968V262.371L142.458 260.88V288.476Z" fill="#FFBC92"/>
<path d="M142.458 288.476L140.22 289.968V262.371L142.458 260.88V288.476Z" fill="url(#paint35_linear)"/>
<path d="M147.306 285.493L145.069 286.985V259.388L147.306 258.269V285.493Z" fill="#FFBC92"/>
<path d="M147.306 285.493L145.069 286.985V259.388L147.306 258.269V285.493Z" fill="url(#paint36_linear)"/>
<path d="M152.528 282.882L149.917 284.001V256.778L152.528 255.286V282.882Z" fill="#FFBC92"/>
<path d="M152.528 282.882L149.917 284.001V256.778L152.528 255.286V282.882Z" fill="url(#paint37_linear)"/>
<path d="M157.376 279.899L154.766 281.391V253.794L157.376 252.302V279.899Z" fill="#FFBC92"/>
<path d="M157.376 279.899L154.766 281.391V253.794L157.376 252.302V279.899Z" fill="url(#paint38_linear)"/>
<path d="M162.225 276.915L159.614 278.407V251.183L162.225 249.692V276.915Z" fill="#FFBC92"/>
<path d="M162.225 276.915L159.614 278.407V251.183L162.225 249.692V276.915Z" fill="url(#paint39_linear)"/>
<path d="M167.071 274.305L164.461 275.797V248.2L167.071 246.708V274.305Z" fill="#FFBC92"/>
<path d="M167.071 274.305L164.461 275.797V248.2L167.071 246.708V274.305Z" fill="url(#paint40_linear)"/>
<path d="M171.92 271.322L169.682 272.814V245.217L171.92 244.098V271.322Z" fill="#FFBC92"/>
<path d="M171.92 271.322L169.682 272.814V245.217L171.92 244.098V271.322Z" fill="url(#paint41_linear)"/>
<path d="M176.768 268.711L174.531 270.203V242.606L176.768 241.115V268.711Z" fill="#FFBC92"/>
<path d="M176.768 268.711L174.531 270.203V242.606L176.768 241.115V268.711Z" fill="url(#paint42_linear)"/>
<path d="M181.617 265.727L179.379 267.219V239.622L181.617 238.504V265.727Z" fill="#FFBC92"/>
<path d="M181.617 265.727L179.379 267.219V239.622L181.617 238.504V265.727Z" fill="url(#paint43_linear)"/>
<path d="M186.463 263.117L184.226 264.236V237.012L186.463 235.52V263.117Z" fill="#FFBC92"/>
<path d="M186.463 263.117L184.226 264.236V237.012L186.463 235.52V263.117Z" fill="url(#paint44_linear)"/>
<path d="M115.235 297.054L117.846 298.173V270.949L115.235 269.457V297.054Z" fill="url(#paint45_linear)"/>
<path d="M110.387 294.07L112.997 295.562V267.965L110.387 266.473V294.07Z" fill="url(#paint46_linear)"/>
<path d="M105.539 291.087L108.149 292.579V264.982L105.539 263.863V291.087Z" fill="url(#paint47_linear)"/>
<path d="M100.69 288.476L102.928 289.968V262.371L100.69 260.88V288.476Z" fill="url(#paint48_linear)"/>
<path d="M95.8434 285.493L98.0809 286.985V259.388L95.8434 258.269V285.493Z" fill="url(#paint49_linear)"/>
<path d="M90.9949 282.882L93.2325 284.001V256.778L90.9949 255.286V282.882Z" fill="url(#paint50_linear)"/>
<path d="M86.1465 279.899L88.384 281.391V253.794L86.1465 252.302V279.899Z" fill="url(#paint51_linear)"/>
<path d="M81.298 276.915L83.5355 278.407V251.183L81.298 249.692V276.915Z" fill="url(#paint52_linear)"/>
<path d="M76.0784 274.305L78.6889 275.797V248.2L76.0784 246.708V274.305Z" fill="url(#paint53_linear)"/>
<path d="M71.2299 271.322L73.8403 272.814V245.217L71.2299 244.098V271.322Z" fill="url(#paint54_linear)"/>
<path d="M66.3813 268.711L68.9919 270.203V242.606L66.3813 241.115V268.711Z" fill="url(#paint55_linear)"/>
<path d="M61.5328 265.727L64.1433 267.219V239.622L61.5328 238.504V265.727Z" fill="url(#paint56_linear)"/>
<path d="M56.6844 263.117L59.2949 264.236V237.012L56.6844 235.52V263.117Z" fill="url(#paint57_linear)"/>
<path d="M51.8378 260.134L54.0754 261.626V234.029L51.8378 232.538V260.134Z" fill="url(#paint58_linear)"/>
<path d="M46.9893 257.15L49.2268 258.642V231.418L46.9893 229.926V257.15Z" fill="url(#paint59_linear)"/>
<path d="M42.1409 254.54L44.3784 256.032V228.435L42.1409 226.943V254.54Z" fill="url(#paint60_linear)"/>
<path d="M36.9193 251.557L39.5298 253.048V225.452L36.9193 224.333V251.557Z" fill="url(#paint61_linear)"/>
<path d="M32.0728 248.947L34.6832 250.066V222.842L32.0728 221.35V248.947Z" fill="url(#paint62_linear)"/>
<path d="M124.184 53.5321C124.184 55.0238 123.065 56.1426 121.574 56.1426C120.082 56.1426 118.963 55.0238 118.963 53.5321C118.963 52.0404 120.082 50.9216 121.574 50.9216C123.065 50.9216 124.184 52.0404 124.184 53.5321Z" fill="#BDBDBD"/>
<path d="M121.576 62.4817C120.83 62.4817 120.084 61.7358 120.084 60.99C120.084 60.2441 120.83 59.4983 121.576 59.4983C122.322 59.4983 123.067 60.2441 123.067 60.99C123.067 61.7358 122.694 62.4817 121.576 62.4817Z" fill="#BDBDBD"/>
<path d="M121.576 66.9568C120.83 66.9568 120.084 66.2109 120.084 65.4651C120.084 64.7192 120.83 63.9734 121.576 63.9734C122.322 63.9734 123.067 64.7192 123.067 65.4651C123.067 66.2109 122.694 66.9568 121.576 66.9568Z" fill="#BDBDBD"/>
<path d="M121.576 71.8053C120.83 71.8053 120.084 71.0594 120.084 70.3136C120.084 69.5677 120.83 68.8219 121.576 68.8219C122.322 68.8219 123.067 69.5677 123.067 70.3136C123.44 70.6865 122.694 71.4323 121.576 71.8053Z" fill="#BDBDBD"/>
</g>
<rect width="242.857" height="961.636" fill="url(#paint63_linear)"/>
<defs>
<linearGradient id="paint0_linear" x1="57.5862" y1="1070.07" x2="262.763" y2="1062.16" gradientUnits="userSpaceOnUse">
<stop stop-color="#BDBDBD"/>
<stop offset="1" stop-color="#EEEEEE"/>
</linearGradient>
<linearGradient id="paint1_linear" x1="133.882" y1="727.04" x2="143.951" y2="727.04" gradientUnits="userSpaceOnUse">
<stop stop-color="#88C378"/>
<stop offset="0.239583" stop-color="#6BCFA3"/>
<stop offset="0.75" stop-color="#5FB2CB"/>
<stop offset="1" stop-color="#3991D3"/>
</linearGradient>
<linearGradient id="paint2_linear" x1="177.514" y1="723.311" x2="187.583" y2="723.311" gradientUnits="userSpaceOnUse">
<stop stop-color="#88C378"/>
<stop offset="0.239583" stop-color="#6BCFA3"/>
<stop offset="0.75" stop-color="#5FB2CB"/>
<stop offset="1" stop-color="#3991D3"/>
</linearGradient>
<linearGradient id="paint3_linear" x1="177.514" y1="808.524" x2="187.583" y2="808.524" gradientUnits="userSpaceOnUse">
<stop stop-color="#88C378"/>
<stop offset="0.239583" stop-color="#6BCFA3"/>
<stop offset="0.75" stop-color="#5FB2CB"/>
<stop offset="1" stop-color="#3991D3"/>
</linearGradient>
<linearGradient id="paint4_linear" x1="155.511" y1="863.532" x2="165.953" y2="863.532" gradientUnits="userSpaceOnUse">
<stop stop-color="#88C378"/>
<stop offset="0.239583" stop-color="#6BCFA3"/>
<stop offset="0.75" stop-color="#5FB2CB"/>
<stop offset="1" stop-color="#3991D3"/>
</linearGradient>
<linearGradient id="paint5_linear" x1="60.7873" y1="553.255" x2="38.9807" y2="1097.49" gradientUnits="userSpaceOnUse">
<stop stop-color="#EEEEEE"/>
<stop offset="1" stop-color="#BDBDBD"/>
</linearGradient>
<linearGradient id="paint6_linear" x1="99.1981" y1="641.826" x2="109.267" y2="641.826" gradientUnits="userSpaceOnUse">
<stop stop-color="#88C378"/>
<stop offset="0.239583" stop-color="#6BCFA3"/>
<stop offset="0.75" stop-color="#5FB2CB"/>
<stop offset="1" stop-color="#3991D3"/>
</linearGradient>
<linearGradient id="paint7_linear" x1="55.9385" y1="659.54" x2="66.0075" y2="659.54" gradientUnits="userSpaceOnUse">
<stop stop-color="#88C378"/>
<stop offset="0.239583" stop-color="#6BCFA3"/>
<stop offset="0.75" stop-color="#5FB2CB"/>
<stop offset="1" stop-color="#3991D3"/>
</linearGradient>
<linearGradient id="paint8_linear" x1="12.3077" y1="634.367" x2="22.3768" y2="634.367" gradientUnits="userSpaceOnUse">
<stop stop-color="#88C378"/>
<stop offset="0.239583" stop-color="#6BCFA3"/>
<stop offset="0.75" stop-color="#5FB2CB"/>
<stop offset="1" stop-color="#3991D3"/>
</linearGradient>
<linearGradient id="paint9_linear" x1="33.9357" y1="795.844" x2="44.3776" y2="795.844" gradientUnits="userSpaceOnUse">
<stop stop-color="#88C378"/>
<stop offset="0.239583" stop-color="#6BCFA3"/>
<stop offset="0.75" stop-color="#5FB2CB"/>
<stop offset="1" stop-color="#3991D3"/>
</linearGradient>
<linearGradient id="paint10_linear" x1="77.5702" y1="884.788" x2="87.6393" y2="884.788" gradientUnits="userSpaceOnUse">
<stop stop-color="#88C378"/>
<stop offset="0.239583" stop-color="#6BCFA3"/>
<stop offset="0.75" stop-color="#5FB2CB"/>
<stop offset="1" stop-color="#3991D3"/>
</linearGradient>
<linearGradient id="paint11_linear" x1="109.487" y1="684.238" x2="276.731" y2="665.584" gradientUnits="userSpaceOnUse">
<stop stop-color="#BDBDBD"/>
<stop offset="0.242029" stop-color="#C9C9C9"/>
<stop offset="1" stop-color="#EEEEEE"/>
</linearGradient>
<linearGradient id="paint12_linear" x1="132.763" y1="406.322" x2="141.713" y2="406.322" gradientUnits="userSpaceOnUse">
<stop stop-color="#3991D3"/>
<stop offset="0.229167" stop-color="#5FB2CB"/>
<stop offset="0.671875" stop-color="#6BCFA3"/>
<stop offset="1" stop-color="#88C378"/>
</linearGradient>
<linearGradient id="paint13_linear" x1="171.547" y1="402.965" x2="180.497" y2="402.965" gradientUnits="userSpaceOnUse">
<stop stop-color="#3991D3"/>
<stop offset="0.229167" stop-color="#5FB2CB"/>
<stop offset="0.671875" stop-color="#6BCFA3"/>
<stop offset="1" stop-color="#88C378"/>
</linearGradient>
<linearGradient id="paint14_linear" x1="171.547" y1="479.415" x2="180.497" y2="479.415" gradientUnits="userSpaceOnUse">
<stop stop-color="#3991D3"/>
<stop offset="0.229167" stop-color="#5FB2CB"/>
<stop offset="0.671875" stop-color="#6BCFA3"/>
<stop offset="1" stop-color="#88C378"/>
</linearGradient>
<linearGradient id="paint15_linear" x1="152.155" y1="528.642" x2="161.105" y2="528.642" gradientUnits="userSpaceOnUse">
<stop stop-color="#3991D3"/>
<stop offset="0.229167" stop-color="#5FB2CB"/>
<stop offset="0.671875" stop-color="#6BCFA3"/>
<stop offset="1" stop-color="#88C378"/>
</linearGradient>
<linearGradient id="paint16_linear" x1="67.1263" y1="250.811" x2="66.3991" y2="652.902" gradientUnits="userSpaceOnUse">
<stop stop-color="#EEEEEE"/>
<stop offset="1" stop-color="#BDBDBD"/>
</linearGradient>
<linearGradient id="paint17_linear" x1="101.436" y1="330.244" x2="110.386" y2="330.244" gradientUnits="userSpaceOnUse">
<stop stop-color="#3991D3"/>
<stop offset="0.229167" stop-color="#5FB2CB"/>
<stop offset="0.671875" stop-color="#6BCFA3"/>
<stop offset="1" stop-color="#88C378"/>
</linearGradient>
<linearGradient id="paint18_linear" x1="62.6517" y1="345.908" x2="71.602" y2="345.908" gradientUnits="userSpaceOnUse">
<stop stop-color="#3991D3"/>
<stop offset="0.229167" stop-color="#5FB2CB"/>
<stop offset="0.671875" stop-color="#6BCFA3"/>
<stop offset="1" stop-color="#88C378"/>
</linearGradient>
<linearGradient id="paint19_linear" x1="23.8677" y1="323.532" x2="32.818" y2="323.532" gradientUnits="userSpaceOnUse">
<stop stop-color="#3991D3"/>
<stop offset="0.229167" stop-color="#5FB2CB"/>
<stop offset="0.671875" stop-color="#6BCFA3"/>
<stop offset="1" stop-color="#88C378"/>
</linearGradient>
<linearGradient id="paint20_linear" x1="43.2596" y1="468.227" x2="52.2099" y2="468.227" gradientUnits="userSpaceOnUse">
<stop stop-color="#3991D3"/>
<stop offset="0.229167" stop-color="#5FB2CB"/>
<stop offset="0.671875" stop-color="#6BCFA3"/>
<stop offset="1" stop-color="#88C378"/>
</linearGradient>
<linearGradient id="paint21_linear" x1="82.0438" y1="547.661" x2="90.9941" y2="547.661" gradientUnits="userSpaceOnUse">
<stop stop-color="#3991D3"/>
<stop offset="0.229167" stop-color="#5FB2CB"/>
<stop offset="0.671875" stop-color="#6BCFA3"/>
<stop offset="1" stop-color="#88C378"/>
</linearGradient>
<linearGradient id="paint22_linear" x1="140.993" y1="363.243" x2="136.533" y2="224.219" gradientUnits="userSpaceOnUse">
<stop stop-color="#01213B"/>
<stop offset="0.22" stop-color="#012A44"/>
<stop offset="0.57" stop-color="#01415C"/>
<stop offset="1" stop-color="#006581"/>
</linearGradient>
<linearGradient id="paint23_linear" x1="121.574" y1="304.512" x2="230.337" y2="277.747" gradientUnits="userSpaceOnUse">
<stop stop-color="#BDBDBD"/>
<stop offset="1" stop-color="#EEEEEE"/>
</linearGradient>
<linearGradient id="paint24_linear" x1="85.726" y1="306.073" x2="90.8805" y2="167.528" gradientUnits="userSpaceOnUse">
<stop stop-color="#01213B"/>
<stop offset="0.26" stop-color="#012E49"/>
<stop offset="0.76" stop-color="#00526D"/>
<stop offset="1" stop-color="#006581"/>
</linearGradient>
<linearGradient id="paint25_linear" x1="74.9591" y1="214.636" x2="74.9591" y2="304.512" gradientUnits="userSpaceOnUse">
<stop stop-color="#EEEEEE"/>
<stop offset="1" stop-color="#BDBDBD"/>
</linearGradient>
<linearGradient id="paint26_linear" x1="139.129" y1="306.624" x2="136.467" y2="204.484" gradientUnits="userSpaceOnUse">
<stop stop-color="#01213B"/>
<stop offset="0.22" stop-color="#012A44"/>
<stop offset="0.57" stop-color="#01415C"/>
<stop offset="1" stop-color="#006581"/>
</linearGradient>
<linearGradient id="paint27_linear" x1="121.574" y1="263.49" x2="217.086" y2="234.559" gradientUnits="userSpaceOnUse">
<stop stop-color="#BDBDBD"/>
<stop offset="1" stop-color="#EEEEEE"/>
</linearGradient>
<linearGradient id="paint28_linear" x1="79.4332" y1="197.482" x2="79.4332" y2="263.49" gradientUnits="userSpaceOnUse">
<stop stop-color="#EEEEEE"/>
<stop offset="1" stop-color="#BDBDBD"/>
</linearGradient>
<linearGradient id="paint29_linear" x1="121.574" y1="234.029" x2="194.232" y2="213.538" gradientUnits="userSpaceOnUse">
<stop stop-color="#BDBDBD"/>
<stop offset="1" stop-color="#EEEEEE"/>
</linearGradient>
<linearGradient id="paint30_linear" x1="97.1966" y1="234.956" x2="99.8663" y2="152.721" gradientUnits="userSpaceOnUse">
<stop stop-color="#01213B"/>
<stop offset="0.26" stop-color="#012E49"/>
<stop offset="0.76" stop-color="#00526D"/>
<stop offset="1" stop-color="#006581"/>
</linearGradient>
<linearGradient id="paint31_linear" x1="89.8751" y1="180.701" x2="89.8751" y2="234.029" gradientUnits="userSpaceOnUse">
<stop stop-color="#EEEEEE"/>
<stop offset="1" stop-color="#BDBDBD"/>
</linearGradient>
<linearGradient id="paint32_linear" x1="125.304" y1="283.815" x2="127.914" y2="283.815" gradientUnits="userSpaceOnUse">
<stop stop-color="#3991D3"/>
<stop offset="0.229167" stop-color="#5FB2CB"/>
<stop offset="0.671875" stop-color="#6BCFA3"/>
<stop offset="1" stop-color="#88C378"/>
</linearGradient>
<linearGradient id="paint33_linear" x1="130.525" y1="281.017" x2="132.763" y2="281.017" gradientUnits="userSpaceOnUse">
<stop stop-color="#3991D3"/>
<stop offset="0.229167" stop-color="#5FB2CB"/>
<stop offset="0.671875" stop-color="#6BCFA3"/>
<stop offset="1" stop-color="#88C378"/>
</linearGradient>
<linearGradient id="paint34_linear" x1="135.374" y1="278.221" x2="137.611" y2="278.221" gradientUnits="userSpaceOnUse">
<stop stop-color="#3991D3"/>
<stop offset="0.229167" stop-color="#5FB2CB"/>
<stop offset="0.671875" stop-color="#6BCFA3"/>
<stop offset="1" stop-color="#88C378"/>
</linearGradient>
<linearGradient id="paint35_linear" x1="140.22" y1="275.424" x2="142.458" y2="275.424" gradientUnits="userSpaceOnUse">
<stop stop-color="#3991D3"/>
<stop offset="0.229167" stop-color="#5FB2CB"/>
<stop offset="0.671875" stop-color="#6BCFA3"/>
<stop offset="1" stop-color="#88C378"/>
</linearGradient>
<linearGradient id="paint36_linear" x1="145.069" y1="272.627" x2="147.306" y2="272.627" gradientUnits="userSpaceOnUse">
<stop stop-color="#3991D3"/>
<stop offset="0.229167" stop-color="#5FB2CB"/>
<stop offset="0.671875" stop-color="#6BCFA3"/>
<stop offset="1" stop-color="#88C378"/>
</linearGradient>
<linearGradient id="paint37_linear" x1="149.917" y1="269.644" x2="152.528" y2="269.644" gradientUnits="userSpaceOnUse">
<stop stop-color="#3991D3"/>
<stop offset="0.229167" stop-color="#5FB2CB"/>
<stop offset="0.671875" stop-color="#6BCFA3"/>
<stop offset="1" stop-color="#88C378"/>
</linearGradient>
<linearGradient id="paint38_linear" x1="154.766" y1="266.846" x2="157.376" y2="266.846" gradientUnits="userSpaceOnUse">
<stop stop-color="#3991D3"/>
<stop offset="0.229167" stop-color="#5FB2CB"/>
<stop offset="0.671875" stop-color="#6BCFA3"/>
<stop offset="1" stop-color="#88C378"/>
</linearGradient>
<linearGradient id="paint39_linear" x1="159.614" y1="264.049" x2="162.225" y2="264.049" gradientUnits="userSpaceOnUse">
<stop stop-color="#3991D3"/>
<stop offset="0.229167" stop-color="#5FB2CB"/>
<stop offset="0.671875" stop-color="#6BCFA3"/>
<stop offset="1" stop-color="#88C378"/>
</linearGradient>
<linearGradient id="paint40_linear" x1="164.461" y1="261.252" x2="167.071" y2="261.252" gradientUnits="userSpaceOnUse">
<stop stop-color="#3991D3"/>
<stop offset="0.229167" stop-color="#5FB2CB"/>
<stop offset="0.671875" stop-color="#6BCFA3"/>
<stop offset="1" stop-color="#88C378"/>
</linearGradient>
<linearGradient id="paint41_linear" x1="169.682" y1="258.456" x2="171.92" y2="258.456" gradientUnits="userSpaceOnUse">
<stop stop-color="#3991D3"/>
<stop offset="0.229167" stop-color="#5FB2CB"/>
<stop offset="0.671875" stop-color="#6BCFA3"/>
<stop offset="1" stop-color="#88C378"/>
</linearGradient>
<linearGradient id="paint42_linear" x1="174.531" y1="255.659" x2="176.768" y2="255.659" gradientUnits="userSpaceOnUse">
<stop stop-color="#3991D3"/>
<stop offset="0.229167" stop-color="#5FB2CB"/>
<stop offset="0.671875" stop-color="#6BCFA3"/>
<stop offset="1" stop-color="#88C378"/>
</linearGradient>
<linearGradient id="paint43_linear" x1="179.379" y1="252.861" x2="181.617" y2="252.861" gradientUnits="userSpaceOnUse">
<stop stop-color="#3991D3"/>
<stop offset="0.229167" stop-color="#5FB2CB"/>
<stop offset="0.671875" stop-color="#6BCFA3"/>
<stop offset="1" stop-color="#88C378"/>
</linearGradient>
<linearGradient id="paint44_linear" x1="184.226" y1="249.878" x2="186.463" y2="249.878" gradientUnits="userSpaceOnUse">
<stop stop-color="#3991D3"/>
<stop offset="0.229167" stop-color="#5FB2CB"/>
<stop offset="0.671875" stop-color="#6BCFA3"/>
<stop offset="1" stop-color="#88C378"/>
</linearGradient>
<linearGradient id="paint45_linear" x1="115.235" y1="283.815" x2="117.846" y2="283.815" gradientUnits="userSpaceOnUse">
<stop stop-color="#3991D3"/>
<stop offset="0.229167" stop-color="#5FB2CB"/>
<stop offset="0.671875" stop-color="#6BCFA3"/>
<stop offset="1" stop-color="#88C378"/>
</linearGradient>
<linearGradient id="paint46_linear" x1="110.387" y1="281.017" x2="112.997" y2="281.017" gradientUnits="userSpaceOnUse">
<stop stop-color="#3991D3"/>
<stop offset="0.229167" stop-color="#5FB2CB"/>
<stop offset="0.671875" stop-color="#6BCFA3"/>
<stop offset="1" stop-color="#88C378"/>
</linearGradient>
<linearGradient id="paint47_linear" x1="105.539" y1="278.221" x2="108.149" y2="278.221" gradientUnits="userSpaceOnUse">
<stop stop-color="#3991D3"/>
<stop offset="0.229167" stop-color="#5FB2CB"/>
<stop offset="0.671875" stop-color="#6BCFA3"/>
<stop offset="1" stop-color="#88C378"/>
</linearGradient>
<linearGradient id="paint48_linear" x1="100.69" y1="275.424" x2="102.928" y2="275.424" gradientUnits="userSpaceOnUse">
<stop stop-color="#3991D3"/>
<stop offset="0.229167" stop-color="#5FB2CB"/>
<stop offset="0.671875" stop-color="#6BCFA3"/>
<stop offset="1" stop-color="#88C378"/>
</linearGradient>
<linearGradient id="paint49_linear" x1="95.8434" y1="272.627" x2="98.0809" y2="272.627" gradientUnits="userSpaceOnUse">
<stop stop-color="#3991D3"/>
<stop offset="0.229167" stop-color="#5FB2CB"/>
<stop offset="0.671875" stop-color="#6BCFA3"/>
<stop offset="1" stop-color="#88C378"/>
</linearGradient>
<linearGradient id="paint50_linear" x1="90.9949" y1="269.644" x2="93.2325" y2="269.644" gradientUnits="userSpaceOnUse">
<stop stop-color="#3991D3"/>
<stop offset="0.229167" stop-color="#5FB2CB"/>
<stop offset="0.671875" stop-color="#6BCFA3"/>
<stop offset="1" stop-color="#88C378"/>
</linearGradient>
<linearGradient id="paint51_linear" x1="86.1465" y1="266.846" x2="88.384" y2="266.846" gradientUnits="userSpaceOnUse">
<stop stop-color="#3991D3"/>
<stop offset="0.229167" stop-color="#5FB2CB"/>
<stop offset="0.671875" stop-color="#6BCFA3"/>
<stop offset="1" stop-color="#88C378"/>
</linearGradient>
<linearGradient id="paint52_linear" x1="81.298" y1="264.049" x2="83.5355" y2="264.049" gradientUnits="userSpaceOnUse">
<stop stop-color="#3991D3"/>
<stop offset="0.229167" stop-color="#5FB2CB"/>
<stop offset="0.671875" stop-color="#6BCFA3"/>
<stop offset="1" stop-color="#88C378"/>
</linearGradient>
<linearGradient id="paint53_linear" x1="76.0784" y1="261.252" x2="78.6889" y2="261.252" gradientUnits="userSpaceOnUse">
<stop stop-color="#3991D3"/>
<stop offset="0.229167" stop-color="#5FB2CB"/>
<stop offset="0.671875" stop-color="#6BCFA3"/>
<stop offset="1" stop-color="#88C378"/>
</linearGradient>
<linearGradient id="paint54_linear" x1="71.2299" y1="258.456" x2="73.8403" y2="258.456" gradientUnits="userSpaceOnUse">
<stop stop-color="#3991D3"/>
<stop offset="0.229167" stop-color="#5FB2CB"/>
<stop offset="0.671875" stop-color="#6BCFA3"/>
<stop offset="1" stop-color="#88C378"/>
</linearGradient>
<linearGradient id="paint55_linear" x1="66.3813" y1="255.659" x2="68.9919" y2="255.659" gradientUnits="userSpaceOnUse">
<stop stop-color="#3991D3"/>
<stop offset="0.229167" stop-color="#5FB2CB"/>
<stop offset="0.671875" stop-color="#6BCFA3"/>
<stop offset="1" stop-color="#88C378"/>
</linearGradient>
<linearGradient id="paint56_linear" x1="61.5328" y1="252.861" x2="64.1433" y2="252.861" gradientUnits="userSpaceOnUse">
<stop stop-color="#3991D3"/>
<stop offset="0.229167" stop-color="#5FB2CB"/>
<stop offset="0.671875" stop-color="#6BCFA3"/>
<stop offset="1" stop-color="#88C378"/>
</linearGradient>
<linearGradient id="paint57_linear" x1="56.6844" y1="249.878" x2="59.2949" y2="249.878" gradientUnits="userSpaceOnUse">
<stop stop-color="#3991D3"/>
<stop offset="0.229167" stop-color="#5FB2CB"/>
<stop offset="0.671875" stop-color="#6BCFA3"/>
<stop offset="1" stop-color="#88C378"/>
</linearGradient>
<linearGradient id="paint58_linear" x1="51.8378" y1="247.082" x2="54.0754" y2="247.082" gradientUnits="userSpaceOnUse">
<stop stop-color="#3991D3"/>
<stop offset="0.229167" stop-color="#5FB2CB"/>
<stop offset="0.671875" stop-color="#6BCFA3"/>
<stop offset="1" stop-color="#88C378"/>
</linearGradient>
<linearGradient id="paint59_linear" x1="46.9893" y1="244.284" x2="49.2268" y2="244.284" gradientUnits="userSpaceOnUse">
<stop stop-color="#3991D3"/>
<stop offset="0.229167" stop-color="#5FB2CB"/>
<stop offset="0.671875" stop-color="#6BCFA3"/>
<stop offset="1" stop-color="#88C378"/>
</linearGradient>
<linearGradient id="paint60_linear" x1="42.1409" y1="241.487" x2="44.3784" y2="241.487" gradientUnits="userSpaceOnUse">
<stop stop-color="#3991D3"/>
<stop offset="0.229167" stop-color="#5FB2CB"/>
<stop offset="0.671875" stop-color="#6BCFA3"/>
<stop offset="1" stop-color="#88C378"/>
</linearGradient>
<linearGradient id="paint61_linear" x1="36.9193" y1="238.691" x2="39.5298" y2="238.691" gradientUnits="userSpaceOnUse">
<stop stop-color="#3991D3"/>
<stop offset="0.229167" stop-color="#5FB2CB"/>
<stop offset="0.671875" stop-color="#6BCFA3"/>
<stop offset="1" stop-color="#88C378"/>
</linearGradient>
<linearGradient id="paint62_linear" x1="32.0728" y1="235.708" x2="34.6832" y2="235.708" gradientUnits="userSpaceOnUse">
<stop stop-color="#3991D3"/>
<stop offset="0.229167" stop-color="#5FB2CB"/>
<stop offset="0.671875" stop-color="#6BCFA3"/>
<stop offset="1" stop-color="#88C378"/>
</linearGradient>
<linearGradient id="paint63_linear" x1="121.429" y1="0" x2="121.429" y2="961.636" gradientUnits="userSpaceOnUse">
<stop stop-color="#F1F1F1" stop-opacity="0"/>
<stop offset="0.705859" stop-color="#F1F1F1"/>
<stop offset="1" stop-color="#F1F1F1"/>
</linearGradient>
</defs>
</svg>
