<svg width="76" height="76" viewBox="0 0 76 76" fill="none" xmlns="http://www.w3.org/2000/svg">
<path d="M74.4486 29.1471C74.2537 28.3419 73.443 27.8472 72.6378 28.0421C71.8326 28.237 71.3379 29.0477 71.5328 29.8529L74.4486 29.1471ZM60.0411 11.4575C60.6781 11.9871 61.6238 11.9 62.1535 11.263C62.6831 10.6259 62.596 9.68018 61.9589 9.15058L60.0411 11.4575ZM72.5 38C72.5 57.0538 57.0538 72.5 38 72.5V75.5C58.7107 75.5 75.5 58.7107 75.5 38H72.5ZM38 72.5C18.9462 72.5 3.5 57.0538 3.5 38H0.5C0.5 58.7107 17.2893 75.5 38 75.5V72.5ZM3.5 38C3.5 18.9462 18.9462 3.5 38 3.5V0.5C17.2893 0.5 0.5 17.2893 0.5 38H3.5ZM71.5328 29.8529C72.1648 32.4636 72.5 35.1916 72.5 38H75.5C75.5 34.9521 75.1361 31.9871 74.4486 29.1471L71.5328 29.8529ZM38 3.5C46.3824 3.5 54.063 6.48753 60.0411 11.4575L61.9589 9.15058C55.4621 3.74937 47.1086 0.5 38 0.5V3.5Z" fill="#01253D"/>
<path d="M19 31.5L37 49L73 14" stroke="#06D48A" stroke-width="3" stroke-linecap="round" stroke-linejoin="round"/>
</svg>
