<svg width="390" height="380" viewBox="0 0 390 380" fill="none" xmlns="http://www.w3.org/2000/svg">
<path d="M227.342 121.427L188.628 143.914V133.262L227.342 111.012V121.427Z" fill="#003243"/>
<path d="M227.342 135.392L188.628 157.879V147.227L227.342 124.741V135.392Z" fill="#003243"/>
<path d="M227.342 149.121L188.628 171.608V160.956L227.342 138.706V149.121Z" fill="#FFBC92"/>
<path d="M227.342 163.086L188.628 185.573V174.921L227.342 152.435V163.086Z" fill="#003243"/>
<path d="M227.342 177.052L188.628 199.302V188.65L227.342 166.4V177.052Z" fill="#003243"/>
<path d="M227.342 190.78L188.628 213.267V202.615L227.342 180.129V190.78Z" fill="#003243"/>
<path d="M227.342 204.746L188.628 226.996V216.344L227.342 194.094V204.746Z" fill="#003243"/>
<path d="M227.342 218.474L188.628 240.961V230.309L227.342 207.823V218.474Z" fill="#003243"/>
<path d="M272.27 53.9679L233.555 76.4544V65.8029L272.27 43.3164V53.9679Z" fill="#FFBC92"/>
<path d="M272.27 67.6962L233.555 90.1827V79.5312L272.27 57.0447V67.6962Z" fill="#003243"/>
<path d="M272.27 81.6615L233.555 104.148V93.4965L272.27 71.01V81.6615Z" fill="#FFBC92"/>
<path d="M272.27 95.3902L233.555 117.877V107.225L272.27 84.9754V95.3902Z" fill="#FFBC92"/>
<path d="M272.27 109.355L233.555 131.842V121.19L272.27 98.7038V109.355Z" fill="#003243"/>
<path d="M272.27 123.084L233.555 145.57V134.919L272.27 112.669V123.084Z" fill="#003243"/>
<path d="M272.27 137.049L233.555 159.536V148.884L272.27 126.398V137.049Z" fill="#003243"/>
<path d="M272.27 151.015L233.555 173.265V162.613L272.27 140.364V151.015Z" fill="#003243"/>
<path d="M272.27 164.743L233.555 187.23V176.578L272.27 154.092V164.743Z" fill="#003243"/>
<path d="M272.27 178.709L233.555 200.958V190.307L272.27 168.057V178.709Z" fill="#003243"/>
<path d="M272.27 192.437L233.555 214.924V204.272L272.27 181.786V192.437Z" fill="#FFBC92"/>
<path d="M182.654 270.311V255.873L278.244 201.195V215.87L182.654 270.311Z" fill="#01213B"/>
<path d="M328.668 261.08L207.268 330.433V192.674L328.668 123.321V261.08Z" fill="url(#paint0_linear)"/>
<path d="M231.882 200.721L224.713 204.745V196.461L231.882 192.2V200.721Z" fill="#9E9E9E"/>
<path d="M242.158 194.804L234.989 199.065V190.544L242.158 186.283V194.804Z" fill="url(#paint1_linear)"/>
<path d="M231.882 211.846L224.713 216.107V207.586L231.882 203.325V211.846Z" fill="#003243"/>
<path d="M231.882 211.846L224.713 216.107V207.586L231.882 203.325V211.846Z" fill="url(#paint2_linear)"/>
<path d="M242.158 205.929L234.989 210.19V201.668L242.158 197.644V205.929Z" fill="#9E9E9E"/>
<path d="M231.882 222.971L224.713 227.232V218.711L231.882 214.687V222.971Z" fill="#9E9E9E"/>
<path d="M242.158 217.054L234.989 221.315V213.03L242.158 208.769V217.054Z" fill="url(#paint3_linear)"/>
<path d="M231.882 234.096L224.713 238.357V230.073L231.882 225.812V234.096Z" fill="#9E9E9E"/>
<path d="M242.158 228.179L234.989 232.439V224.155L242.158 219.894V228.179Z" fill="#9E9E9E"/>
<path d="M231.882 245.221L224.713 249.482V241.197L231.882 236.937V245.221Z" fill="#9E9E9E"/>
<path d="M242.158 239.54L234.989 243.564V235.28L242.158 231.019V239.54Z" fill="#9E9E9E"/>
<path d="M231.882 256.583L224.713 260.607V252.323L231.882 248.062V256.583Z" fill="#9E9E9E"/>
<path d="M242.158 250.665L234.989 254.926V246.405L242.158 242.144V250.665Z" fill="#003243"/>
<path d="M231.882 267.708L224.713 271.968V263.447L231.882 259.186V267.708Z" fill="#003243"/>
<path d="M231.882 267.708L224.713 271.968V263.447L231.882 259.186V267.708Z" fill="url(#paint4_linear)"/>
<path d="M242.158 261.79L234.989 266.051V257.766L242.158 253.506V261.79Z" fill="#003243"/>
<path d="M231.882 278.833L224.713 283.093V274.572L231.882 270.548V278.833Z" fill="#9E9E9E"/>
<path d="M242.158 272.915L234.989 277.176V268.892L242.158 264.631V272.915Z" fill="#003243"/>
<path d="M231.882 289.957L224.713 294.218V285.933L231.882 281.673V289.957Z" fill="#003243"/>
<path d="M231.882 289.957L224.713 294.218V285.933L231.882 281.673V289.957Z" fill="url(#paint5_linear)"/>
<path d="M242.158 284.04L234.989 288.301V280.016L242.158 275.756V284.04Z" fill="#9E9E9E"/>
<path d="M266.534 180.839L259.126 185.1V176.815L266.534 172.555V180.839Z" fill="#003243"/>
<path d="M266.534 180.839L259.126 185.1V176.815L266.534 172.555V180.839Z" fill="url(#paint6_linear)"/>
<path d="M276.81 174.922L269.402 179.182V170.898L276.81 166.637V174.922Z" fill="#9E9E9E"/>
<path d="M266.534 191.963L259.126 196.224V187.94L266.534 183.679V191.963Z" fill="#9E9E9E"/>
<path d="M276.81 186.283L269.402 190.307V182.022L276.81 177.762V186.283Z" fill="url(#paint7_linear)"/>
<path d="M266.534 203.325L259.126 207.586V199.065L266.534 194.804V203.325Z" fill="#9E9E9E"/>
<path d="M276.81 197.408L269.402 201.669V193.148L276.81 188.887V197.408Z" fill="url(#paint8_linear)"/>
<path d="M266.534 214.45L259.126 218.711V210.19L266.534 205.929V214.45Z" fill="#9E9E9E"/>
<path d="M276.81 208.533L269.402 212.793V204.509L276.81 200.248V208.533Z" fill="#9E9E9E"/>
<path d="M266.534 225.575L259.126 229.836V221.315L266.534 217.291V225.575Z" fill="#9E9E9E"/>
<path d="M276.81 219.658L269.402 223.918V215.634L276.81 211.373V219.658Z" fill="url(#paint9_linear)"/>
<path d="M266.534 236.7L259.126 240.961V232.676L266.534 228.416V236.7Z" fill="#003243"/>
<path d="M266.534 236.7L259.126 240.961V232.676L266.534 228.416V236.7Z" fill="url(#paint10_linear)"/>
<path d="M276.81 230.782L269.402 235.043V226.758L276.81 222.498V230.782Z" fill="#9E9E9E"/>
<path d="M266.534 248.062L259.126 252.085V243.801L266.534 239.54V248.062Z" fill="#003243"/>
<path d="M276.81 242.144L269.402 246.168V237.884L276.81 233.623V242.144Z" fill="#9E9E9E"/>
<path d="M266.534 259.186L259.126 263.447V254.926L266.534 250.665V259.186Z" fill="#003243"/>
<path d="M276.81 253.269L269.402 257.53V249.009L276.81 244.748V253.269Z" fill="url(#paint11_linear)"/>
<path d="M266.534 270.311L259.126 274.572V266.051L266.534 261.79V270.311Z" fill="#003243"/>
<path d="M266.534 270.311L259.126 274.572V266.051L266.534 261.79V270.311Z" fill="url(#paint12_linear)"/>
<path d="M276.81 264.394L269.402 268.654V260.133L276.81 256.109V264.394Z" fill="#003243"/>
<path d="M300.947 161.193L293.539 165.453V156.932L300.947 152.672V161.193Z" fill="#9E9E9E"/>
<path d="M311.223 155.275L303.814 159.536V151.251L311.223 146.991V155.275Z" fill="#9E9E9E"/>
<path d="M300.947 172.318L293.539 176.579V168.057L300.947 164.033V172.318Z" fill="#9E9E9E"/>
<path d="M311.223 166.4L303.814 170.661V162.376L311.223 158.116V166.4Z" fill="#9E9E9E"/>
<path d="M300.947 183.443L293.539 187.703V179.419L300.947 175.158V183.443Z" fill="#9E9E9E"/>
<path d="M311.223 177.525L303.814 181.786V173.501L311.223 169.241V177.525Z" fill="url(#paint13_linear)"/>
<path d="M300.947 194.804L293.539 198.828V190.544L300.947 186.283V194.804Z" fill="#003243"/>
<path d="M300.947 194.804L293.539 198.828V190.544L300.947 186.283V194.804Z" fill="url(#paint14_linear)"/>
<path d="M311.223 188.886L303.814 193.147V184.626L311.223 180.365V188.886Z" fill="#9E9E9E"/>
<path d="M300.947 205.929L293.539 210.19V201.669L300.947 197.408V205.929Z" fill="#9E9E9E"/>
<path d="M311.223 200.011L303.814 204.272V195.751L311.223 191.49V200.011Z" fill="url(#paint15_linear)"/>
<path d="M300.947 217.054L293.539 221.314V212.793L300.947 208.533V217.054Z" fill="#9E9E9E"/>
<path d="M311.223 211.136L303.814 215.397V206.876L311.223 202.852V211.136Z" fill="#9E9E9E"/>
<path d="M300.947 228.179L293.539 232.439V224.155L300.947 219.894V228.179Z" fill="#9E9E9E"/>
<path d="M311.223 222.261L303.814 226.522V218.238L311.223 213.977V222.261Z" fill="#9E9E9E"/>
<path d="M300.947 239.303L293.539 243.564V235.28L300.947 231.019V239.303Z" fill="#003243"/>
<path d="M300.947 239.303L293.539 243.564V235.28L300.947 231.019V239.303Z" fill="url(#paint16_linear)"/>
<path d="M311.223 233.623L303.814 237.647V229.362L311.223 225.102V233.623Z" fill="#9E9E9E"/>
<path d="M300.947 250.665L293.539 254.689V246.405L300.947 242.144V250.665Z" fill="#9E9E9E"/>
<path d="M311.223 244.748L303.814 249.009V240.488L311.223 236.227V244.748Z" fill="#9E9E9E"/>
<path d="M135.097 289.011L207.268 330.433V192.674L135.097 151.251V289.011Z" fill="url(#paint17_linear)"/>
<path d="M256.258 81.898L135.097 151.251L207.268 192.674L328.668 123.321L256.258 81.898Z" fill="#7E7E7E"/>
<path d="M312.896 123.321L254.585 156.695V71.0101L312.896 37.8721V123.321Z" fill="url(#paint18_linear)"/>
<path d="M257.931 78.1108V83.7916L309.55 54.4409V48.5234L257.931 78.1108Z" fill="#BDBDBD"/>
<path d="M257.931 85.9223V91.6031L309.55 62.0157V56.3348L257.931 85.9223Z" fill="#BDBDBD"/>
<path d="M257.931 93.4968V99.4143L309.55 69.8268V63.9093L257.931 93.4968Z" fill="#BDBDBD"/>
<path d="M257.931 101.308V106.989L309.55 77.4013V71.7205L257.931 101.308Z" fill="#BDBDBD"/>
<path d="M257.931 108.882V114.799L309.55 85.2119V79.2944L257.931 108.882Z" fill="#BDBDBD"/>
<path d="M257.931 116.693V122.374L309.55 93.0233V87.1059L257.931 116.693Z" fill="#BDBDBD"/>
<path d="M257.931 124.268V130.185L309.55 100.598V94.9169L257.931 124.268Z" fill="url(#paint19_linear)"/>
<path d="M257.931 132.079V137.996L309.55 108.409V102.491L257.931 132.079Z" fill="#BDBDBD"/>
<path d="M257.931 139.89V145.571L309.55 115.983V110.302L257.931 139.89Z" fill="#BDBDBD"/>
<path d="M196.275 123.321L254.585 156.695V71.0101L196.275 37.8721V123.321Z" fill="url(#paint20_linear)"/>
<path d="M251.24 78.1108V83.7916L199.621 54.4409V48.5234L251.24 78.1108Z" fill="#9E9E9E" fill-opacity="0.5"/>
<path d="M251.24 85.9223V91.6031L199.621 62.0157V56.3348L251.24 85.9223Z" fill="#9E9E9E" fill-opacity="0.5"/>
<path d="M251.24 93.4968V99.4143L199.621 69.8268V63.9093L251.24 93.4968Z" fill="#9E9E9E" fill-opacity="0.5"/>
<path d="M251.24 101.308V106.989L199.621 77.4013V71.7205L251.24 101.308Z" fill="#9E9E9E" fill-opacity="0.5"/>
<path d="M251.24 108.882V114.799L199.621 85.2119V79.2944L251.24 108.882Z" fill="#9E9E9E" fill-opacity="0.5"/>
<path d="M251.24 116.693V122.374L199.621 93.0233V87.1059L251.24 116.693Z" fill="#9E9E9E" fill-opacity="0.5"/>
<path d="M251.24 124.268V130.185L199.621 100.598V94.9169L251.24 124.268Z" fill="url(#paint21_linear)"/>
<path d="M251.24 132.079V137.996L199.621 108.409V102.491L251.24 132.079Z" fill="#9E9E9E" fill-opacity="0.5"/>
<path d="M251.24 139.89V145.571L199.621 115.983V110.302L251.24 139.89Z" fill="#9E9E9E" fill-opacity="0.5"/>
<path d="M254.585 4.49747L196.275 37.8722L254.585 71.0102L312.895 37.8722L254.585 4.49747Z" fill="#7E7E7E"/>
<path d="M293.777 37.8722L254.585 60.3587V44.9732L293.777 22.4867V37.8722Z" fill="url(#paint22_linear)"/>
<path d="M293.777 37.8722L254.585 60.3587V44.9732L293.777 22.4867V37.8722Z" fill="url(#paint23_linear)"/>
<path d="M215.155 37.8722L254.586 60.3587V44.9732L215.155 22.4867V37.8722Z" fill="url(#paint24_linear)"/>
<path d="M254.586 5.34058e-05L215.155 22.4865L254.586 44.973L293.778 22.4865L254.586 5.34058e-05Z" fill="url(#paint25_linear)"/>
<path d="M254.586 5.34058e-05L215.155 22.4865L254.586 44.973L293.778 22.4865L254.586 5.34058e-05Z" fill="url(#paint26_linear)"/>
<path d="M203.683 152.435L179.786 166.163V156.932L203.683 143.203V152.435Z" fill="url(#paint27_linear)"/>
<path d="M155.888 152.435L179.786 166.163V156.932L155.888 143.203V152.435Z" fill="url(#paint28_linear)"/>
<path d="M179.786 129.475L155.888 143.203L179.786 156.932L203.684 143.203L179.786 129.475Z" fill="url(#paint29_linear)"/>
<path d="M179.786 129.475L155.888 143.203L179.786 156.932L203.684 143.203L179.786 129.475Z" fill="url(#paint30_linear)"/>
<path d="M231.166 168.294L207.268 181.785V172.554L231.166 159.062V168.294Z" fill="url(#paint31_linear)"/>
<path d="M183.37 168.294L207.268 181.785V172.554L183.37 159.062V168.294Z" fill="url(#paint32_linear)"/>
<path d="M207.268 145.334L183.37 159.062L207.268 172.554L231.166 159.062L207.268 145.334Z" fill="url(#paint33_linear)"/>
<path d="M207.268 311.971L328.668 242.618V261.08L207.268 330.433V311.971Z" fill="#9E9E9E"/>
<path d="M207.268 311.971L135.097 270.548V289.011L207.268 330.433V311.971Z" fill="#7E7E7E"/>
<path d="M171.267 343.572L124.901 370.22V251.58L171.267 224.932V343.572Z" fill="url(#paint34_linear)"/>
<path d="M133.435 260.935L129.595 263.203V256.258L133.435 253.99V260.935Z" fill="#9E9E9E"/>
<path d="M141.826 256.257L137.844 258.384V251.438L141.826 249.312V256.257Z" fill="#9E9E9E"/>
<path d="M150.075 251.438L146.235 253.706V246.761L150.075 244.493V251.438Z" fill="#9E9E9E"/>
<path d="M158.324 246.761L154.484 248.887V241.941L158.324 239.815V246.761Z" fill="#9E9E9E"/>
<path d="M133.435 269.015L129.595 271.282V264.337L133.435 262.211V269.015Z" fill="#9E9E9E"/>
<path d="M141.826 264.337L137.844 266.605V259.66L141.826 257.392V264.337Z" fill="#9E9E9E"/>
<path d="M150.075 259.518L146.235 261.786V254.84L150.075 252.572V259.518Z" fill="#9E9E9E"/>
<path d="M158.324 254.84L154.484 256.966V250.021L158.324 247.895V254.84Z" fill="#9E9E9E"/>
<path d="M133.435 277.236L129.595 279.362V272.416L133.435 270.29V277.236Z" fill="#9E9E9E"/>
<path d="M141.826 272.416L137.844 274.684V267.739L141.826 265.471V272.416Z" fill="#9E9E9E"/>
<path d="M150.075 267.597L146.235 269.865V262.919L150.075 260.793V267.597Z" fill="#9E9E9E"/>
<path d="M158.324 262.92L154.484 265.187V258.242L158.324 255.974V262.92Z" fill="#9E9E9E"/>
<path d="M133.435 285.315L129.595 287.441V280.496L133.435 278.37V285.315Z" fill="#9E9E9E"/>
<path d="M141.826 280.496L137.844 282.763V275.818L141.826 273.55V280.496Z" fill="#9E9E9E"/>
<path d="M150.075 275.818L146.235 277.944V270.999L150.075 268.873V275.818Z" fill="#9E9E9E"/>
<path d="M158.324 270.999L154.484 273.267V266.321L158.324 264.053V270.999Z" fill="#9E9E9E"/>
<path d="M133.435 293.394L129.595 295.521V288.575L133.435 286.449V293.394Z" fill="url(#paint35_linear)"/>
<path d="M141.826 288.575L137.844 290.843V283.898L141.826 281.63V288.575Z" fill="#9E9E9E"/>
<path d="M150.075 283.898L146.235 286.024V279.078L150.075 276.952V283.898Z" fill="#9E9E9E"/>
<path d="M158.324 279.078L154.484 281.346V274.401L158.324 272.133V279.078Z" fill="#9E9E9E"/>
<path d="M133.435 301.474L129.595 303.6V296.655L133.435 294.528V301.474Z" fill="#9E9E9E"/>
<path d="M141.826 296.654L137.844 298.922V291.977L141.826 289.709V296.654Z" fill="#9E9E9E"/>
<path d="M150.075 291.977L146.235 294.103V287.158L150.075 285.032V291.977Z" fill="url(#paint36_linear)"/>
<path d="M158.324 287.158L154.484 289.426V282.48L158.324 280.212V287.158Z" fill="#9E9E9E"/>
<path d="M133.435 309.553L129.595 311.821V304.876L133.435 302.608V309.553Z" fill="#9E9E9E"/>
<path d="M141.826 304.734L137.844 307.002V300.057L141.826 297.789V304.734Z" fill="#9E9E9E"/>
<path d="M150.075 300.056L146.235 302.183V295.237L150.075 293.111V300.056Z" fill="#9E9E9E"/>
<path d="M158.324 295.237L154.484 297.505V290.56L158.324 288.292V295.237Z" fill="#9E9E9E"/>
<path d="M133.435 317.633L129.595 319.901V312.955L133.435 310.687V317.633Z" fill="#9E9E9E"/>
<path d="M141.826 312.813L137.844 315.081V308.136L141.826 305.868V312.813Z" fill="#9E9E9E"/>
<path d="M150.075 308.136L146.235 310.404V303.458L150.075 301.19V308.136Z" fill="#9E9E9E"/>
<path d="M158.324 303.317L154.484 305.584V298.639L158.324 296.371V303.317Z" fill="#9E9E9E"/>
<path d="M133.435 325.712L129.595 327.98V321.034L133.435 318.767V325.712Z" fill="#9E9E9E"/>
<path d="M141.826 320.893L137.844 323.161V316.215L141.826 314.089V320.893Z" fill="#9E9E9E"/>
<path d="M150.075 316.215L146.235 318.483V311.538L150.075 309.27V316.215Z" fill="#9E9E9E"/>
<path d="M158.324 311.396L154.484 313.664V306.718L158.324 304.451V311.396Z" fill="#9E9E9E"/>
<path d="M133.435 333.791L129.595 336.059V329.114L133.435 326.846V333.791Z" fill="#9E9E9E"/>
<path d="M141.826 329.114L137.844 331.24V324.295L141.826 322.168V329.114Z" fill="#9E9E9E"/>
<path d="M150.075 324.295L146.235 326.562V319.617L150.075 317.349V324.295Z" fill="url(#paint37_linear)"/>
<path d="M158.324 319.475L154.484 321.743V314.798L158.324 312.53V319.475Z" fill="#9E9E9E"/>
<path d="M133.435 341.871L129.595 344.139V337.193L133.435 334.925V341.871Z" fill="#9E9E9E"/>
<path d="M141.826 337.193L137.844 339.319V332.374L141.826 330.248V337.193Z" fill="#9E9E9E"/>
<path d="M150.075 332.374L146.235 334.642V327.696L150.075 325.429V332.374Z" fill="#9E9E9E"/>
<path d="M158.324 327.555L154.484 329.823V322.877L158.324 320.609V327.555Z" fill="#9E9E9E"/>
<path d="M133.435 349.95L129.595 352.218V345.273L133.435 343.005V349.95Z" fill="#9E9E9E"/>
<path d="M141.826 345.273L137.844 347.399V340.454L141.826 338.327V345.273Z" fill="url(#paint38_linear)"/>
<path d="M150.075 340.453L146.235 342.721V335.776L150.075 333.508V340.453Z" fill="#9E9E9E"/>
<path d="M158.324 335.634L154.484 337.902V330.956L158.324 328.83V335.634Z" fill="#9E9E9E"/>
<path d="M133.435 358.03L129.595 360.298V353.352L133.435 351.084V358.03Z" fill="#9E9E9E"/>
<path d="M141.826 353.352L137.844 355.478V348.674L141.826 346.407V353.352Z" fill="#9E9E9E"/>
<path d="M150.075 348.533L146.235 350.801V343.855L150.075 341.587V348.533Z" fill="#9E9E9E"/>
<path d="M158.324 343.855L154.484 345.981V339.036L158.324 336.91V343.855Z" fill="#9E9E9E"/>
<path d="M171.267 353.352L124.901 380V370.22L171.267 343.572V353.352Z" fill="#9E9E9E"/>
<path d="M78.5364 343.572L124.902 370.22V251.58L78.5364 224.932V343.572Z" fill="url(#paint39_linear)"/>
<path d="M116.368 260.935L120.208 263.203V256.258L116.368 253.99V260.935Z" fill="url(#paint40_linear)"/>
<path d="M108.119 256.257L111.959 258.384V251.438L108.119 249.312V256.257Z" fill="#9E9E9E"/>
<path d="M99.8701 251.438L103.71 253.706V246.761L99.8701 244.493V251.438Z" fill="#9E9E9E"/>
<path d="M91.4788 246.761L95.461 248.887V241.941L91.4788 239.815V246.761Z" fill="#9E9E9E"/>
<path d="M83.2297 241.941L87.0698 244.209V237.264L83.2297 234.996V241.941Z" fill="#9E9E9E"/>
<path d="M116.368 269.015L120.208 271.282V264.337L116.368 262.211V269.015Z" fill="#9E9E9E"/>
<path d="M108.119 264.337L111.959 266.605V259.66L108.119 257.392V264.337Z" fill="#9E9E9E"/>
<path d="M99.8701 259.518L103.71 261.786V254.84L99.8701 252.572V259.518Z" fill="#9E9E9E"/>
<path d="M91.4788 254.84L95.461 256.966V250.021L91.4788 247.895V254.84Z" fill="#9E9E9E"/>
<path d="M83.2297 250.021L87.0698 252.289V245.343L83.2297 243.075V250.021Z" fill="#9E9E9E"/>
<path d="M116.368 277.236L120.208 279.362V272.416L116.368 270.29V277.236Z" fill="#9E9E9E"/>
<path d="M108.119 272.416L111.959 274.684V267.739L108.119 265.471V272.416Z" fill="#9E9E9E"/>
<path d="M99.8701 267.597L103.71 269.865V262.919L99.8701 260.793V267.597Z" fill="url(#paint41_linear)"/>
<path d="M91.4788 262.92L95.461 265.187V258.242L91.4788 255.974V262.92Z" fill="#9E9E9E"/>
<path d="M83.2297 258.1L87.0698 260.368V253.423L83.2297 251.155V258.1Z" fill="url(#paint42_linear)"/>
<path d="M116.368 285.315L120.208 287.441V280.496L116.368 278.37V285.315Z" fill="#9E9E9E"/>
<path d="M108.119 280.496L111.959 282.763V275.818L108.119 273.55V280.496Z" fill="#9E9E9E"/>
<path d="M99.8701 275.818L103.71 277.944V270.999L99.8701 268.873V275.818Z" fill="#9E9E9E"/>
<path d="M91.4788 270.999L95.461 273.267V266.321L91.4788 264.053V270.999Z" fill="#9E9E9E"/>
<path d="M83.2297 266.18L87.0698 268.447V261.502L83.2297 259.234V266.18Z" fill="#9E9E9E"/>
<path d="M116.368 293.394L120.208 295.521V288.575L116.368 286.449V293.394Z" fill="#9E9E9E"/>
<path d="M108.119 288.575L111.959 290.843V283.898L108.119 281.63V288.575Z" fill="#9E9E9E"/>
<path d="M99.8701 283.898L103.71 286.024V279.078L99.8701 276.952V283.898Z" fill="#9E9E9E"/>
<path d="M91.4788 279.078L95.461 281.346V274.401L91.4788 272.133V279.078Z" fill="#9E9E9E"/>
<path d="M83.2297 274.259L87.0698 276.527V269.581L83.2297 267.314V274.259Z" fill="#9E9E9E"/>
<path d="M116.368 301.474L120.208 303.6V296.655L116.368 294.528V301.474Z" fill="#9E9E9E"/>
<path d="M108.119 296.654L111.959 298.922V291.977L108.119 289.709V296.654Z" fill="#9E9E9E"/>
<path d="M99.8701 291.977L103.71 294.103V287.158L99.8701 285.032V291.977Z" fill="#9E9E9E"/>
<path d="M91.4788 287.158L95.461 289.426V282.48L91.4788 280.212V287.158Z" fill="#9E9E9E"/>
<path d="M83.2297 282.338L87.0698 284.606V277.661L83.2297 275.393V282.338Z" fill="#9E9E9E"/>
<path d="M116.368 309.553L120.208 311.821V304.876L116.368 302.608V309.553Z" fill="#9E9E9E"/>
<path d="M108.119 304.734L111.959 307.002V300.057L108.119 297.789V304.734Z" fill="#9E9E9E"/>
<path d="M99.8701 300.056L103.71 302.183V295.237L99.8701 293.111V300.056Z" fill="#9E9E9E"/>
<path d="M91.4788 295.237L95.461 297.505V290.56L91.4788 288.292V295.237Z" fill="#9E9E9E"/>
<path d="M83.2297 290.56L87.0698 292.686V285.74L83.2297 283.614V290.56Z" fill="#9E9E9E"/>
<path d="M116.368 317.633L120.208 319.901V312.955L116.368 310.687V317.633Z" fill="#9E9E9E"/>
<path d="M108.119 312.813L111.959 315.081V308.136L108.119 305.868V312.813Z" fill="#9E9E9E"/>
<path d="M99.8701 308.136L103.71 310.404V303.458L99.8701 301.19V308.136Z" fill="#9E9E9E"/>
<path d="M91.4788 303.317L95.461 305.584V298.639L91.4788 296.371V303.317Z" fill="#9E9E9E"/>
<path d="M83.2297 298.639L87.0698 300.765V293.82L83.2297 291.693V298.639Z" fill="#9E9E9E"/>
<path d="M116.368 325.712L120.208 327.98V321.034L116.368 318.767V325.712Z" fill="#9E9E9E"/>
<path d="M108.119 320.893L111.959 323.161V316.215L108.119 314.089V320.893Z" fill="#9E9E9E"/>
<path d="M99.8701 316.215L103.71 318.483V311.538L99.8701 309.27V316.215Z" fill="#9E9E9E"/>
<path d="M91.4788 311.396L95.461 313.664V306.718L91.4788 304.451V311.396Z" fill="#9E9E9E"/>
<path d="M83.2297 306.718L87.0698 308.845V301.899L83.2297 299.773V306.718Z" fill="#9E9E9E"/>
<path d="M116.368 333.791L120.208 336.059V329.114L116.368 326.846V333.791Z" fill="#9E9E9E"/>
<path d="M108.119 329.114L111.959 331.24V324.295L108.119 322.168V329.114Z" fill="#9E9E9E"/>
<path d="M99.8701 324.295L103.71 326.562V319.617L99.8701 317.349V324.295Z" fill="#9E9E9E"/>
<path d="M91.4788 319.475L95.461 321.743V314.798L91.4788 312.53V319.475Z" fill="url(#paint43_linear)"/>
<path d="M83.2297 314.798L87.0698 316.924V309.979L83.2297 307.852V314.798Z" fill="#9E9E9E"/>
<path d="M116.368 341.871L120.208 344.139V337.193L116.368 334.925V341.871Z" fill="#9E9E9E"/>
<path d="M108.119 337.193L111.959 339.319V332.374L108.119 330.248V337.193Z" fill="#9E9E9E"/>
<path d="M99.8701 332.374L103.71 334.642V327.696L99.8701 325.429V332.374Z" fill="#9E9E9E"/>
<path d="M91.4788 327.555L95.461 329.823V322.877L91.4788 320.609V327.555Z" fill="#9E9E9E"/>
<path d="M83.2297 322.877L87.0698 325.003V318.2L83.2297 315.932V322.877Z" fill="#9E9E9E"/>
<path d="M116.368 349.95L120.208 352.218V345.273L116.368 343.005V349.95Z" fill="#9E9E9E"/>
<path d="M108.119 345.273L111.959 347.399V340.454L108.119 338.327V345.273Z" fill="#9E9E9E"/>
<path d="M99.8701 340.453L103.71 342.721V335.776L99.8701 333.508V340.453Z" fill="#9E9E9E"/>
<path d="M91.4788 335.634L95.461 337.902V330.956L91.4788 328.83V335.634Z" fill="#9E9E9E"/>
<path d="M83.2297 330.957L87.0698 333.224V326.279L83.2297 324.011V330.957Z" fill="#9E9E9E"/>
<path d="M116.368 358.03L120.208 360.298V353.352L116.368 351.084V358.03Z" fill="#9E9E9E"/>
<path d="M108.119 353.352L111.959 355.478V348.674L108.119 346.407V353.352Z" fill="url(#paint44_linear)"/>
<path d="M99.8701 348.533L103.71 350.801V343.855L99.8701 341.587V348.533Z" fill="#9E9E9E"/>
<path d="M91.4788 343.855L95.461 345.981V339.036L91.4788 336.91V343.855Z" fill="#9E9E9E"/>
<path d="M83.2297 339.036L87.0698 341.304V334.359L83.2297 332.091V339.036Z" fill="#9E9E9E"/>
<path d="M78.5364 353.352L124.902 380V370.22L78.5364 343.572V353.352Z" fill="#7E7E7E"/>
<path d="M171.267 224.932L124.902 198.284L78.5364 224.932L124.902 251.58L171.267 224.932Z" fill="#5F5F5F"/>
<path d="M133.435 260.935L129.595 263.203V256.258L133.435 253.99V260.935Z" fill="#9E9E9E"/>
<path d="M124.901 52.4298V34.9953" stroke="#BDBDBD" stroke-width="0.449813" stroke-miterlimit="10"/>
<path d="M166.431 216.286L124.901 240.099V133.933L166.431 109.978V216.286Z" fill="url(#paint45_linear)"/>
<path d="M132.582 142.295L129.168 144.28V138.043L132.582 136.059V142.295Z" fill="#9E9E9E"/>
<path d="M139.977 138.043L136.564 140.027V133.791L139.977 131.806V138.043Z" fill="#9E9E9E"/>
<path d="M147.373 133.791L143.96 135.775V129.538L147.373 127.554V133.791Z" fill="#9E9E9E"/>
<path d="M154.769 129.397L151.355 131.523V125.286L154.769 123.302V129.397Z" fill="#9E9E9E"/>
<path d="M162.164 125.144L158.751 127.129V121.034L162.164 119.049V125.144Z" fill="url(#paint46_linear)"/>
<path d="M132.582 149.524L129.168 151.509V145.272L132.582 143.288V149.524Z" fill="#9E9E9E"/>
<path d="M139.977 145.272L136.564 147.257V141.02L139.977 139.035V145.272Z" fill="#9E9E9E"/>
<path d="M147.373 141.02L143.96 143.004V136.767L147.373 134.783V141.02Z" fill="#9E9E9E"/>
<path d="M154.769 136.767L151.355 138.752V132.515L154.769 130.531V136.767Z" fill="#9E9E9E"/>
<path d="M162.164 132.374L158.751 134.5V128.263L162.164 126.279V132.374Z" fill="url(#paint47_linear)"/>
<path d="M132.582 156.753L129.168 158.738V152.501L132.582 150.517V156.753Z" fill="#9E9E9E"/>
<path d="M139.977 152.501L136.564 154.485V148.249L139.977 146.264V152.501Z" fill="#9E9E9E"/>
<path d="M147.373 148.249L143.96 150.233V143.996L147.373 142.012V148.249Z" fill="#9E9E9E"/>
<path d="M154.769 143.997L151.355 145.981V139.744L154.769 137.76V143.997Z" fill="#9E9E9E"/>
<path d="M162.164 139.744L158.751 141.729V135.492L162.164 133.507V139.744Z" fill="#9E9E9E"/>
<path d="M132.582 163.982L129.168 165.967V159.73L132.582 157.745V163.982Z" fill="#9E9E9E"/>
<path d="M139.977 159.73L136.564 161.714V155.478L139.977 153.493V159.73Z" fill="#9E9E9E"/>
<path d="M147.373 155.478L143.96 157.462V151.225L147.373 149.241V155.478Z" fill="#9E9E9E"/>
<path d="M154.769 151.225L151.355 153.21V146.973L154.769 144.988V151.225Z" fill="#9E9E9E"/>
<path d="M162.164 146.973L158.751 148.957V142.721L162.164 140.736V146.973Z" fill="#9E9E9E"/>
<path d="M132.582 171.211L129.168 173.196V166.959L132.582 164.975V171.211Z" fill="url(#paint48_linear)"/>
<path d="M139.977 166.959L136.564 168.943V162.706L139.977 160.722V166.959Z" fill="#9E9E9E"/>
<path d="M147.373 162.706L143.96 164.691V158.454L147.373 156.47V162.706Z" fill="#9E9E9E"/>
<path d="M154.769 158.454L151.355 160.439V154.202L154.769 152.217V158.454Z" fill="#9E9E9E"/>
<path d="M162.164 154.202L158.751 156.186V149.95L162.164 147.965V154.202Z" fill="#9E9E9E"/>
<path d="M132.582 178.44L129.168 180.425V174.33L132.582 172.203V178.44Z" fill="#9E9E9E"/>
<path d="M139.977 174.188L136.564 176.172V169.935L139.977 167.951V174.188Z" fill="#9E9E9E"/>
<path d="M147.373 169.935L143.96 171.92V165.683L147.373 163.699V169.935Z" fill="url(#paint49_linear)"/>
<path d="M154.769 165.683L151.355 167.668V161.431L154.769 159.446V165.683Z" fill="#9E9E9E"/>
<path d="M162.164 161.431L158.751 163.415V157.179L162.164 155.194V161.431Z" fill="#9E9E9E"/>
<path d="M132.582 185.669L129.168 187.654V181.559L132.582 179.432V185.669Z" fill="#9E9E9E"/>
<path d="M139.977 181.417L136.564 183.401V177.306L139.977 175.18V181.417Z" fill="#9E9E9E"/>
<path d="M147.373 177.164L143.96 179.149V172.912L147.373 170.928V177.164Z" fill="#9E9E9E"/>
<path d="M154.769 172.912L151.355 174.897V168.66L154.769 166.675V172.912Z" fill="#9E9E9E"/>
<path d="M162.164 168.66L158.751 170.644V164.408L162.164 162.423V168.66Z" fill="url(#paint50_linear)"/>
<path d="M132.582 192.898L129.168 195.024V188.787L132.582 186.803V192.898Z" fill="#9E9E9E"/>
<path d="M139.977 188.646L136.564 190.63V184.535L139.977 182.551V188.646Z" fill="#9E9E9E"/>
<path d="M147.373 184.393L143.96 186.378V180.283L147.373 178.298V184.393Z" fill="#9E9E9E"/>
<path d="M154.769 180.141L151.355 182.126V175.889L154.769 173.904V180.141Z" fill="#9E9E9E"/>
<path d="M162.164 175.889L158.751 177.873V171.637L162.164 169.652V175.889Z" fill="#9E9E9E"/>
<path d="M132.582 200.269L129.168 202.253V196.017L132.582 194.032V200.269Z" fill="#9E9E9E"/>
<path d="M139.977 196.016L136.564 198.001V191.764L139.977 189.78V196.016Z" fill="#9E9E9E"/>
<path d="M147.373 191.764L143.96 193.607V187.512L147.373 185.527V191.764Z" fill="#9E9E9E"/>
<path d="M154.769 187.37L151.355 189.354V183.259L154.769 181.275V187.37Z" fill="#9E9E9E"/>
<path d="M162.164 183.118L158.751 185.102V179.007L162.164 176.881V183.118Z" fill="#9E9E9E"/>
<path d="M132.582 207.498L129.168 209.482V203.245L132.582 201.261V207.498Z" fill="#9E9E9E"/>
<path d="M139.977 203.245L136.564 205.23V198.993L139.977 197.008V203.245Z" fill="#9E9E9E"/>
<path d="M147.373 198.993L143.96 200.977V194.74L147.373 192.756V198.993Z" fill="url(#paint51_linear)"/>
<path d="M154.769 194.599L151.355 196.725V190.488L154.769 188.504V194.599Z" fill="#9E9E9E"/>
<path d="M162.164 190.347L158.751 192.473V186.236L162.164 184.252V190.347Z" fill="#9E9E9E"/>
<path d="M132.582 214.727L129.168 216.711V210.474L132.582 208.49V214.727Z" fill="#9E9E9E"/>
<path d="M139.977 210.474L136.564 212.459V206.222L139.977 204.238V210.474Z" fill="#9E9E9E"/>
<path d="M147.373 206.222L143.96 208.206V201.97L147.373 199.985V206.222Z" fill="#9E9E9E"/>
<path d="M154.769 201.97L151.355 203.954V197.717L154.769 195.733V201.97Z" fill="#9E9E9E"/>
<path d="M162.164 197.576L158.751 199.702V193.465L162.164 191.481V197.576Z" fill="#9E9E9E"/>
<path d="M132.582 221.955L129.168 223.94V217.703L132.582 215.719V221.955Z" fill="#9E9E9E"/>
<path d="M139.977 217.703L136.564 219.688V213.451L139.977 211.467V217.703Z" fill="url(#paint52_linear)"/>
<path d="M147.373 213.451L143.96 215.435V209.199L147.373 207.214V213.451Z" fill="#9E9E9E"/>
<path d="M154.769 209.199L151.355 211.183V204.946L154.769 202.962V209.199Z" fill="#9E9E9E"/>
<path d="M162.164 204.946L158.751 206.931V200.694L162.164 198.71V204.946Z" fill="#9E9E9E"/>
<path d="M132.582 229.184L129.168 231.169V224.932L132.582 222.948V229.184Z" fill="#9E9E9E"/>
<path d="M139.977 224.932L136.564 226.916V220.68L139.977 218.695V224.932Z" fill="#9E9E9E"/>
<path d="M147.373 220.68L143.96 222.664V216.427L147.373 214.443V220.68Z" fill="#9E9E9E"/>
<path d="M154.769 216.428L151.355 218.412V212.175L154.769 210.191V216.428Z" fill="#9E9E9E"/>
<path d="M162.164 212.175L158.751 214.159V207.923L162.164 205.938V212.175Z" fill="#9E9E9E"/>
<path d="M166.431 224.932L124.901 248.887V240.099L166.431 216.286V224.932Z" fill="#9E9E9E"/>
<path d="M83.3721 216.286L124.902 240.099V133.933L83.3721 109.978V216.286Z" fill="url(#paint53_linear)"/>
<path d="M117.221 142.295L120.635 144.28V138.043L117.221 136.059V142.295Z" fill="url(#paint54_linear)"/>
<path d="M109.826 138.043L113.239 140.027V133.791L109.826 131.806V138.043Z" fill="#9E9E9E"/>
<path d="M102.43 133.791L105.844 135.775V129.538L102.43 127.554V133.791Z" fill="#9E9E9E"/>
<path d="M95.0344 129.397L98.4478 131.523V125.286L95.0344 123.302V129.397Z" fill="#9E9E9E"/>
<path d="M87.6389 125.144L91.0523 127.129V121.034L87.6389 119.049V125.144Z" fill="#9E9E9E"/>
<path d="M117.221 149.524L120.635 151.509V145.272L117.221 143.288V149.524Z" fill="#9E9E9E"/>
<path d="M109.826 145.272L113.239 147.257V141.02L109.826 139.035V145.272Z" fill="#9E9E9E"/>
<path d="M102.43 141.02L105.844 143.004V136.767L102.43 134.783V141.02Z" fill="#9E9E9E"/>
<path d="M95.0344 136.767L98.4478 138.752V132.515L95.0344 130.531V136.767Z" fill="#9E9E9E"/>
<path d="M87.6389 132.374L91.0523 134.5V128.263L87.6389 126.279V132.374Z" fill="#9E9E9E"/>
<path d="M117.221 156.753L120.635 158.738V152.501L117.221 150.517V156.753Z" fill="#9E9E9E"/>
<path d="M109.826 152.501L113.239 154.485V148.249L109.826 146.264V152.501Z" fill="#9E9E9E"/>
<path d="M102.43 148.249L105.844 150.233V143.996L102.43 142.012V148.249Z" fill="url(#paint55_linear)"/>
<path d="M95.0344 143.997L98.4478 145.981V139.744L95.0344 137.76V143.997Z" fill="#9E9E9E"/>
<path d="M87.6389 139.744L91.0523 141.729V135.492L87.6389 133.507V139.744Z" fill="url(#paint56_linear)"/>
<path d="M117.221 163.982L120.635 165.967V159.73L117.221 157.745V163.982Z" fill="#9E9E9E"/>
<path d="M109.826 159.73L113.239 161.714V155.478L109.826 153.493V159.73Z" fill="#9E9E9E"/>
<path d="M102.43 155.478L105.844 157.462V151.225L102.43 149.241V155.478Z" fill="#9E9E9E"/>
<path d="M95.0344 151.225L98.4478 153.21V146.973L95.0344 144.988V151.225Z" fill="#9E9E9E"/>
<path d="M87.6389 146.973L91.0523 148.957V142.721L87.6389 140.736V146.973Z" fill="#9E9E9E"/>
<path d="M117.221 171.211L120.635 173.196V166.959L117.221 164.975V171.211Z" fill="#9E9E9E"/>
<path d="M109.826 166.959L113.239 168.943V162.706L109.826 160.722V166.959Z" fill="#9E9E9E"/>
<path d="M102.43 162.706L105.844 164.691V158.454L102.43 156.47V162.706Z" fill="#9E9E9E"/>
<path d="M95.0344 158.454L98.4478 160.439V154.202L95.0344 152.217V158.454Z" fill="#9E9E9E"/>
<path d="M87.6389 154.202L91.0523 156.186V149.95L87.6389 147.965V154.202Z" fill="#9E9E9E"/>
<path d="M117.221 178.44L120.635 180.425V174.33L117.221 172.203V178.44Z" fill="#9E9E9E"/>
<path d="M109.826 174.188L113.239 176.172V169.935L109.826 167.951V174.188Z" fill="#9E9E9E"/>
<path d="M102.43 169.935L105.844 171.92V165.683L102.43 163.699V169.935Z" fill="#9E9E9E"/>
<path d="M95.0344 165.683L98.4478 167.668V161.431L95.0344 159.446V165.683Z" fill="#9E9E9E"/>
<path d="M87.6389 161.431L91.0523 163.415V157.179L87.6389 155.194V161.431Z" fill="#9E9E9E"/>
<path d="M117.221 185.669L120.635 187.654V181.559L117.221 179.432V185.669Z" fill="#9E9E9E"/>
<path d="M109.826 181.417L113.239 183.401V177.306L109.826 175.18V181.417Z" fill="#9E9E9E"/>
<path d="M102.43 177.164L105.844 179.149V172.912L102.43 170.928V177.164Z" fill="#9E9E9E"/>
<path d="M95.0344 172.912L98.4478 174.897V168.66L95.0344 166.675V172.912Z" fill="#9E9E9E"/>
<path d="M87.6389 168.66L91.0523 170.644V164.408L87.6389 162.423V168.66Z" fill="#9E9E9E"/>
<path d="M117.221 192.898L120.635 195.024V188.787L117.221 186.803V192.898Z" fill="#9E9E9E"/>
<path d="M109.826 188.646L113.239 190.63V184.535L109.826 182.551V188.646Z" fill="#9E9E9E"/>
<path d="M102.43 184.393L105.844 186.378V180.283L102.43 178.298V184.393Z" fill="#9E9E9E"/>
<path d="M95.0344 180.141L98.4478 182.126V175.889L95.0344 173.904V180.141Z" fill="#9E9E9E"/>
<path d="M87.6389 175.889L91.0523 177.873V171.637L87.6389 169.652V175.889Z" fill="#9E9E9E"/>
<path d="M117.221 200.269L120.635 202.253V196.017L117.221 194.032V200.269Z" fill="#9E9E9E"/>
<path d="M109.826 196.016L113.239 198.001V191.764L109.826 189.78V196.016Z" fill="#9E9E9E"/>
<path d="M102.43 191.764L105.844 193.607V187.512L102.43 185.527V191.764Z" fill="#9E9E9E"/>
<path d="M95.0344 187.37L98.4478 189.354V183.259L95.0344 181.275V187.37Z" fill="#9E9E9E"/>
<path d="M87.6389 183.118L91.0523 185.102V179.007L87.6389 176.881V183.118Z" fill="#9E9E9E"/>
<path d="M117.221 207.498L120.635 209.482V203.245L117.221 201.261V207.498Z" fill="#9E9E9E"/>
<path d="M109.826 203.245L113.239 205.23V198.993L109.826 197.008V203.245Z" fill="#9E9E9E"/>
<path d="M102.43 198.993L105.844 200.977V194.74L102.43 192.756V198.993Z" fill="#9E9E9E"/>
<path d="M95.0344 194.599L98.4478 196.725V190.488L95.0344 188.504V194.599Z" fill="url(#paint57_linear)"/>
<path d="M87.6389 190.347L91.0523 192.473V186.236L87.6389 184.252V190.347Z" fill="#9E9E9E"/>
<path d="M117.221 214.727L120.635 216.711V210.474L117.221 208.49V214.727Z" fill="#9E9E9E"/>
<path d="M109.826 210.474L113.239 212.459V206.222L109.826 204.238V210.474Z" fill="#9E9E9E"/>
<path d="M102.43 206.222L105.844 208.206V201.97L102.43 199.985V206.222Z" fill="#9E9E9E"/>
<path d="M95.0344 201.97L98.4478 203.954V197.717L95.0344 195.733V201.97Z" fill="#9E9E9E"/>
<path d="M87.6389 197.576L91.0523 199.702V193.465L87.6389 191.481V197.576Z" fill="#9E9E9E"/>
<path d="M117.221 221.955L120.635 223.94V217.703L117.221 215.719V221.955Z" fill="#9E9E9E"/>
<path d="M109.826 217.703L113.239 219.688V213.451L109.826 211.467V217.703Z" fill="#9E9E9E"/>
<path d="M102.43 213.451L105.844 215.435V209.199L102.43 207.214V213.451Z" fill="#9E9E9E"/>
<path d="M95.0344 209.199L98.4478 211.183V204.946L95.0344 202.962V209.199Z" fill="#9E9E9E"/>
<path d="M87.6389 204.946L91.0523 206.931V200.694L87.6389 198.71V204.946Z" fill="#9E9E9E"/>
<path d="M117.221 229.184L120.635 231.169V224.932L117.221 222.948V229.184Z" fill="#9E9E9E"/>
<path d="M109.826 224.932L113.239 226.916V220.68L109.826 218.695V224.932Z" fill="url(#paint58_linear)"/>
<path d="M102.43 220.68L105.844 222.664V216.427L102.43 214.443V220.68Z" fill="#9E9E9E"/>
<path d="M95.0344 216.428L98.4478 218.412V212.175L95.0344 210.191V216.428Z" fill="#9E9E9E"/>
<path d="M87.6389 212.175L91.0523 214.159V207.923L87.6389 205.938V212.175Z" fill="#9E9E9E"/>
<path d="M83.3721 224.932L124.902 248.887V240.099L83.3721 216.286V224.932Z" fill="#7E7E7E"/>
<path d="M166.431 109.978L124.902 86.1649L83.3721 109.978L124.902 133.933L166.431 109.978Z" fill="#7E7E7E"/>
<path d="M160.457 109.978L124.901 130.389V116.781L160.457 96.2285V109.978Z" fill="url(#paint59_linear)"/>
<path d="M89.3455 109.978L124.902 130.389V116.781L89.3455 96.2285V109.978Z" fill="url(#paint60_linear)"/>
<path d="M89.3455 109.978L124.902 130.389V116.781L89.3455 96.2285V109.978Z" fill="url(#paint61_linear)"/>
<path d="M160.458 96.2285L124.902 75.8174L89.3455 96.2285L124.902 116.781L160.458 96.2285Z" fill="#7E7E7E"/>
<path d="M157.044 96.2285L124.901 114.797V108.277L157.044 89.7083V96.2285Z" fill="url(#paint62_linear)"/>
<path d="M92.7588 96.2285L124.902 114.797V108.277L92.7588 89.7083V96.2285Z" fill="url(#paint63_linear)"/>
<path d="M157.044 89.7082L124.902 71.2815L92.7588 89.7082L124.902 108.277L157.044 89.7082Z" fill="#7E7E7E"/>
<path d="M149.08 89.7086L124.901 103.6V97.221L149.08 83.3301V89.7086Z" fill="url(#paint64_linear)"/>
<path d="M100.723 89.7086L124.902 103.6V97.221L100.723 83.3301V89.7086Z" fill="url(#paint65_linear)"/>
<path d="M149.08 83.33L124.902 69.4391L100.723 83.33L124.902 97.2209L149.08 83.33Z" fill="#7E7E7E"/>
<path d="M124.901 77.235V95.5199L146.093 83.33L138.555 69.4391L124.901 77.235Z" fill="#EEEEEE"/>
<path d="M124.902 77.235V95.5199L103.71 83.33L111.248 69.4391L124.902 77.235Z" fill="#D7D7D7"/>
<path d="M138.555 69.4391L124.902 61.5014L111.248 69.4391L124.902 77.235L138.555 69.4391Z" fill="#7E7E7E"/>
<path d="M124.901 75.5341V49.1697L135.71 69.4391L124.901 75.5341Z" fill="#EEEEEE"/>
<path d="M124.902 75.5341V49.1697L114.235 69.4391L124.902 75.5341Z" fill="#D7D7D7"/>
<path d="M132.582 142.295L129.168 144.28V138.043L132.582 136.059V142.295Z" fill="#9E9E9E"/>
<path d="M127.32 127.554L126.324 127.979V117.632L127.32 117.065V127.554Z" fill="#FFBC92"/>
<path d="M127.32 127.554L126.324 127.979V117.632L127.32 117.065V127.554Z" fill="url(#paint66_linear)"/>
<path d="M129.168 126.42L128.315 126.987V116.498L129.168 115.931V126.42Z" fill="#FFBC92"/>
<path d="M129.168 126.42L128.315 126.987V116.498L129.168 115.931V126.42Z" fill="url(#paint67_linear)"/>
<path d="M131.017 125.286L130.164 125.853V115.364L131.017 114.939V125.286Z" fill="#FFBC92"/>
<path d="M131.017 125.286L130.164 125.853V115.364L131.017 114.939V125.286Z" fill="url(#paint68_linear)"/>
<path d="M132.866 124.294L132.013 124.861V114.372L132.866 113.805V124.294Z" fill="#FFBC92"/>
<path d="M132.866 124.294L132.013 124.861V114.372L132.866 113.805V124.294Z" fill="url(#paint69_linear)"/>
<path d="M134.715 123.16L133.862 123.727V113.238L134.715 112.813V123.16Z" fill="#FFBC92"/>
<path d="M134.715 123.16L133.862 123.727V113.238L134.715 112.813V123.16Z" fill="url(#paint70_linear)"/>
<path d="M136.706 122.168L135.711 122.593V112.246L136.706 111.679V122.168Z" fill="#FFBC92"/>
<path d="M136.706 122.168L135.711 122.593V112.246L136.706 111.679V122.168Z" fill="url(#paint71_linear)"/>
<path d="M138.555 121.034L137.56 121.601V111.112L138.555 110.545V121.034Z" fill="#FFBC92"/>
<path d="M138.555 121.034L137.56 121.601V111.112L138.555 110.545V121.034Z" fill="url(#paint72_linear)"/>
<path d="M140.404 119.9L139.408 120.467V110.119L140.404 109.552V119.9Z" fill="#FFBC92"/>
<path d="M140.404 119.9L139.408 120.467V110.119L140.404 109.552V119.9Z" fill="url(#paint73_linear)"/>
<path d="M142.253 118.908L141.257 119.475V108.985L142.253 108.419V118.908Z" fill="#FFBC92"/>
<path d="M142.253 118.908L141.257 119.475V108.985L142.253 108.419V118.908Z" fill="url(#paint74_linear)"/>
<path d="M144.102 117.774L143.249 118.341V107.852L144.102 107.427V117.774Z" fill="#FFBC92"/>
<path d="M144.102 117.774L143.249 118.341V107.852L144.102 107.427V117.774Z" fill="url(#paint75_linear)"/>
<path d="M145.951 116.782L145.098 117.349V106.86L145.951 106.293V116.782Z" fill="#FFBC92"/>
<path d="M145.951 116.782L145.098 117.349V106.86L145.951 106.293V116.782Z" fill="url(#paint76_linear)"/>
<path d="M147.8 115.647L146.946 116.214V105.725L147.8 105.3V115.647Z" fill="#FFBC92"/>
<path d="M147.8 115.647L146.946 116.214V105.725L147.8 105.3V115.647Z" fill="url(#paint77_linear)"/>
<path d="M149.649 114.655L148.795 115.08V104.733L149.649 104.166V114.655Z" fill="#FFBC92"/>
<path d="M149.649 114.655L148.795 115.08V104.733L149.649 104.166V114.655Z" fill="url(#paint78_linear)"/>
<path d="M151.64 113.522L150.644 114.089V103.599L151.64 103.033V113.522Z" fill="#FFBC92"/>
<path d="M151.64 113.522L150.644 114.089V103.599L151.64 103.033V113.522Z" fill="url(#paint79_linear)"/>
<path d="M153.489 112.387L152.493 112.954V102.607L153.489 102.04V112.387Z" fill="#FFBC92"/>
<path d="M153.489 112.387L152.493 112.954V102.607L153.489 102.04V112.387Z" fill="url(#paint80_linear)"/>
<path d="M155.338 111.395L154.342 111.962V101.473L155.338 100.906V111.395Z" fill="#FFBC92"/>
<path d="M155.338 111.395L154.342 111.962V101.473L155.338 100.906V111.395Z" fill="url(#paint81_linear)"/>
<path d="M157.187 110.261L156.191 110.828V100.339L157.187 99.914V110.261Z" fill="#FFBC92"/>
<path d="M157.187 110.261L156.191 110.828V100.339L157.187 99.914V110.261Z" fill="url(#paint82_linear)"/>
<path d="M159.035 109.269L158.04 109.695V99.3473L159.035 98.7803V109.269Z" fill="#FFBC92"/>
<path d="M159.035 109.269L158.04 109.695V99.3473L159.035 98.7803V109.269Z" fill="url(#paint83_linear)"/>
<path d="M122.484 127.554L123.479 127.979V117.632L122.484 117.065V127.554Z" fill="url(#paint84_linear)"/>
<path d="M120.635 126.42L121.631 126.987V116.498L120.635 115.931V126.42Z" fill="url(#paint85_linear)"/>
<path d="M118.786 125.286L119.781 125.853V115.364L118.786 114.939V125.286Z" fill="url(#paint86_linear)"/>
<path d="M116.937 124.294L117.791 124.861V114.372L116.937 113.805V124.294Z" fill="url(#paint87_linear)"/>
<path d="M115.088 123.16L115.941 123.727V113.238L115.088 112.813V123.16Z" fill="url(#paint88_linear)"/>
<path d="M113.239 122.168L114.093 122.593V112.246L113.239 111.679V122.168Z" fill="url(#paint89_linear)"/>
<path d="M111.39 121.034L112.243 121.601V111.112L111.39 110.545V121.034Z" fill="url(#paint90_linear)"/>
<path d="M109.541 119.9L110.395 120.467V110.119L109.541 109.552V119.9Z" fill="url(#paint91_linear)"/>
<path d="M107.55 118.908L108.546 119.475V108.985L107.55 108.419V118.908Z" fill="url(#paint92_linear)"/>
<path d="M105.701 117.774L106.697 118.341V107.852L105.701 107.427V117.774Z" fill="url(#paint93_linear)"/>
<path d="M103.853 116.782L104.848 117.349V106.86L103.853 106.293V116.782Z" fill="url(#paint94_linear)"/>
<path d="M102.003 115.647L102.999 116.214V105.725L102.003 105.3V115.647Z" fill="url(#paint95_linear)"/>
<path d="M100.154 114.655L101.15 115.08V104.733L100.154 104.166V114.655Z" fill="url(#paint96_linear)"/>
<path d="M98.3057 113.522L99.159 114.089V103.599L98.3057 103.033V113.522Z" fill="url(#paint97_linear)"/>
<path d="M96.4565 112.387L97.3099 112.954V102.607L96.4565 102.04V112.387Z" fill="url(#paint98_linear)"/>
<path d="M94.6077 111.395L95.461 111.962V101.473L94.6077 100.906V111.395Z" fill="url(#paint99_linear)"/>
<path d="M92.6165 110.261L93.612 110.828V100.339L92.6165 99.914V110.261Z" fill="url(#paint100_linear)"/>
<path d="M90.7676 109.269L91.7631 109.695V99.3473L90.7676 98.7803V109.269Z" fill="url(#paint101_linear)"/>
<path d="M125.335 34.9954C125.335 35.2501 125.162 35.4253 124.902 35.4253C124.641 35.4253 124.468 35.2501 124.468 34.9954C124.468 34.7408 124.641 34.5655 124.902 34.5655C125.162 34.5655 125.335 34.7408 125.335 34.9954Z" fill="#9E9E9E" stroke="#BDBDBD" stroke-width="1.12453"/>
<path d="M124.902 38.397C124.617 38.397 124.333 38.1135 124.333 37.83C124.333 37.5465 124.617 37.263 124.902 37.263C125.186 37.263 125.471 37.5465 125.471 37.83C125.471 38.1135 125.328 38.397 124.902 38.397Z" fill="#BDBDBD"/>
<path d="M124.902 40.0979C124.617 40.0979 124.333 39.8144 124.333 39.5309C124.333 39.2474 124.617 38.9639 124.902 38.9639C125.186 38.9639 125.471 39.2474 125.471 39.5309C125.471 39.8144 125.328 40.0979 124.902 40.0979Z" fill="#BDBDBD"/>
<path d="M124.902 41.9407C124.617 41.9407 124.333 41.6572 124.333 41.3737C124.333 41.0903 124.617 40.8068 124.902 40.8068C125.186 40.8068 125.471 41.0903 125.471 41.3737C125.613 41.5155 125.328 41.799 124.902 41.9407Z" fill="#BDBDBD"/>
<path fill-rule="evenodd" clip-rule="evenodd" d="M33.9811 204.744L22.3735 234.21L3.98769 228.636L1.44262 211.075L33.9811 204.744Z" fill="url(#paint102_linear)"/>
<path fill-rule="evenodd" clip-rule="evenodd" d="M35.3342 203.556L37.8784 221.121L22.3738 234.21L19.8248 216.645L35.3342 203.556Z" fill="url(#paint103_linear)"/>
<path fill-rule="evenodd" clip-rule="evenodd" d="M35.3341 203.555L19.8247 216.645L1.44284 211.075L16.9486 197.983L35.3341 203.555Z" fill="url(#paint104_linear)"/>
<path fill-rule="evenodd" clip-rule="evenodd" d="M357.608 55.1842L348.516 80.2087L332.938 75.936L330.403 61.2341L357.608 55.1842Z" fill="url(#paint105_linear)"/>
<path fill-rule="evenodd" clip-rule="evenodd" d="M358.718 54.1554L361.252 68.8616L348.516 80.2088L345.978 65.5037L358.718 54.1554Z" fill="url(#paint106_linear)"/>
<path fill-rule="evenodd" clip-rule="evenodd" d="M358.718 54.1553L345.978 65.5035L330.403 61.234L343.14 49.8839L358.718 54.1553Z" fill="url(#paint107_linear)"/>
<path fill-rule="evenodd" clip-rule="evenodd" d="M358.718 54.1553L345.978 65.5035L330.403 61.234L343.14 49.8839L358.718 54.1553Z" fill="url(#paint108_linear)"/>
<path fill-rule="evenodd" clip-rule="evenodd" d="M180.251 84.2391L170.282 95.2834L163.123 89.8175L164.906 81.6828L180.251 84.2391Z" fill="url(#paint109_linear)"/>
<path fill-rule="evenodd" clip-rule="evenodd" d="M181.041 83.939L179.258 92.0757L170.282 95.2834L172.063 87.1464L181.041 83.939Z" fill="url(#paint110_linear)"/>
<path fill-rule="evenodd" clip-rule="evenodd" d="M181.041 83.9389L172.064 87.1463L164.906 81.6827L173.882 78.4737L181.041 83.9389Z" fill="url(#paint111_linear)"/>
<path fill-rule="evenodd" clip-rule="evenodd" d="M106.903 293.176L92.1834 330.543L68.8677 323.475L65.6402 301.206L106.903 293.176Z" fill="url(#paint112_linear)"/>
<path fill-rule="evenodd" clip-rule="evenodd" d="M108.619 291.669L111.846 313.945L92.1837 330.543L88.9513 308.269L108.619 291.669Z" fill="url(#paint113_linear)"/>
<path fill-rule="evenodd" clip-rule="evenodd" d="M108.619 291.669L88.9512 308.268L65.6404 301.205L85.3039 284.603L108.619 291.669Z" fill="url(#paint114_linear)"/>
<path fill-rule="evenodd" clip-rule="evenodd" d="M108.619 291.669L88.9512 308.268L65.6404 301.205L85.3039 284.603L108.619 291.669Z" fill="url(#paint115_linear)"/>
<path fill-rule="evenodd" clip-rule="evenodd" d="M284.803 244.971L258.788 292.054L229.054 278.659L228.625 248.535L284.803 244.971Z" fill="url(#paint116_linear)"/>
<path fill-rule="evenodd" clip-rule="evenodd" d="M287.342 243.266L287.768 273.398L258.788 292.054L258.353 261.923L287.342 243.266Z" fill="url(#paint117_linear)"/>
<path fill-rule="evenodd" clip-rule="evenodd" d="M287.342 243.266L258.353 261.923L228.625 248.535L257.609 229.873L287.342 243.266Z" fill="url(#paint118_linear)"/>
<path fill-rule="evenodd" clip-rule="evenodd" d="M287.342 243.266L258.353 261.923L228.625 248.535L257.609 229.873L287.342 243.266Z" fill="url(#paint119_linear)"/>
<path fill-rule="evenodd" clip-rule="evenodd" d="M381.854 146.804L355.709 204.633L319.465 191.673L316.109 156.279L381.854 146.804Z" fill="url(#paint120_linear)"/>
<path fill-rule="evenodd" clip-rule="evenodd" d="M384.679 144.559L388.033 179.963L355.71 204.633L352.346 169.231L384.679 144.559Z" fill="url(#paint121_linear)"/>
<path fill-rule="evenodd" clip-rule="evenodd" d="M384.679 144.558L352.346 169.23L316.109 156.278L348.435 131.601L384.679 144.558Z" fill="url(#paint122_linear)"/>
<path fill-rule="evenodd" clip-rule="evenodd" d="M384.679 144.558L352.346 169.23L316.109 156.278L348.435 131.601L384.679 144.558Z" fill="url(#paint123_linear)"/>
<defs>
<linearGradient id="paint0_linear" x1="56.4722" y1="330.546" x2="192.926" y2="397.983" gradientUnits="userSpaceOnUse">
<stop stop-color="#BDBDBD"/>
<stop offset="1" stop-color="#EEEEEE"/>
</linearGradient>
<linearGradient id="paint1_linear" x1="234.989" y1="192.674" x2="242.158" y2="192.674" gradientUnits="userSpaceOnUse">
<stop stop-color="#3991D3"/>
<stop offset="0.229167" stop-color="#5FB2CB"/>
<stop offset="0.671875" stop-color="#6BCFA3"/>
<stop offset="1" stop-color="#88C378"/>
</linearGradient>
<linearGradient id="paint2_linear" x1="224.713" y1="209.716" x2="231.882" y2="209.716" gradientUnits="userSpaceOnUse">
<stop stop-color="#3991D3"/>
<stop offset="0.229167" stop-color="#5FB2CB"/>
<stop offset="0.671875" stop-color="#6BCFA3"/>
<stop offset="1" stop-color="#88C378"/>
</linearGradient>
<linearGradient id="paint3_linear" x1="234.989" y1="215.042" x2="242.158" y2="215.042" gradientUnits="userSpaceOnUse">
<stop stop-color="#3991D3"/>
<stop offset="0.229167" stop-color="#5FB2CB"/>
<stop offset="0.671875" stop-color="#6BCFA3"/>
<stop offset="1" stop-color="#88C378"/>
</linearGradient>
<linearGradient id="paint4_linear" x1="224.713" y1="265.577" x2="231.882" y2="265.577" gradientUnits="userSpaceOnUse">
<stop stop-color="#3991D3"/>
<stop offset="0.229167" stop-color="#5FB2CB"/>
<stop offset="0.671875" stop-color="#6BCFA3"/>
<stop offset="1" stop-color="#88C378"/>
</linearGradient>
<linearGradient id="paint5_linear" x1="224.713" y1="287.945" x2="231.882" y2="287.945" gradientUnits="userSpaceOnUse">
<stop stop-color="#3991D3"/>
<stop offset="0.229167" stop-color="#5FB2CB"/>
<stop offset="0.671875" stop-color="#6BCFA3"/>
<stop offset="1" stop-color="#88C378"/>
</linearGradient>
<linearGradient id="paint6_linear" x1="259.126" y1="178.827" x2="266.534" y2="178.827" gradientUnits="userSpaceOnUse">
<stop stop-color="#3991D3"/>
<stop offset="0.229167" stop-color="#5FB2CB"/>
<stop offset="0.671875" stop-color="#6BCFA3"/>
<stop offset="1" stop-color="#88C378"/>
</linearGradient>
<linearGradient id="paint7_linear" x1="269.402" y1="184.034" x2="276.81" y2="184.034" gradientUnits="userSpaceOnUse">
<stop stop-color="#3991D3"/>
<stop offset="0.229167" stop-color="#5FB2CB"/>
<stop offset="0.671875" stop-color="#6BCFA3"/>
<stop offset="1" stop-color="#88C378"/>
</linearGradient>
<linearGradient id="paint8_linear" x1="269.402" y1="195.278" x2="276.81" y2="195.278" gradientUnits="userSpaceOnUse">
<stop stop-color="#3991D3"/>
<stop offset="0.229167" stop-color="#5FB2CB"/>
<stop offset="0.671875" stop-color="#6BCFA3"/>
<stop offset="1" stop-color="#88C378"/>
</linearGradient>
<linearGradient id="paint9_linear" x1="269.402" y1="217.646" x2="276.81" y2="217.646" gradientUnits="userSpaceOnUse">
<stop stop-color="#3991D3"/>
<stop offset="0.229167" stop-color="#5FB2CB"/>
<stop offset="0.671875" stop-color="#6BCFA3"/>
<stop offset="1" stop-color="#88C378"/>
</linearGradient>
<linearGradient id="paint10_linear" x1="259.126" y1="234.688" x2="266.534" y2="234.688" gradientUnits="userSpaceOnUse">
<stop stop-color="#3991D3"/>
<stop offset="0.229167" stop-color="#5FB2CB"/>
<stop offset="0.671875" stop-color="#6BCFA3"/>
<stop offset="1" stop-color="#88C378"/>
</linearGradient>
<linearGradient id="paint11_linear" x1="269.402" y1="251.139" x2="276.81" y2="251.139" gradientUnits="userSpaceOnUse">
<stop stop-color="#3991D3"/>
<stop offset="0.229167" stop-color="#5FB2CB"/>
<stop offset="0.671875" stop-color="#6BCFA3"/>
<stop offset="1" stop-color="#88C378"/>
</linearGradient>
<linearGradient id="paint12_linear" x1="259.126" y1="268.181" x2="266.534" y2="268.181" gradientUnits="userSpaceOnUse">
<stop stop-color="#3991D3"/>
<stop offset="0.229167" stop-color="#5FB2CB"/>
<stop offset="0.671875" stop-color="#6BCFA3"/>
<stop offset="1" stop-color="#88C378"/>
</linearGradient>
<linearGradient id="paint13_linear" x1="303.814" y1="175.513" x2="311.223" y2="175.513" gradientUnits="userSpaceOnUse">
<stop stop-color="#3991D3"/>
<stop offset="0.229167" stop-color="#5FB2CB"/>
<stop offset="0.671875" stop-color="#6BCFA3"/>
<stop offset="1" stop-color="#88C378"/>
</linearGradient>
<linearGradient id="paint14_linear" x1="293.539" y1="192.556" x2="300.947" y2="192.556" gradientUnits="userSpaceOnUse">
<stop stop-color="#3991D3"/>
<stop offset="0.229167" stop-color="#5FB2CB"/>
<stop offset="0.671875" stop-color="#6BCFA3"/>
<stop offset="1" stop-color="#88C378"/>
</linearGradient>
<linearGradient id="paint15_linear" x1="303.814" y1="197.881" x2="311.223" y2="197.881" gradientUnits="userSpaceOnUse">
<stop stop-color="#3991D3"/>
<stop offset="0.229167" stop-color="#5FB2CB"/>
<stop offset="0.671875" stop-color="#6BCFA3"/>
<stop offset="1" stop-color="#88C378"/>
</linearGradient>
<linearGradient id="paint16_linear" x1="293.539" y1="237.291" x2="300.947" y2="237.291" gradientUnits="userSpaceOnUse">
<stop stop-color="#3991D3"/>
<stop offset="0.229167" stop-color="#5FB2CB"/>
<stop offset="0.671875" stop-color="#6BCFA3"/>
<stop offset="1" stop-color="#88C378"/>
</linearGradient>
<linearGradient id="paint17_linear" x1="171.182" y1="151.251" x2="171.054" y2="389.055" gradientUnits="userSpaceOnUse">
<stop stop-color="#EEEEEE"/>
<stop offset="0.53125" stop-color="#BDBDBD"/>
<stop offset="1" stop-color="#BDBDBD"/>
</linearGradient>
<linearGradient id="paint18_linear" x1="182.156" y1="156.76" x2="251.785" y2="185.569" gradientUnits="userSpaceOnUse">
<stop stop-color="#BDBDBD"/>
<stop offset="1" stop-color="#EEEEEE"/>
</linearGradient>
<linearGradient id="paint19_linear" x1="257.931" y1="112.551" x2="309.55" y2="112.551" gradientUnits="userSpaceOnUse">
<stop stop-color="#3991D3"/>
<stop offset="0.229167" stop-color="#5FB2CB"/>
<stop offset="0.671875" stop-color="#6BCFA3"/>
<stop offset="1" stop-color="#88C378"/>
</linearGradient>
<linearGradient id="paint20_linear" x1="225.43" y1="37.8721" x2="225.36" y2="195.57" gradientUnits="userSpaceOnUse">
<stop stop-color="#EEEEEE"/>
<stop offset="0.53125" stop-color="#BDBDBD"/>
<stop offset="1" stop-color="#BDBDBD"/>
</linearGradient>
<linearGradient id="paint21_linear" x1="199.621" y1="112.551" x2="251.24" y2="112.551" gradientUnits="userSpaceOnUse">
<stop stop-color="#3991D3"/>
<stop offset="0.229167" stop-color="#5FB2CB"/>
<stop offset="0.671875" stop-color="#6BCFA3"/>
<stop offset="1" stop-color="#88C378"/>
</linearGradient>
<linearGradient id="paint22_linear" x1="253.386" y1="104.883" x2="265.491" y2="5.98796" gradientUnits="userSpaceOnUse">
<stop stop-color="#01213B"/>
<stop offset="0.26" stop-color="#012E49"/>
<stop offset="0.76" stop-color="#00526D"/>
<stop offset="1" stop-color="#006581"/>
</linearGradient>
<linearGradient id="paint23_linear" x1="205.903" y1="60.3793" x2="237.023" y2="87.5323" gradientUnits="userSpaceOnUse">
<stop stop-color="#BDBDBD"/>
<stop offset="1" stop-color="#EEEEEE"/>
</linearGradient>
<linearGradient id="paint24_linear" x1="234.87" y1="22.4867" x2="234.86" y2="72.7491" gradientUnits="userSpaceOnUse">
<stop stop-color="#EEEEEE"/>
<stop offset="0.53125" stop-color="#BDBDBD"/>
<stop offset="1" stop-color="#BDBDBD"/>
</linearGradient>
<linearGradient id="paint25_linear" x1="194.801" y1="71.0427" x2="299.853" y2="-15.8175" gradientUnits="userSpaceOnUse">
<stop stop-color="#000D16"/>
<stop offset="0.35" stop-color="#00121F"/>
<stop offset="0.91" stop-color="#011F36"/>
<stop offset="1" stop-color="#01213B"/>
</linearGradient>
<linearGradient id="paint26_linear" x1="254.365" y1="45.1095" x2="263.955" y2="-16.0612" gradientUnits="userSpaceOnUse">
<stop stop-color="#BDBDBD"/>
<stop offset="1" stop-color="#EEEEEE"/>
</linearGradient>
<linearGradient id="paint27_linear" x1="150.102" y1="166.176" x2="168.982" y2="182.745" gradientUnits="userSpaceOnUse">
<stop stop-color="#BDBDBD"/>
<stop offset="1" stop-color="#EEEEEE"/>
</linearGradient>
<linearGradient id="paint28_linear" x1="167.837" y1="143.203" x2="167.831" y2="173.675" gradientUnits="userSpaceOnUse">
<stop stop-color="#EEEEEE"/>
<stop offset="0.53125" stop-color="#BDBDBD"/>
<stop offset="1" stop-color="#BDBDBD"/>
</linearGradient>
<linearGradient id="paint29_linear" x1="143.516" y1="172.848" x2="207.6" y2="120.089" gradientUnits="userSpaceOnUse">
<stop stop-color="#000D16"/>
<stop offset="0.35" stop-color="#00121F"/>
<stop offset="0.91" stop-color="#011F36"/>
<stop offset="1" stop-color="#01213B"/>
</linearGradient>
<linearGradient id="paint30_linear" x1="179.725" y1="157.015" x2="185.604" y2="119.677" gradientUnits="userSpaceOnUse">
<stop stop-color="#BDBDBD"/>
<stop offset="1" stop-color="#EEEEEE"/>
</linearGradient>
<linearGradient id="paint31_linear" x1="177.584" y1="181.798" x2="196.294" y2="198.389" gradientUnits="userSpaceOnUse">
<stop stop-color="#BDBDBD"/>
<stop offset="1" stop-color="#EEEEEE"/>
</linearGradient>
<linearGradient id="paint32_linear" x1="195.319" y1="159.062" x2="195.313" y2="189.22" gradientUnits="userSpaceOnUse">
<stop stop-color="#EEEEEE"/>
<stop offset="0.53125" stop-color="#BDBDBD"/>
<stop offset="1" stop-color="#BDBDBD"/>
</linearGradient>
<linearGradient id="paint33_linear" x1="207.207" y1="172.637" x2="212.987" y2="135.605" gradientUnits="userSpaceOnUse">
<stop stop-color="#BDBDBD"/>
<stop offset="1" stop-color="#EEEEEE"/>
</linearGradient>
<linearGradient id="paint34_linear" x1="67.3092" y1="370.299" x2="127.775" y2="386.568" gradientUnits="userSpaceOnUse">
<stop stop-color="#BDBDBD"/>
<stop offset="1" stop-color="#EEEEEE"/>
</linearGradient>
<linearGradient id="paint35_linear" x1="129.595" y1="290.985" x2="133.435" y2="290.985" gradientUnits="userSpaceOnUse">
<stop stop-color="#88C378"/>
<stop offset="0.239583" stop-color="#6BCFA3"/>
<stop offset="0.75" stop-color="#5FB2CB"/>
<stop offset="1" stop-color="#3991D3"/>
</linearGradient>
<linearGradient id="paint36_linear" x1="146.235" y1="289.568" x2="150.075" y2="289.568" gradientUnits="userSpaceOnUse">
<stop stop-color="#88C378"/>
<stop offset="0.239583" stop-color="#6BCFA3"/>
<stop offset="0.75" stop-color="#5FB2CB"/>
<stop offset="1" stop-color="#3991D3"/>
</linearGradient>
<linearGradient id="paint37_linear" x1="146.235" y1="321.956" x2="150.075" y2="321.956" gradientUnits="userSpaceOnUse">
<stop stop-color="#88C378"/>
<stop offset="0.239583" stop-color="#6BCFA3"/>
<stop offset="0.75" stop-color="#5FB2CB"/>
<stop offset="1" stop-color="#3991D3"/>
</linearGradient>
<linearGradient id="paint38_linear" x1="137.844" y1="342.863" x2="141.826" y2="342.863" gradientUnits="userSpaceOnUse">
<stop stop-color="#88C378"/>
<stop offset="0.239583" stop-color="#6BCFA3"/>
<stop offset="0.75" stop-color="#5FB2CB"/>
<stop offset="1" stop-color="#3991D3"/>
</linearGradient>
<linearGradient id="paint39_linear" x1="101.719" y1="224.932" x2="101.588" y2="417.752" gradientUnits="userSpaceOnUse">
<stop stop-color="#EEEEEE"/>
<stop offset="0.53125" stop-color="#BDBDBD"/>
<stop offset="1" stop-color="#BDBDBD"/>
</linearGradient>
<linearGradient id="paint40_linear" x1="116.368" y1="258.596" x2="120.208" y2="258.596" gradientUnits="userSpaceOnUse">
<stop stop-color="#88C378"/>
<stop offset="0.239583" stop-color="#6BCFA3"/>
<stop offset="0.75" stop-color="#5FB2CB"/>
<stop offset="1" stop-color="#3991D3"/>
</linearGradient>
<linearGradient id="paint41_linear" x1="99.8701" y1="265.329" x2="103.71" y2="265.329" gradientUnits="userSpaceOnUse">
<stop stop-color="#88C378"/>
<stop offset="0.239583" stop-color="#6BCFA3"/>
<stop offset="0.75" stop-color="#5FB2CB"/>
<stop offset="1" stop-color="#3991D3"/>
</linearGradient>
<linearGradient id="paint42_linear" x1="83.2297" y1="255.761" x2="87.0698" y2="255.761" gradientUnits="userSpaceOnUse">
<stop stop-color="#88C378"/>
<stop offset="0.239583" stop-color="#6BCFA3"/>
<stop offset="0.75" stop-color="#5FB2CB"/>
<stop offset="1" stop-color="#3991D3"/>
</linearGradient>
<linearGradient id="paint43_linear" x1="91.4788" y1="317.136" x2="95.461" y2="317.136" gradientUnits="userSpaceOnUse">
<stop stop-color="#88C378"/>
<stop offset="0.239583" stop-color="#6BCFA3"/>
<stop offset="0.75" stop-color="#5FB2CB"/>
<stop offset="1" stop-color="#3991D3"/>
</linearGradient>
<linearGradient id="paint44_linear" x1="108.119" y1="350.942" x2="111.959" y2="350.942" gradientUnits="userSpaceOnUse">
<stop stop-color="#88C378"/>
<stop offset="0.239583" stop-color="#6BCFA3"/>
<stop offset="0.75" stop-color="#5FB2CB"/>
<stop offset="1" stop-color="#3991D3"/>
</linearGradient>
<linearGradient id="paint45_linear" x1="73.3157" y1="240.169" x2="127.475" y2="254.744" gradientUnits="userSpaceOnUse">
<stop stop-color="#BDBDBD"/>
<stop offset="1" stop-color="#EEEEEE"/>
</linearGradient>
<linearGradient id="paint46_linear" x1="158.751" y1="123.089" x2="162.164" y2="123.089" gradientUnits="userSpaceOnUse">
<stop stop-color="#3991D3"/>
<stop offset="0.229167" stop-color="#5FB2CB"/>
<stop offset="0.671875" stop-color="#6BCFA3"/>
<stop offset="1" stop-color="#88C378"/>
</linearGradient>
<linearGradient id="paint47_linear" x1="158.751" y1="130.389" x2="162.164" y2="130.389" gradientUnits="userSpaceOnUse">
<stop stop-color="#3991D3"/>
<stop offset="0.229167" stop-color="#5FB2CB"/>
<stop offset="0.671875" stop-color="#6BCFA3"/>
<stop offset="1" stop-color="#88C378"/>
</linearGradient>
<linearGradient id="paint48_linear" x1="129.168" y1="169.085" x2="132.582" y2="169.085" gradientUnits="userSpaceOnUse">
<stop stop-color="#3991D3"/>
<stop offset="0.229167" stop-color="#5FB2CB"/>
<stop offset="0.671875" stop-color="#6BCFA3"/>
<stop offset="1" stop-color="#88C378"/>
</linearGradient>
<linearGradient id="paint49_linear" x1="143.96" y1="167.809" x2="147.373" y2="167.809" gradientUnits="userSpaceOnUse">
<stop stop-color="#3991D3"/>
<stop offset="0.229167" stop-color="#5FB2CB"/>
<stop offset="0.671875" stop-color="#6BCFA3"/>
<stop offset="1" stop-color="#88C378"/>
</linearGradient>
<linearGradient id="paint50_linear" x1="158.751" y1="166.534" x2="162.164" y2="166.534" gradientUnits="userSpaceOnUse">
<stop stop-color="#3991D3"/>
<stop offset="0.229167" stop-color="#5FB2CB"/>
<stop offset="0.671875" stop-color="#6BCFA3"/>
<stop offset="1" stop-color="#88C378"/>
</linearGradient>
<linearGradient id="paint51_linear" x1="143.96" y1="196.867" x2="147.373" y2="196.867" gradientUnits="userSpaceOnUse">
<stop stop-color="#3991D3"/>
<stop offset="0.229167" stop-color="#5FB2CB"/>
<stop offset="0.671875" stop-color="#6BCFA3"/>
<stop offset="1" stop-color="#88C378"/>
</linearGradient>
<linearGradient id="paint52_linear" x1="136.564" y1="215.577" x2="139.977" y2="215.577" gradientUnits="userSpaceOnUse">
<stop stop-color="#3991D3"/>
<stop offset="0.229167" stop-color="#5FB2CB"/>
<stop offset="0.671875" stop-color="#6BCFA3"/>
<stop offset="1" stop-color="#88C378"/>
</linearGradient>
<linearGradient id="paint53_linear" x1="104.137" y1="109.978" x2="104.019" y2="282.67" gradientUnits="userSpaceOnUse">
<stop stop-color="#EEEEEE"/>
<stop offset="0.53125" stop-color="#BDBDBD"/>
<stop offset="1" stop-color="#BDBDBD"/>
</linearGradient>
<linearGradient id="paint54_linear" x1="117.221" y1="140.169" x2="120.635" y2="140.169" gradientUnits="userSpaceOnUse">
<stop stop-color="#3991D3"/>
<stop offset="0.229167" stop-color="#5FB2CB"/>
<stop offset="0.671875" stop-color="#6BCFA3"/>
<stop offset="1" stop-color="#88C378"/>
</linearGradient>
<linearGradient id="paint55_linear" x1="102.43" y1="146.123" x2="105.844" y2="146.123" gradientUnits="userSpaceOnUse">
<stop stop-color="#3991D3"/>
<stop offset="0.229167" stop-color="#5FB2CB"/>
<stop offset="0.671875" stop-color="#6BCFA3"/>
<stop offset="1" stop-color="#88C378"/>
</linearGradient>
<linearGradient id="paint56_linear" x1="87.6389" y1="137.618" x2="91.0523" y2="137.618" gradientUnits="userSpaceOnUse">
<stop stop-color="#3991D3"/>
<stop offset="0.229167" stop-color="#5FB2CB"/>
<stop offset="0.671875" stop-color="#6BCFA3"/>
<stop offset="1" stop-color="#88C378"/>
</linearGradient>
<linearGradient id="paint57_linear" x1="95.0344" y1="192.615" x2="98.4478" y2="192.615" gradientUnits="userSpaceOnUse">
<stop stop-color="#3991D3"/>
<stop offset="0.229167" stop-color="#5FB2CB"/>
<stop offset="0.671875" stop-color="#6BCFA3"/>
<stop offset="1" stop-color="#88C378"/>
</linearGradient>
<linearGradient id="paint58_linear" x1="109.826" y1="222.806" x2="113.239" y2="222.806" gradientUnits="userSpaceOnUse">
<stop stop-color="#3991D3"/>
<stop offset="0.229167" stop-color="#5FB2CB"/>
<stop offset="0.671875" stop-color="#6BCFA3"/>
<stop offset="1" stop-color="#88C378"/>
</linearGradient>
<linearGradient id="paint59_linear" x1="80.7356" y1="130.407" x2="108.827" y2="155.06" gradientUnits="userSpaceOnUse">
<stop stop-color="#BDBDBD"/>
<stop offset="1" stop-color="#EEEEEE"/>
</linearGradient>
<linearGradient id="paint60_linear" x1="112.054" y1="131.959" x2="113.768" y2="79.1331" gradientUnits="userSpaceOnUse">
<stop stop-color="#01213B"/>
<stop offset="0.26" stop-color="#012E49"/>
<stop offset="0.76" stop-color="#00526D"/>
<stop offset="1" stop-color="#006581"/>
</linearGradient>
<linearGradient id="paint61_linear" x1="107.124" y1="96.2285" x2="107.114" y2="141.565" gradientUnits="userSpaceOnUse">
<stop stop-color="#EEEEEE"/>
<stop offset="0.53125" stop-color="#BDBDBD"/>
<stop offset="1" stop-color="#BDBDBD"/>
</linearGradient>
<linearGradient id="paint62_linear" x1="84.9755" y1="114.811" x2="105.721" y2="137.22" gradientUnits="userSpaceOnUse">
<stop stop-color="#BDBDBD"/>
<stop offset="1" stop-color="#EEEEEE"/>
</linearGradient>
<linearGradient id="paint63_linear" x1="108.83" y1="89.7083" x2="108.825" y2="123.005" gradientUnits="userSpaceOnUse">
<stop stop-color="#EEEEEE"/>
<stop offset="0.53125" stop-color="#BDBDBD"/>
<stop offset="1" stop-color="#BDBDBD"/>
</linearGradient>
<linearGradient id="paint64_linear" x1="94.8686" y1="103.611" x2="111.679" y2="120.517" gradientUnits="userSpaceOnUse">
<stop stop-color="#BDBDBD"/>
<stop offset="1" stop-color="#EEEEEE"/>
</linearGradient>
<linearGradient id="paint65_linear" x1="112.812" y1="83.3301" x2="112.808" y2="110.231" gradientUnits="userSpaceOnUse">
<stop stop-color="#EEEEEE"/>
<stop offset="0.53125" stop-color="#BDBDBD"/>
<stop offset="1" stop-color="#BDBDBD"/>
</linearGradient>
<linearGradient id="paint66_linear" x1="126.324" y1="122.522" x2="127.32" y2="122.522" gradientUnits="userSpaceOnUse">
<stop stop-color="#3991D3"/>
<stop offset="0.229167" stop-color="#5FB2CB"/>
<stop offset="0.671875" stop-color="#6BCFA3"/>
<stop offset="1" stop-color="#88C378"/>
</linearGradient>
<linearGradient id="paint67_linear" x1="128.315" y1="121.459" x2="129.168" y2="121.459" gradientUnits="userSpaceOnUse">
<stop stop-color="#3991D3"/>
<stop offset="0.229167" stop-color="#5FB2CB"/>
<stop offset="0.671875" stop-color="#6BCFA3"/>
<stop offset="1" stop-color="#88C378"/>
</linearGradient>
<linearGradient id="paint68_linear" x1="130.164" y1="120.396" x2="131.017" y2="120.396" gradientUnits="userSpaceOnUse">
<stop stop-color="#3991D3"/>
<stop offset="0.229167" stop-color="#5FB2CB"/>
<stop offset="0.671875" stop-color="#6BCFA3"/>
<stop offset="1" stop-color="#88C378"/>
</linearGradient>
<linearGradient id="paint69_linear" x1="132.013" y1="119.333" x2="132.866" y2="119.333" gradientUnits="userSpaceOnUse">
<stop stop-color="#3991D3"/>
<stop offset="0.229167" stop-color="#5FB2CB"/>
<stop offset="0.671875" stop-color="#6BCFA3"/>
<stop offset="1" stop-color="#88C378"/>
</linearGradient>
<linearGradient id="paint70_linear" x1="133.862" y1="118.27" x2="134.715" y2="118.27" gradientUnits="userSpaceOnUse">
<stop stop-color="#3991D3"/>
<stop offset="0.229167" stop-color="#5FB2CB"/>
<stop offset="0.671875" stop-color="#6BCFA3"/>
<stop offset="1" stop-color="#88C378"/>
</linearGradient>
<linearGradient id="paint71_linear" x1="135.711" y1="117.136" x2="136.706" y2="117.136" gradientUnits="userSpaceOnUse">
<stop stop-color="#3991D3"/>
<stop offset="0.229167" stop-color="#5FB2CB"/>
<stop offset="0.671875" stop-color="#6BCFA3"/>
<stop offset="1" stop-color="#88C378"/>
</linearGradient>
<linearGradient id="paint72_linear" x1="137.56" y1="116.073" x2="138.555" y2="116.073" gradientUnits="userSpaceOnUse">
<stop stop-color="#3991D3"/>
<stop offset="0.229167" stop-color="#5FB2CB"/>
<stop offset="0.671875" stop-color="#6BCFA3"/>
<stop offset="1" stop-color="#88C378"/>
</linearGradient>
<linearGradient id="paint73_linear" x1="139.408" y1="115.01" x2="140.404" y2="115.01" gradientUnits="userSpaceOnUse">
<stop stop-color="#3991D3"/>
<stop offset="0.229167" stop-color="#5FB2CB"/>
<stop offset="0.671875" stop-color="#6BCFA3"/>
<stop offset="1" stop-color="#88C378"/>
</linearGradient>
<linearGradient id="paint74_linear" x1="141.257" y1="113.947" x2="142.253" y2="113.947" gradientUnits="userSpaceOnUse">
<stop stop-color="#3991D3"/>
<stop offset="0.229167" stop-color="#5FB2CB"/>
<stop offset="0.671875" stop-color="#6BCFA3"/>
<stop offset="1" stop-color="#88C378"/>
</linearGradient>
<linearGradient id="paint75_linear" x1="143.249" y1="112.884" x2="144.102" y2="112.884" gradientUnits="userSpaceOnUse">
<stop stop-color="#3991D3"/>
<stop offset="0.229167" stop-color="#5FB2CB"/>
<stop offset="0.671875" stop-color="#6BCFA3"/>
<stop offset="1" stop-color="#88C378"/>
</linearGradient>
<linearGradient id="paint76_linear" x1="145.098" y1="111.821" x2="145.951" y2="111.821" gradientUnits="userSpaceOnUse">
<stop stop-color="#3991D3"/>
<stop offset="0.229167" stop-color="#5FB2CB"/>
<stop offset="0.671875" stop-color="#6BCFA3"/>
<stop offset="1" stop-color="#88C378"/>
</linearGradient>
<linearGradient id="paint77_linear" x1="146.946" y1="110.757" x2="147.8" y2="110.757" gradientUnits="userSpaceOnUse">
<stop stop-color="#3991D3"/>
<stop offset="0.229167" stop-color="#5FB2CB"/>
<stop offset="0.671875" stop-color="#6BCFA3"/>
<stop offset="1" stop-color="#88C378"/>
</linearGradient>
<linearGradient id="paint78_linear" x1="148.795" y1="109.623" x2="149.649" y2="109.623" gradientUnits="userSpaceOnUse">
<stop stop-color="#3991D3"/>
<stop offset="0.229167" stop-color="#5FB2CB"/>
<stop offset="0.671875" stop-color="#6BCFA3"/>
<stop offset="1" stop-color="#88C378"/>
</linearGradient>
<linearGradient id="paint79_linear" x1="150.644" y1="108.561" x2="151.64" y2="108.561" gradientUnits="userSpaceOnUse">
<stop stop-color="#3991D3"/>
<stop offset="0.229167" stop-color="#5FB2CB"/>
<stop offset="0.671875" stop-color="#6BCFA3"/>
<stop offset="1" stop-color="#88C378"/>
</linearGradient>
<linearGradient id="paint80_linear" x1="152.493" y1="107.497" x2="153.489" y2="107.497" gradientUnits="userSpaceOnUse">
<stop stop-color="#3991D3"/>
<stop offset="0.229167" stop-color="#5FB2CB"/>
<stop offset="0.671875" stop-color="#6BCFA3"/>
<stop offset="1" stop-color="#88C378"/>
</linearGradient>
<linearGradient id="paint81_linear" x1="154.342" y1="106.434" x2="155.338" y2="106.434" gradientUnits="userSpaceOnUse">
<stop stop-color="#3991D3"/>
<stop offset="0.229167" stop-color="#5FB2CB"/>
<stop offset="0.671875" stop-color="#6BCFA3"/>
<stop offset="1" stop-color="#88C378"/>
</linearGradient>
<linearGradient id="paint82_linear" x1="156.191" y1="105.371" x2="157.187" y2="105.371" gradientUnits="userSpaceOnUse">
<stop stop-color="#3991D3"/>
<stop offset="0.229167" stop-color="#5FB2CB"/>
<stop offset="0.671875" stop-color="#6BCFA3"/>
<stop offset="1" stop-color="#88C378"/>
</linearGradient>
<linearGradient id="paint83_linear" x1="158.04" y1="104.237" x2="159.035" y2="104.237" gradientUnits="userSpaceOnUse">
<stop stop-color="#3991D3"/>
<stop offset="0.229167" stop-color="#5FB2CB"/>
<stop offset="0.671875" stop-color="#6BCFA3"/>
<stop offset="1" stop-color="#88C378"/>
</linearGradient>
<linearGradient id="paint84_linear" x1="122.484" y1="122.522" x2="123.479" y2="122.522" gradientUnits="userSpaceOnUse">
<stop stop-color="#3991D3"/>
<stop offset="0.229167" stop-color="#5FB2CB"/>
<stop offset="0.671875" stop-color="#6BCFA3"/>
<stop offset="1" stop-color="#88C378"/>
</linearGradient>
<linearGradient id="paint85_linear" x1="120.635" y1="121.459" x2="121.631" y2="121.459" gradientUnits="userSpaceOnUse">
<stop stop-color="#3991D3"/>
<stop offset="0.229167" stop-color="#5FB2CB"/>
<stop offset="0.671875" stop-color="#6BCFA3"/>
<stop offset="1" stop-color="#88C378"/>
</linearGradient>
<linearGradient id="paint86_linear" x1="118.786" y1="120.396" x2="119.781" y2="120.396" gradientUnits="userSpaceOnUse">
<stop stop-color="#3991D3"/>
<stop offset="0.229167" stop-color="#5FB2CB"/>
<stop offset="0.671875" stop-color="#6BCFA3"/>
<stop offset="1" stop-color="#88C378"/>
</linearGradient>
<linearGradient id="paint87_linear" x1="116.937" y1="119.333" x2="117.791" y2="119.333" gradientUnits="userSpaceOnUse">
<stop stop-color="#3991D3"/>
<stop offset="0.229167" stop-color="#5FB2CB"/>
<stop offset="0.671875" stop-color="#6BCFA3"/>
<stop offset="1" stop-color="#88C378"/>
</linearGradient>
<linearGradient id="paint88_linear" x1="115.088" y1="118.27" x2="115.941" y2="118.27" gradientUnits="userSpaceOnUse">
<stop stop-color="#3991D3"/>
<stop offset="0.229167" stop-color="#5FB2CB"/>
<stop offset="0.671875" stop-color="#6BCFA3"/>
<stop offset="1" stop-color="#88C378"/>
</linearGradient>
<linearGradient id="paint89_linear" x1="113.239" y1="117.136" x2="114.093" y2="117.136" gradientUnits="userSpaceOnUse">
<stop stop-color="#3991D3"/>
<stop offset="0.229167" stop-color="#5FB2CB"/>
<stop offset="0.671875" stop-color="#6BCFA3"/>
<stop offset="1" stop-color="#88C378"/>
</linearGradient>
<linearGradient id="paint90_linear" x1="111.39" y1="116.073" x2="112.243" y2="116.073" gradientUnits="userSpaceOnUse">
<stop stop-color="#3991D3"/>
<stop offset="0.229167" stop-color="#5FB2CB"/>
<stop offset="0.671875" stop-color="#6BCFA3"/>
<stop offset="1" stop-color="#88C378"/>
</linearGradient>
<linearGradient id="paint91_linear" x1="109.541" y1="115.01" x2="110.395" y2="115.01" gradientUnits="userSpaceOnUse">
<stop stop-color="#3991D3"/>
<stop offset="0.229167" stop-color="#5FB2CB"/>
<stop offset="0.671875" stop-color="#6BCFA3"/>
<stop offset="1" stop-color="#88C378"/>
</linearGradient>
<linearGradient id="paint92_linear" x1="107.55" y1="113.947" x2="108.546" y2="113.947" gradientUnits="userSpaceOnUse">
<stop stop-color="#3991D3"/>
<stop offset="0.229167" stop-color="#5FB2CB"/>
<stop offset="0.671875" stop-color="#6BCFA3"/>
<stop offset="1" stop-color="#88C378"/>
</linearGradient>
<linearGradient id="paint93_linear" x1="105.701" y1="112.884" x2="106.697" y2="112.884" gradientUnits="userSpaceOnUse">
<stop stop-color="#3991D3"/>
<stop offset="0.229167" stop-color="#5FB2CB"/>
<stop offset="0.671875" stop-color="#6BCFA3"/>
<stop offset="1" stop-color="#88C378"/>
</linearGradient>
<linearGradient id="paint94_linear" x1="103.853" y1="111.821" x2="104.848" y2="111.821" gradientUnits="userSpaceOnUse">
<stop stop-color="#3991D3"/>
<stop offset="0.229167" stop-color="#5FB2CB"/>
<stop offset="0.671875" stop-color="#6BCFA3"/>
<stop offset="1" stop-color="#88C378"/>
</linearGradient>
<linearGradient id="paint95_linear" x1="102.003" y1="110.757" x2="102.999" y2="110.757" gradientUnits="userSpaceOnUse">
<stop stop-color="#3991D3"/>
<stop offset="0.229167" stop-color="#5FB2CB"/>
<stop offset="0.671875" stop-color="#6BCFA3"/>
<stop offset="1" stop-color="#88C378"/>
</linearGradient>
<linearGradient id="paint96_linear" x1="100.154" y1="109.623" x2="101.15" y2="109.623" gradientUnits="userSpaceOnUse">
<stop stop-color="#3991D3"/>
<stop offset="0.229167" stop-color="#5FB2CB"/>
<stop offset="0.671875" stop-color="#6BCFA3"/>
<stop offset="1" stop-color="#88C378"/>
</linearGradient>
<linearGradient id="paint97_linear" x1="98.3057" y1="108.561" x2="99.159" y2="108.561" gradientUnits="userSpaceOnUse">
<stop stop-color="#3991D3"/>
<stop offset="0.229167" stop-color="#5FB2CB"/>
<stop offset="0.671875" stop-color="#6BCFA3"/>
<stop offset="1" stop-color="#88C378"/>
</linearGradient>
<linearGradient id="paint98_linear" x1="96.4565" y1="107.497" x2="97.3099" y2="107.497" gradientUnits="userSpaceOnUse">
<stop stop-color="#3991D3"/>
<stop offset="0.229167" stop-color="#5FB2CB"/>
<stop offset="0.671875" stop-color="#6BCFA3"/>
<stop offset="1" stop-color="#88C378"/>
</linearGradient>
<linearGradient id="paint99_linear" x1="94.6077" y1="106.434" x2="95.461" y2="106.434" gradientUnits="userSpaceOnUse">
<stop stop-color="#3991D3"/>
<stop offset="0.229167" stop-color="#5FB2CB"/>
<stop offset="0.671875" stop-color="#6BCFA3"/>
<stop offset="1" stop-color="#88C378"/>
</linearGradient>
<linearGradient id="paint100_linear" x1="92.6165" y1="105.371" x2="93.612" y2="105.371" gradientUnits="userSpaceOnUse">
<stop stop-color="#3991D3"/>
<stop offset="0.229167" stop-color="#5FB2CB"/>
<stop offset="0.671875" stop-color="#6BCFA3"/>
<stop offset="1" stop-color="#88C378"/>
</linearGradient>
<linearGradient id="paint101_linear" x1="90.7676" y1="104.237" x2="91.7631" y2="104.237" gradientUnits="userSpaceOnUse">
<stop stop-color="#3991D3"/>
<stop offset="0.229167" stop-color="#5FB2CB"/>
<stop offset="0.671875" stop-color="#6BCFA3"/>
<stop offset="1" stop-color="#88C378"/>
</linearGradient>
<linearGradient id="paint102_linear" x1="17.62" y1="207.488" x2="25.4171" y2="242.621" gradientUnits="userSpaceOnUse">
<stop stop-color="#EEEEEE"/>
<stop offset="0.53125" stop-color="#BDBDBD"/>
<stop offset="1" stop-color="#BDBDBD"/>
</linearGradient>
<linearGradient id="paint103_linear" x1="60.3767" y1="225.798" x2="42.9601" y2="239.215" gradientUnits="userSpaceOnUse">
<stop stop-color="#BDBDBD"/>
<stop offset="1" stop-color="#EEEEEE"/>
</linearGradient>
<linearGradient id="paint104_linear" x1="19.8253" y1="216.703" x2="10.6651" y2="192.685" gradientUnits="userSpaceOnUse">
<stop stop-color="#BDBDBD"/>
<stop offset="1" stop-color="#EEEEEE"/>
</linearGradient>
<linearGradient id="paint105_linear" x1="343.919" y1="57.8571" x2="351.259" y2="87.2115" gradientUnits="userSpaceOnUse">
<stop stop-color="#EEEEEE"/>
<stop offset="0.53125" stop-color="#BDBDBD"/>
<stop offset="1" stop-color="#BDBDBD"/>
</linearGradient>
<linearGradient id="paint106_linear" x1="380.266" y1="72.2885" x2="365.931" y2="83.955" gradientUnits="userSpaceOnUse">
<stop stop-color="#BDBDBD"/>
<stop offset="1" stop-color="#EEEEEE"/>
</linearGradient>
<linearGradient id="paint107_linear" x1="369.017" y1="69.2124" x2="327.333" y2="45.8497" gradientUnits="userSpaceOnUse">
<stop stop-color="#000D16"/>
<stop offset="0.35" stop-color="#00121F"/>
<stop offset="0.91" stop-color="#011F36"/>
<stop offset="1" stop-color="#01213B"/>
</linearGradient>
<linearGradient id="paint108_linear" x1="345.98" y1="65.5526" x2="337.742" y2="45.5705" gradientUnits="userSpaceOnUse">
<stop stop-color="#BDBDBD"/>
<stop offset="1" stop-color="#EEEEEE"/>
</linearGradient>
<linearGradient id="paint109_linear" x1="172.607" y1="82.7608" x2="170.27" y2="99.4848" gradientUnits="userSpaceOnUse">
<stop stop-color="#EEEEEE"/>
<stop offset="0.53125" stop-color="#BDBDBD"/>
<stop offset="1" stop-color="#BDBDBD"/>
</linearGradient>
<linearGradient id="paint110_linear" x1="188.372" y1="97.8222" x2="178.498" y2="100.847" gradientUnits="userSpaceOnUse">
<stop stop-color="#BDBDBD"/>
<stop offset="1" stop-color="#EEEEEE"/>
</linearGradient>
<linearGradient id="paint111_linear" x1="172.054" y1="87.1721" x2="171.97" y2="75.1146" gradientUnits="userSpaceOnUse">
<stop stop-color="#BDBDBD"/>
<stop offset="1" stop-color="#EEEEEE"/>
</linearGradient>
<linearGradient id="paint112_linear" x1="86.1554" y1="296.656" x2="96.0431" y2="341.21" gradientUnits="userSpaceOnUse">
<stop stop-color="#EEEEEE"/>
<stop offset="0.53125" stop-color="#BDBDBD"/>
<stop offset="1" stop-color="#BDBDBD"/>
</linearGradient>
<linearGradient id="paint113_linear" x1="140.377" y1="319.876" x2="118.29" y2="336.89" gradientUnits="userSpaceOnUse">
<stop stop-color="#BDBDBD"/>
<stop offset="1" stop-color="#EEEEEE"/>
</linearGradient>
<linearGradient id="paint114_linear" x1="123.539" y1="314.786" x2="61.6369" y2="277.88" gradientUnits="userSpaceOnUse">
<stop stop-color="#000D16"/>
<stop offset="0.35" stop-color="#00121F"/>
<stop offset="0.91" stop-color="#011F36"/>
<stop offset="1" stop-color="#01213B"/>
</linearGradient>
<linearGradient id="paint115_linear" x1="88.952" y1="308.342" x2="77.3355" y2="277.884" gradientUnits="userSpaceOnUse">
<stop stop-color="#BDBDBD"/>
<stop offset="1" stop-color="#EEEEEE"/>
</linearGradient>
<linearGradient id="paint116_linear" x1="256.652" y1="246.024" x2="262.116" y2="306.876" gradientUnits="userSpaceOnUse">
<stop stop-color="#EEEEEE"/>
<stop offset="0.53125" stop-color="#BDBDBD"/>
<stop offset="1" stop-color="#BDBDBD"/>
</linearGradient>
<linearGradient id="paint117_linear" x1="324.624" y1="286.18" x2="292.346" y2="304.961" gradientUnits="userSpaceOnUse">
<stop stop-color="#BDBDBD"/>
<stop offset="1" stop-color="#EEEEEE"/>
</linearGradient>
<linearGradient id="paint118_linear" x1="303.149" y1="276.525" x2="227.368" y2="216.852" gradientUnits="userSpaceOnUse">
<stop stop-color="#000D16"/>
<stop offset="0.35" stop-color="#00121F"/>
<stop offset="0.91" stop-color="#011F36"/>
<stop offset="1" stop-color="#01213B"/>
</linearGradient>
<linearGradient id="paint119_linear" x1="258.342" y1="262.021" x2="248.162" y2="219.589" gradientUnits="userSpaceOnUse">
<stop stop-color="#BDBDBD"/>
<stop offset="1" stop-color="#EEEEEE"/>
</linearGradient>
<linearGradient id="paint120_linear" x1="348.839" y1="150.689" x2="360.99" y2="221.763" gradientUnits="userSpaceOnUse">
<stop stop-color="#EEEEEE"/>
<stop offset="0.53125" stop-color="#BDBDBD"/>
<stop offset="1" stop-color="#BDBDBD"/>
</linearGradient>
<linearGradient id="paint121_linear" x1="432.596" y1="191.532" x2="396.411" y2="216.668" gradientUnits="userSpaceOnUse">
<stop stop-color="#BDBDBD"/>
<stop offset="1" stop-color="#EEEEEE"/>
</linearGradient>
<linearGradient id="paint122_linear" x1="406.421" y1="182.195" x2="311.619" y2="119.144" gradientUnits="userSpaceOnUse">
<stop stop-color="#000D16"/>
<stop offset="0.35" stop-color="#00121F"/>
<stop offset="0.91" stop-color="#011F36"/>
<stop offset="1" stop-color="#01213B"/>
</linearGradient>
<linearGradient id="paint123_linear" x1="352.341" y1="169.347" x2="336.372" y2="120.385" gradientUnits="userSpaceOnUse">
<stop stop-color="#BDBDBD"/>
<stop offset="1" stop-color="#EEEEEE"/>
</linearGradient>
</defs>
</svg>
