<svg width="18" height="18" viewBox="0 0 18 18" fill="none" xmlns="http://www.w3.org/2000/svg">
<path d="M17.236 7.35443H16.5601V7.31998H9.0001V10.68H13.7481C13.0541 12.6356 11.1936 14.04 9.0001 14.04C6.21596 14.04 3.9601 11.7841 3.9601 8.99998C3.9601 6.21584 6.21596 3.95998 9.0001 3.95998C10.2847 3.95998 11.4545 4.44396 12.3437 5.23638L14.7193 2.86076C13.2198 1.46294 11.2133 0.599976 9.0001 0.599976C4.36041 0.599976 0.600098 4.36029 0.600098 8.99998C0.600098 13.6397 4.36041 17.4 9.0001 17.4C13.6398 17.4 17.4001 13.6397 17.4001 8.99998C17.4001 8.43724 17.3427 7.88763 17.236 7.35443Z" fill="#FFC107"/>
<path d="M1.56787 5.09037L4.32904 7.1149C5.07553 5.26591 6.8835 3.95998 8.9999 3.95998C10.2845 3.95998 11.4543 4.44396 12.3435 5.23638L14.7191 2.86076C13.2196 1.46294 11.2131 0.599976 8.9999 0.599976C5.77279 0.599976 2.97553 2.42107 1.56787 5.09037Z" fill="#FF3D00"/>
<path d="M8.99896 17.4C11.1679 17.4 13.1399 16.5699 14.6312 15.2196L12.0308 13.0196C11.1876 13.6578 10.1392 14.04 8.99896 14.04C6.81365 14.04 4.95975 12.6471 4.26084 10.703L1.521 12.8128C2.9106 15.533 5.73412 17.4 8.99896 17.4Z" fill="#4CAF50"/>
<path d="M17.2359 7.35452H16.56V7.32007H9V10.6801H13.748C13.4149 11.6201 12.8095 12.429 12.0302 13.0196C12.0319 13.0196 12.0319 13.0196 12.0319 13.0196L14.6323 15.2197C14.4485 15.3854 17.4 13.2001 17.4 9.00007C17.4 8.43733 17.3426 7.88772 17.2359 7.35452Z" fill="#1976D2"/>
</svg>
