<svg width="20" height="20" viewBox="0 0 20 20" fill="none" xmlns="http://www.w3.org/2000/svg">
<path d="M17.3529 6.6273C16.9764 2.84891 13.8153 0 10.0005 0C5.92496 0 2.60938 3.31555 2.60938 7.39109C2.60938 9.00195 3.11551 10.5287 4.07379 11.8076L9.45957 19.7121C9.58101 19.8921 9.78351 20 10.0005 20C10.2174 20 10.4199 19.8921 10.5414 19.7121L15.9123 11.8271C17.0286 10.345 17.5401 8.49805 17.3529 6.6273ZM10.0005 10.6519C8.20242 10.6519 6.73973 9.18922 6.73973 7.39113C6.73973 5.59305 8.20238 4.13035 10.0005 4.13035C11.7986 4.13035 13.2613 5.59305 13.2613 7.39113C13.2613 9.18922 11.7986 10.6519 10.0005 10.6519Z" fill="#5F5F5F"/>
</svg>
