<svg width="404" height="312" viewBox="0 0 404 312" fill="none" xmlns="http://www.w3.org/2000/svg">
<path fill-rule="evenodd" clip-rule="evenodd" d="M352.4 169.033L272.846 312L185.411 260.695L185.704 164.336L352.4 169.033Z" fill="url(#paint0_linear)"/>
<path fill-rule="evenodd" clip-rule="evenodd" d="M360.014 164.311L359.713 260.695L272.846 312L273.122 215.615L360.014 164.311Z" fill="url(#paint1_linear)"/>
<path fill-rule="evenodd" clip-rule="evenodd" d="M360.014 164.311L273.122 215.616L185.704 164.336L272.579 113.015L360.014 164.311Z" fill="url(#paint2_linear)"/>
<path fill-rule="evenodd" clip-rule="evenodd" d="M360.014 164.311L273.122 215.616L185.704 164.336L272.579 113.015L360.014 164.311Z" fill="url(#paint3_linear)"/>
<path d="M255.329 71.5433L201.138 85.5605C196.534 86.7515 195.521 90.4868 198.876 93.9034L274.803 171.234C278.158 174.651 284.61 176.455 289.214 175.264L343.405 161.247C348.009 160.056 349.022 156.321 345.668 152.904L269.74 75.5732C266.385 72.1566 259.933 70.3523 255.329 71.5433Z" fill="url(#paint4_linear)"/>
<path d="M205.105 92.2564L215.753 103.078L274.139 88.0095L263.49 77.1882C262.647 76.3364 261.036 75.8861 259.883 76.1803L253.044 77.9455C252.149 78.1826 251.775 78.8168 252.113 79.5234L252.896 81.1434C253.567 82.5536 252.812 83.8168 251.019 84.2838L223.661 91.3444C221.861 91.8047 219.429 91.364 217.615 90.2489L215.538 88.9626C214.631 88.403 213.413 88.1798 212.508 88.4071L205.668 90.1722C204.521 90.4718 204.269 91.4029 205.105 92.2564Z" fill="url(#paint5_linear)"/>
<path d="M215.606 102.927L281.169 169.552C282.011 170.404 283.622 170.854 284.775 170.56L338.99 156.568C340.138 156.268 340.39 155.337 339.554 154.483L273.991 87.8583L215.606 102.927Z" fill="url(#paint6_linear)"/>
<path fill-rule="evenodd" clip-rule="evenodd" d="M312.179 94.0679L298.56 123.111L277.349 119.424L274.529 102.946L312.179 94.0679Z" fill="url(#paint7_linear)"/>
<path fill-rule="evenodd" clip-rule="evenodd" d="M313.752 92.8221L316.571 109.305L298.561 123.114L295.736 106.633L313.752 92.8221Z" fill="url(#paint8_linear)"/>
<path fill-rule="evenodd" clip-rule="evenodd" d="M313.751 92.8191L295.736 106.63L274.53 102.946L292.541 89.1337L313.751 92.8191Z" fill="url(#paint9_linear)"/>
<path fill-rule="evenodd" clip-rule="evenodd" d="M399.144 100.63L385.877 126.888L366.525 122.92L364.38 107.731L399.144 100.63Z" fill="url(#paint10_linear)"/>
<path fill-rule="evenodd" clip-rule="evenodd" d="M400.619 99.5306L402.763 114.724L385.877 126.89L383.728 111.697L400.619 99.5306Z" fill="url(#paint11_linear)"/>
<path fill-rule="evenodd" clip-rule="evenodd" d="M400.619 99.5283L383.728 111.695L364.38 107.731L381.267 95.562L400.619 99.5283Z" fill="url(#paint12_linear)"/>
<path fill-rule="evenodd" clip-rule="evenodd" d="M372.823 43.2151L340.231 65.1043L320.12 47.4848L327.463 28.2421L372.823 43.2151Z" fill="url(#paint13_linear)"/>
<path fill-rule="evenodd" clip-rule="evenodd" d="M375.267 42.9119L367.92 62.159L340.231 65.1043L347.571 45.8552L375.267 42.9119Z" fill="url(#paint14_linear)"/>
<path fill-rule="evenodd" clip-rule="evenodd" d="M375.266 42.9121L347.571 45.8554L327.463 28.2423L355.155 25.2942L375.266 42.9121Z" fill="url(#paint15_linear)"/>
<path d="M388.976 43.321L391.637 37.5898L394.299 31.8586L383.04 26.4056" stroke="black" stroke-width="2.04124"/>
<path d="M388.976 43.321L391.637 37.5898L394.299 31.8586L383.04 26.4056" stroke="url(#paint16_linear)" stroke-width="2.04124"/>
<path d="M356.908 83.0065L362.411 85.9882L367.913 88.9699L373.782 77.7859" stroke="black" stroke-width="2.04124"/>
<path d="M356.908 83.0065L362.411 85.9882L367.913 88.9699L373.782 77.7859" stroke="url(#paint17_linear)" stroke-width="2.04124"/>
<path d="M321.354 15.2434L323.91 9.46284L326.465 3.68225L337.842 8.87677" stroke="black" stroke-width="2.04124"/>
<path d="M321.354 15.2434L323.91 9.46284L326.465 3.68225L337.842 8.87677" stroke="url(#paint18_linear)" stroke-width="2.04124"/>
<path d="M312.883 62.5135L307.352 59.5857L301.821 56.658L307.583 45.4171" stroke="black" stroke-width="2.04124"/>
<path d="M312.883 62.5135L307.352 59.5857L301.821 56.658L307.583 45.4171" stroke="url(#paint19_linear)" stroke-width="2.04124"/>
<path d="M91.0215 54.7799L38.2229 68.2995C35.6843 68.9496 32.3354 67.7644 30.7427 65.6524L3.27145 29.2237C1.67877 27.1117 2.44555 24.8727 4.98412 24.2227L57.7828 10.7031C60.3213 10.0531 63.6702 11.2382 65.2629 13.3502L92.7342 49.7789C94.3269 51.8909 93.5601 54.1299 91.0215 54.7799Z" fill="url(#paint20_linear)" fill-opacity="0.5"/>
<path d="M83.9636 52.2827L39.7857 63.6143C37.6617 64.1591 34.8607 63.1674 33.5297 61.3994L10.5707 30.9017C9.2397 29.1336 9.88256 27.2586 12.0066 26.7138L56.1844 15.3821C58.3084 14.8373 61.1094 15.829 62.4404 17.5971L85.3994 48.0948C86.7304 49.8628 86.0876 51.7379 83.9636 52.2827Z" fill="url(#paint21_linear)"/>
<path d="M64.9503 57.1596L39.7864 63.6142C37.662 64.1591 34.8605 63.1681 33.5293 61.3998L29.7657 56.4003L31.2871 48.3027C31.7878 45.6284 35.7098 44.6224 39.4247 46.2154L46.4286 49.2188L64.9503 57.1596Z" fill="url(#paint22_linear)"/>
<path d="M79.3493 40.0557L85.4012 48.0948C86.7325 49.8632 86.0884 51.7379 83.964 52.2828L43.924 62.5531L46.4297 49.2187L49.5065 32.836C50.0082 30.163 53.9316 29.1566 57.6441 30.7487L79.3493 40.0557Z" fill="url(#paint23_linear)"/>
<path d="M30.8356 36.5249C33.8477 35.7523 34.7593 33.0933 32.8717 30.586C30.9842 28.0786 27.0122 26.6723 24.0001 27.4449C20.9879 28.2175 20.0763 30.8765 21.9639 33.3838C23.8515 35.8912 27.8234 37.2975 30.8356 36.5249Z" fill="url(#paint24_linear)" fill-opacity="0.2"/>
<path d="M137.318 107.188L102.017 133.945C100.32 135.232 97.4578 135.402 95.6246 134.325L64.0054 115.75C62.1723 114.673 62.0622 112.757 63.7594 111.471L99.0605 84.7139C100.758 83.4275 103.62 83.2576 105.453 84.3345L137.072 102.909C138.905 103.986 139.015 105.902 137.318 107.188Z" fill="url(#paint25_linear)" fill-opacity="0.5"/>
<path d="M131.321 107.537L101.776 129.932C100.355 131.008 97.9599 131.151 96.4257 130.249L69.9618 114.703C68.4276 113.802 68.3354 112.198 69.7559 111.122L99.3015 88.7273C100.722 87.6507 103.117 87.5084 104.652 88.4097L131.115 103.956C132.65 104.857 132.742 106.461 131.321 107.537Z" fill="url(#paint26_linear)"/>
<path d="M118.606 117.175L101.776 129.931C100.356 131.008 97.9601 131.151 96.4257 130.25L92.0875 127.701L90.7519 121.172C90.3094 119.016 92.9324 117.028 96.1941 117.047L102.344 117.082L118.606 117.175Z" fill="url(#paint27_linear)"/>
<path d="M124.14 99.858L131.116 103.956C132.65 104.857 132.741 106.461 131.321 107.538L104.543 127.835L102.343 117.083L99.6403 103.873C99.199 101.718 101.823 99.729 105.083 99.748L124.14 99.858Z" fill="url(#paint28_linear)"/>
<path d="M86.8187 112.515C88.8332 110.988 88.7025 108.714 86.5267 107.436C84.351 106.158 80.9542 106.36 78.9397 107.887C76.9253 109.414 77.056 111.687 79.2317 112.966C81.4075 114.244 84.8043 114.042 86.8187 112.515Z" fill="url(#paint29_linear)" fill-opacity="0.2"/>
<path d="M209.332 119.692L187.054 138.28C185.983 139.174 184.117 139.373 182.886 138.726L161.655 127.561C160.425 126.914 160.295 125.665 161.366 124.771L183.644 106.183C184.715 105.289 186.581 105.09 187.812 105.737L209.042 116.902C210.273 117.549 210.403 118.798 209.332 119.692Z" fill="url(#paint30_linear)" fill-opacity="0.5"/>
<path d="M205.421 120.106L186.776 135.663C185.879 136.411 184.318 136.578 183.287 136.037L165.518 126.692C164.488 126.15 164.38 125.105 165.276 124.357L183.922 108.8C184.818 108.052 186.38 107.884 187.41 108.426L205.179 117.771C206.209 118.312 206.318 119.358 205.421 120.106Z" fill="url(#paint31_linear)"/>
<path d="M197.397 126.802L186.776 135.663C185.88 136.411 184.318 136.579 183.287 136.037L180.374 134.505L179.305 130.278C178.951 128.882 180.607 127.501 182.74 127.412L186.762 127.245L197.397 126.802Z" fill="url(#paint32_linear)"/>
<path d="M200.496 115.307L205.18 117.77C206.21 118.312 206.318 119.358 205.421 120.106L188.522 134.206L186.762 127.245L184.598 118.692C184.245 117.296 185.901 115.915 188.032 115.826L200.496 115.307Z" fill="url(#paint33_linear)"/>
<path d="M176.474 124.739C177.745 123.679 177.592 122.196 176.131 121.428C174.67 120.66 172.455 120.897 171.184 121.957C169.912 123.018 170.066 124.501 171.527 125.269C172.988 126.037 175.203 125.8 176.474 124.739Z" fill="url(#paint34_linear)" fill-opacity="0.2"/>
<defs>
<linearGradient id="paint0_linear" x1="268.906" y1="164.336" x2="268.943" y2="360.31" gradientUnits="userSpaceOnUse">
<stop stop-color="#EEEEEE"/>
<stop offset="0.53125" stop-color="#BDBDBD"/>
<stop offset="1" stop-color="#BDBDBD"/>
</linearGradient>
<linearGradient id="paint1_linear" x1="468.288" y1="312.08" x2="370.578" y2="360.704" gradientUnits="userSpaceOnUse">
<stop stop-color="#BDBDBD"/>
<stop offset="1" stop-color="#EEEEEE"/>
</linearGradient>
<linearGradient id="paint2_linear" x1="405.138" y1="275.091" x2="166.853" y2="83.6269" gradientUnits="userSpaceOnUse">
<stop stop-color="#000D16"/>
<stop offset="0.35" stop-color="#00121F"/>
<stop offset="0.91" stop-color="#011F36"/>
<stop offset="1" stop-color="#01213B"/>
</linearGradient>
<linearGradient id="paint3_linear" x1="273.082" y1="215.927" x2="250.6" y2="76.5695" gradientUnits="userSpaceOnUse">
<stop stop-color="#BDBDBD"/>
<stop offset="1" stop-color="#EEEEEE"/>
</linearGradient>
<linearGradient id="paint4_linear" x1="159.857" y1="53.9894" x2="270.269" y2="212.115" gradientUnits="userSpaceOnUse">
<stop stop-color="#BDBDBD"/>
<stop offset="1" stop-color="#5F5F5F"/>
</linearGradient>
<linearGradient id="paint5_linear" x1="341.076" y1="156.029" x2="303.021" y2="193.017" gradientUnits="userSpaceOnUse">
<stop stop-color="#278EDB"/>
<stop offset="0.294647" stop-color="#55BDDE"/>
<stop offset="0.762033" stop-color="#2FDC9D"/>
<stop offset="1" stop-color="#06D48A"/>
</linearGradient>
<linearGradient id="paint6_linear" x1="341.076" y1="156.029" x2="303.021" y2="193.017" gradientUnits="userSpaceOnUse">
<stop stop-color="#278EDB"/>
<stop offset="0.294647" stop-color="#55BDDE"/>
<stop offset="0.762033" stop-color="#2FDC9D"/>
<stop offset="1" stop-color="#06D48A"/>
</linearGradient>
<linearGradient id="paint7_linear" x1="311.742" y1="93.8275" x2="315.53" y2="129.839" gradientUnits="userSpaceOnUse">
<stop stop-color="#EEEEEE"/>
<stop offset="0.385417" stop-color="#BDBDBD"/>
<stop offset="1" stop-color="#868585"/>
</linearGradient>
<linearGradient id="paint8_linear" x1="303.945" y1="95.3532" x2="312.422" y2="128.164" gradientUnits="userSpaceOnUse">
<stop stop-color="#EEEEEE"/>
<stop offset="0.53125" stop-color="#BDBDBD"/>
<stop offset="1" stop-color="#868585"/>
</linearGradient>
<linearGradient id="paint9_linear" x1="311.877" y1="84.4805" x2="315.749" y2="109.396" gradientUnits="userSpaceOnUse">
<stop stop-color="#EEEEEE"/>
<stop offset="0.385417" stop-color="#BDBDBD"/>
<stop offset="1" stop-color="#868585"/>
</linearGradient>
<linearGradient id="paint10_linear" x1="398.75" y1="100.398" x2="401.228" y2="133.529" gradientUnits="userSpaceOnUse">
<stop stop-color="#EEEEEE"/>
<stop offset="0.385417" stop-color="#BDBDBD"/>
<stop offset="1" stop-color="#868585"/>
</linearGradient>
<linearGradient id="paint11_linear" x1="400.499" y1="100" x2="398.598" y2="132.574" gradientUnits="userSpaceOnUse">
<stop stop-color="#EEEEEE"/>
<stop offset="0.385417" stop-color="#BDBDBD"/>
<stop offset="1" stop-color="#868585"/>
</linearGradient>
<linearGradient id="paint12_linear" x1="399.124" y1="91.8296" x2="401.987" y2="114.788" gradientUnits="userSpaceOnUse">
<stop stop-color="#EEEEEE"/>
<stop offset="0.385417" stop-color="#BDBDBD"/>
<stop offset="1" stop-color="#868585"/>
</linearGradient>
<linearGradient id="paint13_linear" x1="372.511" y1="42.6781" x2="353.323" y2="82.8943" gradientUnits="userSpaceOnUse">
<stop stop-color="#EEEEEE"/>
<stop offset="0.385417" stop-color="#BDBDBD"/>
<stop offset="1" stop-color="#868585"/>
</linearGradient>
<linearGradient id="paint14_linear" x1="363.314" y1="39.2427" x2="351.058" y2="79.2066" gradientUnits="userSpaceOnUse">
<stop stop-color="#EEEEEE"/>
<stop offset="0.53125" stop-color="#BDBDBD"/>
<stop offset="1" stop-color="#868585"/>
</linearGradient>
<linearGradient id="paint15_linear" x1="378.509" y1="32.8852" x2="366.531" y2="61.5347" gradientUnits="userSpaceOnUse">
<stop stop-color="#EEEEEE"/>
<stop offset="0.385417" stop-color="#BDBDBD"/>
<stop offset="1" stop-color="#868585"/>
</linearGradient>
<linearGradient id="paint16_linear" x1="378.226" y1="38.148" x2="388.367" y2="26.6945" gradientUnits="userSpaceOnUse">
<stop stop-color="#3991D3"/>
<stop offset="0.229167" stop-color="#5FB2CB"/>
<stop offset="0.671875" stop-color="#6BCFA3"/>
<stop offset="0.998141" stop-color="#88C378"/>
</linearGradient>
<linearGradient id="paint17_linear" x1="362.478" y1="72.3266" x2="373.623" y2="82.7953" gradientUnits="userSpaceOnUse">
<stop stop-color="#3991D3"/>
<stop offset="0.229167" stop-color="#5FB2CB"/>
<stop offset="0.671875" stop-color="#6BCFA3"/>
<stop offset="0.998141" stop-color="#88C378"/>
</linearGradient>
<linearGradient id="paint18_linear" x1="332.191" y1="20.2248" x2="334.531" y2="4.98822" gradientUnits="userSpaceOnUse">
<stop stop-color="#3991D3"/>
<stop offset="0.229167" stop-color="#5FB2CB"/>
<stop offset="0.671875" stop-color="#6BCFA3"/>
<stop offset="0.998141" stop-color="#88C378"/>
</linearGradient>
<linearGradient id="paint19_linear" x1="318.404" y1="51.8075" x2="303.536" y2="48.7202" gradientUnits="userSpaceOnUse">
<stop stop-color="#3991D3"/>
<stop offset="0.229167" stop-color="#5FB2CB"/>
<stop offset="0.671875" stop-color="#6BCFA3"/>
<stop offset="0.998141" stop-color="#88C378"/>
</linearGradient>
<linearGradient id="paint20_linear" x1="49.7753" y1="-6.99827" x2="56.9748" y2="65.9624" gradientUnits="userSpaceOnUse">
<stop stop-color="#BDBDBD"/>
<stop offset="1" stop-color="#5F5F5F"/>
</linearGradient>
<linearGradient id="paint21_linear" x1="61.8924" y1="58.0775" x2="59.0307" y2="4.72984" gradientUnits="userSpaceOnUse">
<stop stop-color="#BDBDBD"/>
<stop offset="0.520833" stop-color="white"/>
<stop offset="1" stop-color="#EEEEEE"/>
</linearGradient>
<linearGradient id="paint22_linear" x1="35.9392" y1="64.601" x2="57.8514" y2="47.4805" gradientUnits="userSpaceOnUse">
<stop stop-color="#278EDB"/>
<stop offset="0.294647" stop-color="#55BDDE"/>
<stop offset="0.762033" stop-color="#2FDC9D"/>
<stop offset="1" stop-color="#06D48A"/>
</linearGradient>
<linearGradient id="paint23_linear" x1="43.924" y1="62.5531" x2="77.0922" y2="36.6645" gradientUnits="userSpaceOnUse">
<stop stop-color="#278EDB"/>
<stop offset="0.294647" stop-color="#55BDDE"/>
<stop offset="0.762033" stop-color="#2FDC9D"/>
<stop offset="1" stop-color="#06D48A"/>
</linearGradient>
<linearGradient id="paint24_linear" x1="25.9035" y1="37.8158" x2="25.6648" y2="26.1738" gradientUnits="userSpaceOnUse">
<stop stop-color="#3991D3"/>
<stop offset="0.229167" stop-color="#5FB2CB"/>
<stop offset="0.671875" stop-color="#6BCFA3"/>
<stop offset="0.998141" stop-color="#88C378"/>
</linearGradient>
<linearGradient id="paint25_linear" x1="87.6844" y1="74.0039" x2="115.898" y2="125.963" gradientUnits="userSpaceOnUse">
<stop stop-color="#BDBDBD"/>
<stop offset="1" stop-color="#5F5F5F"/>
</linearGradient>
<linearGradient id="paint26_linear" x1="116.601" y1="118.825" x2="97.7567" y2="80.0754" gradientUnits="userSpaceOnUse">
<stop stop-color="#BDBDBD"/>
<stop offset="0.520833" stop-color="white"/>
<stop offset="1" stop-color="#EEEEEE"/>
</linearGradient>
<linearGradient id="paint27_linear" x1="99.2035" y1="131.881" x2="110.311" y2="112.162" gradientUnits="userSpaceOnUse">
<stop stop-color="#278EDB"/>
<stop offset="0.294647" stop-color="#55BDDE"/>
<stop offset="0.762033" stop-color="#2FDC9D"/>
<stop offset="1" stop-color="#06D48A"/>
</linearGradient>
<linearGradient id="paint28_linear" x1="104.543" y1="127.835" x2="121.364" y2="98.0054" gradientUnits="userSpaceOnUse">
<stop stop-color="#278EDB"/>
<stop offset="0.294647" stop-color="#55BDDE"/>
<stop offset="0.762033" stop-color="#2FDC9D"/>
<stop offset="1" stop-color="#06D48A"/>
</linearGradient>
<linearGradient id="paint29_linear" x1="83.5281" y1="115.035" x2="79.6995" y2="106.455" gradientUnits="userSpaceOnUse">
<stop stop-color="#3991D3"/>
<stop offset="0.229167" stop-color="#5FB2CB"/>
<stop offset="0.671875" stop-color="#6BCFA3"/>
<stop offset="0.998141" stop-color="#88C378"/>
</linearGradient>
<linearGradient id="paint30_linear" x1="175.885" y1="99.5333" x2="195.915" y2="132.616" gradientUnits="userSpaceOnUse">
<stop stop-color="#BDBDBD"/>
<stop offset="1" stop-color="#5F5F5F"/>
</linearGradient>
<linearGradient id="paint31_linear" x1="196.136" y1="127.942" x2="182.631" y2="103.202" gradientUnits="userSpaceOnUse">
<stop stop-color="#BDBDBD"/>
<stop offset="0.520833" stop-color="white"/>
<stop offset="1" stop-color="#EEEEEE"/>
</linearGradient>
<linearGradient id="paint32_linear" x1="185.153" y1="137.018" x2="191.812" y2="123.775" gradientUnits="userSpaceOnUse">
<stop stop-color="#278EDB"/>
<stop offset="0.294647" stop-color="#55BDDE"/>
<stop offset="0.762033" stop-color="#2FDC9D"/>
<stop offset="1" stop-color="#06D48A"/>
</linearGradient>
<linearGradient id="paint33_linear" x1="188.522" y1="134.206" x2="198.609" y2="114.174" gradientUnits="userSpaceOnUse">
<stop stop-color="#278EDB"/>
<stop offset="0.294647" stop-color="#55BDDE"/>
<stop offset="0.762033" stop-color="#2FDC9D"/>
<stop offset="1" stop-color="#06D48A"/>
</linearGradient>
<linearGradient id="paint34_linear" x1="174.398" y1="126.489" x2="171.632" y2="121" gradientUnits="userSpaceOnUse">
<stop stop-color="#3991D3"/>
<stop offset="0.229167" stop-color="#5FB2CB"/>
<stop offset="0.671875" stop-color="#6BCFA3"/>
<stop offset="0.998141" stop-color="#88C378"/>
</linearGradient>
</defs>
</svg>
