<svg id="Layer_1" data-name="Layer 1" xmlns="http://www.w3.org/2000/svg" xmlns:xlink="http://www.w3.org/1999/xlink" viewBox="0 0 360 248"><defs><style>.cls-1{fill:none;}.cls-2{fill:url(#New_Gradient_Swatch_1);}</style><linearGradient id="New_Gradient_Swatch_1" x1="3.5605" y1="123.5601" x2="358.0889" y2="123.5601" gradientUnits="userSpaceOnUse"><stop offset="0" stop-color="#3991d3"/><stop offset="0.2005" stop-color="#60b3cb"/><stop offset="0.368" stop-color="#69c7bf"/><stop offset="0.5711" stop-color="#6bd0a7"/><stop offset="0.7843" stop-color="#6bc187"/><stop offset="1" stop-color="#80c077"/></linearGradient></defs><rect class="cls-1" x="-68" y="-180" width="428" height="428"/><path class="cls-2" d="M160.9824,82.3848c0,44.3164-29.4336,75.7353-84.0029,75.7353h-28.11v75.4033a4.6869,4.6869,0,0,1-4.9609,4.961H8.5215a4.687,4.687,0,0,1-4.961-4.961V11.9424a4.687,4.687,0,0,1,4.961-4.961H76.98C131.5488,6.9814,160.9824,38.3994,160.9824,82.3848Zm-43.3242,0c0-26.7881-20.5049-35.3868-41.6709-35.3868H48.8691v70.7735H75.9873C97.1533,117.7715,117.6582,109.5039,117.6582,82.3848Z"/><path class="cls-2" d="M197.3594,169.6943c0-29.4336,16.8672-51.5918,39.6865-62.1748-15.2129-9.9218-24.8037-26.457-24.8037-44.9775,0-30.7568,25.1348-58.2061,65.4824-58.2061S343.207,31.7852,343.207,62.542c0,18.5205-9.5908,35.0557-24.8047,44.9775,22.82,10.583,39.6866,32.7412,39.6866,62.1748,0,46.3008-40.0166,73.09-80.3643,73.09S197.3594,215.9951,197.3594,169.6943Zm117.4052-1.3222c0-22.8194-17.8583-36.0489-37.04-36.0489s-37.041,13.2295-37.041,36.0489c0,21.497,16.2051,34.7256,37.041,34.7256S314.7646,189.8691,314.7646,168.3721ZM304.8438,64.8564c0-14.5507-11.5752-25.7949-27.1192-25.7949s-27.1191,11.2442-27.1191,25.7949a27.1274,27.1274,0,0,0,54.2383,0Z"/></svg>