<svg width="120" height="120" viewBox="0 0 120 120" fill="none" xmlns="http://www.w3.org/2000/svg">
<circle cx="60" cy="60" r="60" fill="url(#paint0_linear)" fill-opacity="0.2"/>
<circle cx="60" cy="60" r="45" fill="url(#paint1_linear)" fill-opacity="0.4"/>
<circle cx="60" cy="60" r="30" fill="url(#paint2_linear)" fill-opacity="0.6"/>
<path d="M54.7291 56.904H57.9691C57.9931 56.376 58.1611 55.92 58.4731 55.488C58.7611 55.08 59.2651 54.864 59.9851 54.864C60.6571 54.864 61.1371 55.08 61.4491 55.464C61.7611 55.848 61.9291 56.28 61.9291 56.736C61.9291 57.408 61.7131 57.96 61.3051 58.344C60.8731 58.752 60.2971 58.944 59.5771 58.944H58.4971V61.584H59.4811C60.4891 61.584 61.2331 61.824 61.7371 62.28C62.2171 62.76 62.4811 63.36 62.4811 64.104C62.4811 64.92 62.2411 65.568 61.8091 66.048C61.3771 66.528 60.7771 66.768 60.0331 66.768C59.2651 66.768 58.6651 66.552 58.2331 66.12C57.8011 65.688 57.5371 65.088 57.4891 64.368H54.2491C54.2971 65.136 54.4411 65.832 54.6811 66.456C54.9211 67.08 55.3051 67.632 55.7851 68.088C56.2651 68.544 56.8411 68.904 57.5371 69.144C58.2331 69.384 59.0491 69.504 60.0091 69.504C60.9691 69.504 61.8331 69.36 62.5531 69.072C63.2731 68.784 63.8971 68.4 64.3771 67.92C64.8571 67.44 65.2411 66.888 65.4811 66.264C65.7211 65.64 65.8651 64.968 65.8651 64.272C65.8651 63.168 65.5531 62.256 64.9771 61.512C64.4011 60.792 63.6091 60.288 62.6491 60.048V59.976C62.9851 59.88 63.2971 59.736 63.6331 59.52C63.9451 59.328 64.2331 59.064 64.4731 58.752C64.7131 58.464 64.9291 58.104 65.0731 57.72C65.2171 57.336 65.3131 56.904 65.3131 56.424C65.3131 55.8 65.1931 55.224 64.9531 54.696C64.7131 54.168 64.3771 53.712 63.9211 53.328C63.4651 52.944 62.9131 52.656 62.2651 52.44C61.5931 52.224 60.8491 52.104 60.0331 52.104C59.1931 52.104 58.4491 52.224 57.8011 52.464C57.1531 52.704 56.6011 53.04 56.1691 53.472C55.7131 53.904 55.3531 54.432 55.1131 55.008C54.8731 55.584 54.7291 56.232 54.7291 56.904Z" fill="white"/>
<defs>
<linearGradient id="paint0_linear" x1="-3.93853e-07" y1="120" x2="121.576" y2="118.381" gradientUnits="userSpaceOnUse">
<stop stop-color="#278EDB"/>
<stop offset="0.294647" stop-color="#55BDDE"/>
<stop offset="0.762033" stop-color="#2FDC9D"/>
<stop offset="1" stop-color="#06D48A"/>
</linearGradient>
<linearGradient id="paint1_linear" x1="15" y1="60" x2="105" y2="60" gradientUnits="userSpaceOnUse">
<stop stop-color="#3991D3"/>
<stop offset="0.229167" stop-color="#5FB2CB"/>
<stop offset="0.671875" stop-color="#6BCFA3"/>
<stop offset="1" stop-color="#88C378"/>
</linearGradient>
<linearGradient id="paint2_linear" x1="30" y1="90" x2="90.788" y2="89.1907" gradientUnits="userSpaceOnUse">
<stop stop-color="#278EDB"/>
<stop offset="0.294647" stop-color="#55BDDE"/>
<stop offset="0.762033" stop-color="#2FDC9D"/>
<stop offset="1" stop-color="#06D48A"/>
</linearGradient>
</defs>
</svg>
