<svg width="176" height="572" viewBox="0 0 176 572" fill="none" xmlns="http://www.w3.org/2000/svg">
<g opacity="0.4">
<path d="M73.8398 45.4952L152.471 91.0025V89.7642L73.8398 44.2569V45.4952Z" fill="#01213B"/>
<path d="M73.8398 66.2366L152.471 111.434V110.196L73.8398 64.9983V66.2366Z" fill="#01213B"/>
<path d="M73.8398 86.6687L152.471 132.176V130.938L73.8398 85.4304V86.6687Z" fill="#01213B"/>
<path d="M152.471 161.895L73.8398 116.387V103.695L152.471 148.893V161.895Z" fill="#000D16"/>
<path d="M152.471 244.551L73.8398 199.044V116.388L152.471 161.895V244.551Z" fill="url(#paint0_linear)"/>
<path d="M80.9607 141.153V194.09L145.352 231.239V178.302L80.9607 141.153Z" fill="#000D16"/>
<path d="M175.998 506.759L67.9573 568.984V190.685L175.998 128.461V506.759Z" fill="url(#paint1_linear)"/>
<path d="M96.1285 210.188L83.7456 217.308V203.068L96.1285 195.948V210.188Z" fill="#C4C4C4"/>
<path d="M112.228 200.901L99.8447 208.021V193.781L112.228 186.66V200.901Z" fill="#C4C4C4"/>
<path d="M144.423 182.327L132.04 189.447V175.206L144.423 168.086V182.327Z" fill="#C4C4C4"/>
<path d="M160.52 173.039L148.137 180.16V165.919L160.52 158.799V173.039Z" fill="#C4C4C4"/>
<path d="M96.1285 227.215L83.7456 234.335V220.094L96.1285 212.974V227.215Z" fill="#C4C4C4"/>
<path d="M112.228 217.928L99.8447 225.048V210.807L112.228 203.687V217.928Z" fill="#C4C4C4"/>
<path d="M144.423 199.353L132.04 206.473V192.233L144.423 185.113V199.353Z" fill="url(#paint2_linear)"/>
<path d="M160.52 189.756L148.137 197.186V182.946L160.52 175.516V189.756Z" fill="url(#paint3_linear)"/>
<path d="M96.1285 243.931L83.7456 251.052V236.811L96.1285 229.691V243.931Z" fill="#C4C4C4"/>
<path d="M112.228 234.644L99.8447 241.765V227.524L112.228 220.404V234.644Z" fill="#C4C4C4"/>
<path d="M144.423 216.07L132.04 223.19V208.95L144.423 201.83V216.07Z" fill="#C4C4C4"/>
<path d="M160.52 206.783L148.137 213.903V199.663L160.52 192.542V206.783Z" fill="#C4C4C4"/>
<path d="M96.1285 260.958L83.7456 268.078V253.838L96.1285 246.718V260.958Z" fill="#C4C4C4"/>
<path d="M112.228 251.671L99.8447 258.791V244.551L112.228 237.43V251.671Z" fill="#C4C4C4"/>
<path d="M144.423 232.787L132.04 240.217V225.976L144.423 218.547V232.787Z" fill="url(#paint4_linear)"/>
<path d="M160.52 223.5L148.137 230.93V216.689L160.52 209.26V223.5Z" fill="url(#paint5_linear)"/>
<path d="M96.1285 277.675L83.7456 284.795V270.555L96.1285 263.434V277.675Z" fill="#C4C4C4"/>
<path d="M112.228 268.388L99.8447 275.508V261.268L112.228 254.148V268.388Z" fill="#C4C4C4"/>
<path d="M144.423 249.813L132.04 256.934V242.693L144.423 235.573V249.813Z" fill="#C4C4C4"/>
<path d="M160.52 240.526L148.137 247.646V233.406L160.52 226.286V240.526Z" fill="#C4C4C4"/>
<path d="M96.1285 294.701L83.7456 301.822V287.581L96.1285 280.461V294.701Z" fill="#C4C4C4"/>
<path d="M112.228 285.415L99.8447 292.535V278.295L112.228 271.174V285.415Z" fill="#C4C4C4"/>
<path d="M144.423 266.84L132.04 273.96V259.72L144.423 252.29V266.84Z" fill="#C4C4C4"/>
<path d="M160.52 257.243L148.137 264.673V250.433L160.52 243.003V257.243Z" fill="#C4C4C4"/>
<path d="M96.1285 311.419L83.7456 318.849V304.608L96.1285 297.179V311.419Z" fill="#C4C4C4"/>
<path d="M112.228 302.131L99.8447 309.252V295.011L112.228 287.891V302.131Z" fill="#C4C4C4"/>
<path d="M144.423 283.557L132.04 290.677V276.437L144.423 269.317V283.557Z" fill="#C4C4C4"/>
<path d="M160.52 274.27L148.137 281.391V267.15L160.52 260.03V274.27Z" fill="#C4C4C4"/>
<path d="M96.1285 328.445L83.7456 335.565V321.325L96.1285 314.205V328.445Z" fill="url(#paint6_linear)"/>
<path d="M112.228 319.158L99.8447 326.278V312.037L112.228 304.917V319.158Z" fill="#C4C4C4"/>
<path d="M144.423 300.584L132.04 307.704V293.463L144.423 286.343V300.584Z" fill="#C4C4C4"/>
<path d="M160.52 290.987L148.137 298.417V284.177L160.52 277.056V290.987Z" fill="#C4C4C4"/>
<path d="M96.1285 345.162L83.7456 352.592V338.042L96.1285 330.922V345.162Z" fill="#C4C4C4"/>
<path d="M112.228 335.875L99.8447 343.304V328.754L112.228 321.634V335.875Z" fill="#C4C4C4"/>
<path d="M144.423 317.301L132.04 324.421V310.181L144.423 303.061V317.301Z" fill="#C4C4C4"/>
<path d="M160.52 308.014L148.137 315.134V300.894L160.52 293.773V308.014Z" fill="#C4C4C4"/>
<path d="M96.1285 362.189L83.7456 369.309V355.069L96.1285 347.949V362.189Z" fill="#C4C4C4"/>
<path d="M112.228 352.901L99.8447 360.022V345.781L112.228 338.661V352.901Z" fill="#C4C4C4"/>
<path d="M144.423 334.327L132.04 341.448V327.207L144.423 320.087V334.327Z" fill="#C4C4C4"/>
<path d="M160.52 325.04L148.137 332.16V317.92L160.52 310.8V325.04Z" fill="#C4C4C4"/>
<path d="M96.1285 378.905L83.7456 386.335V371.785L96.1285 364.665V378.905Z" fill="#C4C4C4"/>
<path d="M112.228 369.618L99.8447 377.048V362.498L112.228 355.378V369.618Z" fill="#C4C4C4"/>
<path d="M144.423 351.044L132.04 358.164V343.924L144.423 336.803V351.044Z" fill="#C4C4C4"/>
<path d="M160.52 341.757L148.137 348.877V334.637L160.52 327.516V341.757Z" fill="#FF8384"/>
<path d="M160.52 341.757L148.137 348.877V334.637L160.52 327.516V341.757Z" fill="url(#paint7_linear)"/>
<path d="M160.52 341.757L148.137 348.877V334.637L160.52 327.516V341.757Z" fill="url(#paint8_linear)"/>
<path d="M96.1285 395.932L83.7456 403.052V388.812L96.1285 381.691V395.932Z" fill="#C4C4C4"/>
<path d="M112.228 386.645L99.8447 393.765V379.525L112.228 372.404V386.645Z" fill="#C4C4C4"/>
<path d="M144.423 368.07L132.04 375.191V360.95L144.423 353.83V368.07Z" fill="#C4C4C4"/>
<path d="M160.52 358.783L148.137 365.903V351.663L160.52 344.233V358.783Z" fill="#C4C4C4"/>
<path d="M96.1285 412.649L83.7456 420.079V405.838L96.1285 398.409V412.649Z" fill="#C4C4C4"/>
<path d="M112.228 403.362L99.8447 410.482V396.241L112.228 389.121V403.362Z" fill="#C4C4C4"/>
<path d="M144.423 384.787L132.04 391.907V377.667L144.423 370.547V384.787Z" fill="url(#paint9_linear)"/>
<path d="M160.52 375.5L148.137 382.62V368.38L160.52 361.26V375.5Z" fill="#C4C4C4"/>
<path d="M96.1285 429.676L83.7456 436.796V422.555L96.1285 415.435V429.676Z" fill="#C4C4C4"/>
<path d="M112.228 420.388L99.8447 427.508V413.268L112.228 406.148V420.388Z" fill="url(#paint10_linear)"/>
<path d="M144.423 401.814L132.04 408.934V394.694L144.423 387.574V401.814Z" fill="#C4C4C4"/>
<path d="M160.52 392.527L148.137 399.647V385.407L160.52 377.977V392.527Z" fill="#C4C4C4"/>
<path d="M96.1285 446.392L83.7456 453.822V439.582L96.1285 432.152V446.392Z" fill="#C4C4C4"/>
<path d="M112.228 437.105L99.8447 444.535V430.295L112.228 422.865V437.105Z" fill="#C4C4C4"/>
<path d="M144.423 418.531L132.04 425.651V411.411L144.423 404.291V418.531Z" fill="#C4C4C4"/>
<path d="M160.52 409.244L148.137 416.364V402.124L160.52 395.004V409.244Z" fill="#C4C4C4"/>
<path d="M96.1285 463.419L83.7456 470.539V456.299L96.1285 449.178V463.419Z" fill="url(#paint11_linear)"/>
<path d="M112.228 454.132L99.8447 461.252V447.012L112.228 439.892V454.132Z" fill="#C4C4C4"/>
<path d="M144.423 435.558L132.04 442.678V428.438L144.423 421.317V435.558Z" fill="url(#paint12_linear)"/>
<path d="M160.52 426.27L148.137 433.391V419.15L160.52 412.03V426.27Z" fill="#C4C4C4"/>
<path d="M96.1285 480.136L83.7456 487.566V473.326L96.1285 465.896V480.136Z" fill="#C4C4C4"/>
<path d="M112.228 470.849L99.8447 478.279V464.039L112.228 456.609V470.849Z" fill="#C4C4C4"/>
<path d="M144.423 452.274L132.04 459.394V445.154L144.423 438.034V452.274Z" fill="#C4C4C4"/>
<path d="M160.52 442.987L148.137 450.107V435.867L160.52 428.747V442.987Z" fill="#C4C4C4"/>
<path d="M96.1285 497.163L83.7456 504.283V490.043L96.1285 482.923V497.163Z" fill="#C4C4C4"/>
<path d="M112.228 487.875L99.8447 494.996V480.755L112.228 473.635V487.875Z" fill="#C4C4C4"/>
<path d="M144.423 469.301L132.04 476.421V462.181L144.423 455.061V469.301Z" fill="#C4C4C4"/>
<path d="M160.52 460.014L148.137 467.134V452.894L160.52 445.774V460.014Z" fill="#C4C4C4"/>
<path d="M96.1285 513.879L83.7456 521.309V507.069L96.1285 499.949V513.879Z" fill="#C4C4C4"/>
<path d="M112.228 504.593L99.8447 512.022V497.782L112.228 490.352V504.593Z" fill="#FF8384"/>
<path d="M112.228 504.593L99.8447 512.022V497.782L112.228 490.352V504.593Z" fill="url(#paint13_linear)"/>
<path d="M112.228 504.593L99.8447 512.022V497.782L112.228 490.352V504.593Z" fill="url(#paint14_linear)"/>
<path d="M144.423 486.018L132.04 493.139V478.898L144.423 471.778V486.018Z" fill="#C4C4C4"/>
<path d="M160.52 476.731L148.137 483.851V469.611L160.52 462.491V476.731Z" fill="#C4C4C4"/>
<path d="M96.1285 530.906L83.7456 538.026V523.786L96.1285 516.666V530.906Z" fill="#C4C4C4"/>
<path d="M112.228 521.619L99.8447 528.739V514.499L112.228 507.379V521.619Z" fill="#C4C4C4"/>
<path d="M144.423 503.044L132.04 510.164V495.924L144.423 488.804V503.044Z" fill="#C4C4C4"/>
<path d="M160.52 493.758L148.137 500.878V486.638L160.52 479.517V493.758Z" fill="#C4C4C4"/>
<path d="M-40.0825 506.759L67.9586 568.984V190.685L-40.0825 128.461V506.759Z" fill="url(#paint15_linear)"/>
<path d="M40.0962 210.188L52.4791 217.308V203.068L40.0962 195.948V210.188Z" fill="#C4C4C4"/>
<path d="M23.998 200.901L36.381 208.021V193.781L23.998 186.66V200.901Z" fill="#C4C4C4"/>
<path d="M-8.5061 182.327L4.18642 189.447V175.206L-8.5061 168.086V182.327Z" fill="#C4C4C4"/>
<path d="M40.0962 227.215L52.4791 234.335V220.094L40.0962 212.974V227.215Z" fill="#C4C4C4"/>
<path d="M23.998 217.928L36.381 225.048V210.807L23.998 203.687V217.928Z" fill="#C4C4C4"/>
<path d="M-8.5061 199.353L4.18642 206.473V192.233L-8.5061 185.113V199.353Z" fill="#C4C4C4"/>
<path d="M40.0962 243.931L52.4791 251.052V236.811L40.0962 229.691V243.931Z" fill="#FF8384"/>
<path d="M40.0962 243.931L52.4791 251.052V236.811L40.0962 229.691V243.931Z" fill="url(#paint16_linear)"/>
<path d="M40.0962 243.931L52.4791 251.052V236.811L40.0962 229.691V243.931Z" fill="url(#paint17_linear)"/>
<path d="M23.998 234.644L36.381 241.765V227.524L23.998 220.404V234.644Z" fill="#C4C4C4"/>
<path d="M-8.5061 216.07L4.18642 223.19V208.95L-8.5061 201.83V216.07Z" fill="#C4C4C4"/>
<path d="M40.0962 260.958L52.4791 268.078V253.838L40.0962 246.718V260.958Z" fill="#C4C4C4"/>
<path d="M23.998 251.671L36.381 258.791V244.551L23.998 237.43V251.671Z" fill="#C4C4C4"/>
<path d="M-8.5061 232.787L4.18642 240.217V225.976L-8.5061 218.547V232.787Z" fill="#C6C1C1"/>
<path d="M40.0962 277.675L52.4791 284.795V270.555L40.0962 263.434V277.675Z" fill="#C4C4C4"/>
<path d="M23.998 268.388L36.381 275.508V261.268L23.998 254.148V268.388Z" fill="#C4C4C4"/>
<path d="M-8.5061 249.813L4.18642 256.934V242.693L-8.5061 235.573V249.813Z" fill="#C4C4C4"/>
<path d="M40.0962 294.701L52.4791 301.822V287.581L40.0962 280.461V294.701Z" fill="#C4C4C4"/>
<path d="M23.998 285.415L36.381 292.535V278.295L23.998 271.174V285.415Z" fill="#C4C4C4"/>
<path d="M-8.5061 266.84L4.18642 273.96V259.72L-8.5061 252.29V266.84Z" fill="#C4C4C4"/>
<path d="M40.0962 311.419L52.4791 318.849V304.608L40.0962 297.179V311.419Z" fill="#C4C4C4"/>
<path d="M23.998 302.131L36.381 309.252V295.011L23.998 287.891V302.131Z" fill="#C4C4C4"/>
<path d="M-8.5061 283.557L4.18642 290.677V276.437L-8.5061 269.317V283.557Z" fill="#C4C4C4"/>
<path d="M40.0962 328.445L52.4791 335.565V321.325L40.0962 314.205V328.445Z" fill="#C4C4C4"/>
<path d="M23.998 319.158L36.381 326.278V312.037L23.998 304.917V319.158Z" fill="#C4C4C4"/>
<path d="M-8.5061 300.584L4.18642 307.704V293.463L-8.5061 286.343V300.584Z" fill="#C4C4C4"/>
<path d="M40.0962 345.162L52.4791 352.592V338.042L40.0962 330.922V345.162Z" fill="#C4C4C4"/>
<path d="M23.998 335.875L36.381 343.304V328.754L23.998 321.634V335.875Z" fill="#C4C4C4"/>
<path d="M-8.5061 317.301L4.18642 324.421V310.181L-8.5061 303.061V317.301Z" fill="#C4C4C4"/>
<path d="M40.0962 362.189L52.4791 369.309V355.069L40.0962 347.949V362.189Z" fill="#C4C4C4"/>
<path d="M23.998 352.901L36.381 360.022V345.781L23.998 338.661V352.901Z" fill="#C4C4C4"/>
<path d="M-8.5061 334.327L4.18642 341.448V327.207L-8.5061 320.087V334.327Z" fill="#C4C4C4"/>
<path d="M40.0962 378.905L52.4791 386.335V371.785L40.0962 364.665V378.905Z" fill="#FF8384"/>
<path d="M40.0962 378.905L52.4791 386.335V371.785L40.0962 364.665V378.905Z" fill="url(#paint18_linear)"/>
<path d="M40.0962 378.905L52.4791 386.335V371.785L40.0962 364.665V378.905Z" fill="url(#paint19_linear)"/>
<path d="M23.998 369.618L36.381 377.048V362.498L23.998 355.378V369.618Z" fill="#C4C4C4"/>
<path d="M-8.5061 351.044L4.18642 358.164V343.924L-8.5061 336.803V351.044Z" fill="#C4C4C4"/>
<path d="M40.0962 395.932L52.4791 403.052V388.812L40.0962 381.691V395.932Z" fill="#C4C4C4"/>
<path d="M23.998 386.645L36.381 393.765V379.525L23.998 372.404V386.645Z" fill="#C4C4C4"/>
<path d="M-8.5061 368.07L4.18642 375.191V360.95L-8.5061 353.83V368.07Z" fill="#C4C4C4"/>
<path d="M40.0962 412.649L52.4791 420.079V405.838L40.0962 398.409V412.649Z" fill="#C4C4C4"/>
<path d="M23.998 403.362L36.381 410.482V396.241L23.998 389.121V403.362Z" fill="#C4C4C4"/>
<path d="M-8.5061 384.787L4.18642 391.907V377.667L-8.5061 370.547V384.787Z" fill="#C4C4C4"/>
<path d="M40.0962 429.676L52.4791 436.796V422.555L40.0962 415.435V429.676Z" fill="#C4C4C4"/>
<path d="M23.998 420.388L36.381 427.508V413.268L23.998 406.148V420.388Z" fill="#C4C4C4"/>
<path d="M-8.5061 401.814L4.18642 408.934V394.694L-8.5061 387.574V401.814Z" fill="#C4C4C4"/>
<path d="M40.0962 446.392L52.4791 453.822V439.582L40.0962 432.152V446.392Z" fill="#C4C4C4"/>
<path d="M23.998 437.105L36.381 444.535V430.295L23.998 422.865V437.105Z" fill="#C4C4C4"/>
<path d="M-8.5061 418.531L4.18642 425.651V411.411L-8.5061 404.291V418.531Z" fill="#C4C4C4"/>
<path d="M40.0962 463.419L52.4791 470.539V456.299L40.0962 449.178V463.419Z" fill="#C6C1C1"/>
<path d="M23.998 454.132L36.381 461.252V447.012L23.998 439.892V454.132Z" fill="#C6C1C1"/>
<path d="M-8.5061 435.558L4.18642 442.678V428.438L-8.5061 421.317V435.558Z" fill="#C6C1C1"/>
<path d="M40.0962 480.136L52.4791 487.566V473.326L40.0962 465.896V480.136Z" fill="#C6C1C1"/>
<path d="M23.998 470.849L36.381 478.279V464.039L23.998 456.609V470.849Z" fill="#C6C1C1"/>
<path d="M-8.5061 452.274L4.18642 459.394V445.154L-8.5061 438.034V452.274Z" fill="#C6C1C1"/>
<path d="M40.0962 497.163L52.4791 504.283V490.043L40.0962 482.923V497.163Z" fill="#C6C1C1"/>
<path d="M23.998 487.875L36.381 494.996V480.755L23.998 473.635V487.875Z" fill="#C6C1C1"/>
<path d="M-8.5061 469.301L4.18642 476.421V462.181L-8.5061 455.061V469.301Z" fill="#C6C1C1"/>
<path d="M40.0962 513.879L52.4791 521.309V507.069L40.0962 499.949V513.879Z" fill="#C6C1C1"/>
<path d="M23.998 504.593L36.381 512.022V497.782L23.998 490.352V504.593Z" fill="#C6C1C1"/>
<path d="M-8.5061 486.018L4.18642 493.139V478.898L-8.5061 471.778V486.018Z" fill="#C6C1C1"/>
<path d="M40.0962 530.906L52.4791 538.026V523.786L40.0962 516.666V530.906Z" fill="#C6C1C1"/>
<path d="M23.998 521.619L36.381 528.739V514.499L23.998 507.379V521.619Z" fill="#C6C1C1"/>
<path d="M-8.5061 503.044L4.18642 510.164V495.924L-8.5061 488.804V503.044Z" fill="#C6C1C1"/>
<path d="M175.998 103.386L67.9573 165.92V190.685L175.998 128.461V103.386Z" fill="#01213B"/>
<path d="M175.998 103.386L67.9573 165.92V190.685L175.998 128.461V103.386Z" fill="#B5B0B0"/>
<path d="M-40.0825 103.386L67.9586 165.92V190.685L-40.0825 128.461V103.386Z" fill="#9E9E9E"/>
<path d="M175.998 506.759L67.9573 568.983V571.769L175.998 509.545V506.759Z" fill="#9E9E9E"/>
<path d="M-40.0825 506.759L67.9586 568.983V571.769L-40.0825 509.545V506.759Z" fill="#9E9E9E"/>
<path d="M-40.0825 103.385L67.9585 40.8514L176 103.385L67.9585 165.919L-40.0825 103.385Z" fill="#BDBDBD"/>
<path d="M67.958 58.8069L145.042 102.457L68.2676 146.726L-9.12573 103.385L67.958 58.8069Z" fill="url(#paint20_linear)"/>
<path d="M-9.12573 96.5745V103.385L67.958 58.8065V51.9959L-9.12573 96.5745Z" fill="#9E9E9E"/>
<path d="M-12.8411 96.5749V103.385L67.9575 149.202V142.392L-12.8411 96.5749Z" fill="url(#paint21_linear)"/>
<path d="M67.9573 51.9959V58.8065L145.041 102.456V95.6457L67.9573 51.9959Z" fill="#BDBDBD"/>
<path d="M67.9573 142.392V149.203L148.756 102.457V95.6463L67.9573 142.392Z" fill="url(#paint22_linear)"/>
<path d="M67.9573 142.392V140.225L145.041 95.6463H148.756L67.9573 142.392Z" fill="url(#paint23_linear)"/>
<path d="M67.9575 142.392V140.225L-9.12619 96.5749H-12.8411L67.9575 142.392Z" fill="url(#paint24_linear)"/>
<path d="M-12.8411 96.5747H-9.12619L67.9575 51.996V50.1387L-12.8411 96.5747Z" fill="url(#paint25_linear)"/>
<path d="M67.9573 50.1387V51.996L145.041 95.6459H148.756L67.9573 50.1387Z" fill="url(#paint26_linear)"/>
<path d="M80.6499 96.5749L67.9574 104.005L55.5745 96.8844L67.9574 89.4547L80.6499 96.5749Z" fill="#7E7E7E"/>
<path d="M80.6498 102.457L67.9573 109.577V104.005L80.6498 96.5749V102.457Z" fill="#B5B0B0"/>
<path d="M55.5745 102.457L67.9574 109.577V104.005L55.5745 96.5749V102.457Z" fill="url(#paint27_linear)"/>
<path d="M80.6499 89.4543L67.9574 96.5746L55.5745 89.4543L67.9574 82.3342L80.6499 89.4543Z" fill="#7E7E7E"/>
<path d="M80.6498 95.3365L67.9573 102.457V96.5749L80.6498 89.4547V95.3365Z" fill="#B5B0B0"/>
<path d="M55.5745 95.3365L67.9574 102.457V96.5749L55.5745 89.4547V95.3365Z" fill="url(#paint28_linear)"/>
<path d="M80.6499 82.3342L67.9574 89.4544L55.5745 82.3342L67.9574 75.214L80.6499 82.3342Z" fill="#000305"/>
<path d="M80.6499 82.3342L67.9574 89.4544L55.5745 82.3342L67.9574 75.214L80.6499 82.3342Z" fill="url(#paint29_linear)"/>
<path d="M80.6498 88.2161L67.9573 95.3362V89.4543L80.6498 82.3342V88.2161Z" fill="#B5B0B0"/>
<path d="M55.5745 88.2161L67.9574 95.3362V89.4543L55.5745 82.3342V88.2161Z" fill="url(#paint30_linear)"/>
<path d="M70.743 56.6403C72.2909 57.569 72.2909 58.8073 70.743 59.736C69.1951 60.6647 67.0281 60.6647 65.4802 59.736C64.5515 59.4264 64.2419 58.4978 64.2419 57.8786C64.2419 57.2595 64.8611 56.9498 65.4802 56.6403C67.0281 56.0211 69.1951 56.0211 70.743 56.6403Z" stroke="#7E7E7E" stroke-width="0.466883" stroke-miterlimit="10"/>
<path d="M70.7438 50.1386C71.6725 50.4482 71.982 51.3768 71.982 51.9959C71.982 52.6151 71.3629 52.9247 70.7438 53.2343C69.1959 54.163 67.0288 54.163 65.481 53.2343C63.9331 52.3056 63.9331 51.0673 65.481 50.1386C67.0288 49.5194 69.1959 49.5194 70.7438 50.1386Z" stroke="#7E7E7E" stroke-width="0.466883" stroke-miterlimit="10"/>
<path d="M67.9568 38.3748L64.2419 81.7151C64.2419 82.3342 64.8611 82.9534 65.4802 83.263C67.0281 84.1917 69.1951 84.1917 70.743 83.263C71.3621 82.9534 71.6717 82.3342 71.9813 81.7151L67.9568 38.3748Z" fill="url(#paint31_linear)"/>
<path d="M70.743 56.6395C72.2909 57.5682 72.2909 58.8065 70.743 59.7352C69.1951 60.6639 67.0281 60.6639 65.4802 59.7352C64.5515 59.4257 64.2419 58.497 64.2419 57.8779C64.2419 57.2587 64.8611 56.9491 65.4802 56.6395" stroke="#7E7E7E" stroke-width="0.466883" stroke-miterlimit="10"/>
<path d="M70.7438 50.1387C71.6725 50.4482 71.982 51.3769 71.982 51.996C71.982 52.6152 71.3629 52.9248 70.7438 53.2344C69.1959 54.1631 67.0288 54.1631 65.481 53.2344C63.9331 52.3057 63.9331 51.0674 65.481 50.1387" stroke="#7E7E7E" stroke-width="0.466883" stroke-miterlimit="10"/>
</g>
<rect x="-47" y="0.523926" width="222.735" height="570.657" fill="url(#paint32_linear)"/>
<defs>
<linearGradient id="paint0_linear" x1="154.158" y1="282.127" x2="-90.7353" y2="-431.605" gradientUnits="userSpaceOnUse">
<stop stop-color="#01213B"/>
<stop offset="0.26" stop-color="#012E49"/>
<stop offset="0.76" stop-color="#00526D"/>
<stop offset="1" stop-color="#006581"/>
</linearGradient>
<linearGradient id="paint1_linear" x1="-66.2453" y1="569.223" x2="78.6585" y2="599.187" gradientUnits="userSpaceOnUse">
<stop stop-color="#BDBDBD"/>
<stop offset="1" stop-color="#EEEEEE"/>
</linearGradient>
<linearGradient id="paint2_linear" x1="132.04" y1="195.793" x2="144.423" y2="195.793" gradientUnits="userSpaceOnUse">
<stop stop-color="#88C378"/>
<stop offset="0.161458" stop-color="#6BCFA3"/>
<stop offset="0.828125" stop-color="#5FB2CB"/>
<stop offset="1" stop-color="#3991D3"/>
</linearGradient>
<linearGradient id="paint3_linear" x1="148.137" y1="186.351" x2="160.52" y2="186.351" gradientUnits="userSpaceOnUse">
<stop stop-color="#88C378"/>
<stop offset="0.161458" stop-color="#6BCFA3"/>
<stop offset="0.828125" stop-color="#5FB2CB"/>
<stop offset="1" stop-color="#3991D3"/>
</linearGradient>
<linearGradient id="paint4_linear" x1="132.04" y1="229.382" x2="144.423" y2="229.382" gradientUnits="userSpaceOnUse">
<stop stop-color="#88C378"/>
<stop offset="0.161458" stop-color="#6BCFA3"/>
<stop offset="0.828125" stop-color="#5FB2CB"/>
<stop offset="1" stop-color="#3991D3"/>
</linearGradient>
<linearGradient id="paint5_linear" x1="148.137" y1="220.095" x2="160.52" y2="220.095" gradientUnits="userSpaceOnUse">
<stop stop-color="#88C378"/>
<stop offset="0.161458" stop-color="#6BCFA3"/>
<stop offset="0.828125" stop-color="#5FB2CB"/>
<stop offset="1" stop-color="#3991D3"/>
</linearGradient>
<linearGradient id="paint6_linear" x1="83.7456" y1="324.885" x2="96.1285" y2="324.885" gradientUnits="userSpaceOnUse">
<stop stop-color="#88C378"/>
<stop offset="0.161458" stop-color="#6BCFA3"/>
<stop offset="0.828125" stop-color="#5FB2CB"/>
<stop offset="1" stop-color="#3991D3"/>
</linearGradient>
<linearGradient id="paint7_linear" x1="148.137" y1="338.197" x2="160.52" y2="338.197" gradientUnits="userSpaceOnUse">
<stop stop-color="#3991D3"/>
<stop offset="0.229167" stop-color="#5FB2CB"/>
<stop offset="0.671875" stop-color="#6BCFA3"/>
<stop offset="1" stop-color="#88C378"/>
</linearGradient>
<linearGradient id="paint8_linear" x1="148.137" y1="338.197" x2="160.52" y2="338.197" gradientUnits="userSpaceOnUse">
<stop stop-color="#3991D3"/>
<stop offset="0.229167" stop-color="#5FB2CB"/>
<stop offset="0.671875" stop-color="#6BCFA3"/>
<stop offset="1" stop-color="#88C378"/>
</linearGradient>
<linearGradient id="paint9_linear" x1="132.04" y1="381.227" x2="144.423" y2="381.227" gradientUnits="userSpaceOnUse">
<stop stop-color="#88C378"/>
<stop offset="0.161458" stop-color="#6BCFA3"/>
<stop offset="0.828125" stop-color="#5FB2CB"/>
<stop offset="1" stop-color="#3991D3"/>
</linearGradient>
<linearGradient id="paint10_linear" x1="99.8447" y1="416.828" x2="112.228" y2="416.828" gradientUnits="userSpaceOnUse">
<stop stop-color="#88C378"/>
<stop offset="0.161458" stop-color="#6BCFA3"/>
<stop offset="0.828125" stop-color="#5FB2CB"/>
<stop offset="1" stop-color="#3991D3"/>
</linearGradient>
<linearGradient id="paint11_linear" x1="83.7456" y1="459.859" x2="96.1285" y2="459.859" gradientUnits="userSpaceOnUse">
<stop stop-color="#88C378"/>
<stop offset="0.161458" stop-color="#6BCFA3"/>
<stop offset="0.828125" stop-color="#5FB2CB"/>
<stop offset="1" stop-color="#3991D3"/>
</linearGradient>
<linearGradient id="paint12_linear" x1="132.04" y1="431.998" x2="144.423" y2="431.998" gradientUnits="userSpaceOnUse">
<stop stop-color="#88C378"/>
<stop offset="0.161458" stop-color="#6BCFA3"/>
<stop offset="0.828125" stop-color="#5FB2CB"/>
<stop offset="1" stop-color="#3991D3"/>
</linearGradient>
<linearGradient id="paint13_linear" x1="99.8447" y1="501.187" x2="112.228" y2="501.187" gradientUnits="userSpaceOnUse">
<stop stop-color="#3991D3"/>
<stop offset="0.229167" stop-color="#5FB2CB"/>
<stop offset="0.671875" stop-color="#6BCFA3"/>
<stop offset="1" stop-color="#88C378"/>
</linearGradient>
<linearGradient id="paint14_linear" x1="99.8447" y1="501.187" x2="112.228" y2="501.187" gradientUnits="userSpaceOnUse">
<stop stop-color="#3991D3"/>
<stop offset="0.229167" stop-color="#5FB2CB"/>
<stop offset="0.671875" stop-color="#6BCFA3"/>
<stop offset="1" stop-color="#88C378"/>
</linearGradient>
<linearGradient id="paint15_linear" x1="13.938" y1="128.461" x2="13.4201" y2="713.106" gradientUnits="userSpaceOnUse">
<stop stop-color="#EEEEEE"/>
<stop offset="1" stop-color="#BDBDBD"/>
</linearGradient>
<linearGradient id="paint16_linear" x1="40.0962" y1="240.371" x2="52.4791" y2="240.371" gradientUnits="userSpaceOnUse">
<stop stop-color="#3991D3"/>
<stop offset="0.229167" stop-color="#5FB2CB"/>
<stop offset="0.671875" stop-color="#6BCFA3"/>
<stop offset="1" stop-color="#88C378"/>
</linearGradient>
<linearGradient id="paint17_linear" x1="40.0962" y1="240.371" x2="52.4791" y2="240.371" gradientUnits="userSpaceOnUse">
<stop stop-color="#3991D3"/>
<stop offset="0.229167" stop-color="#5FB2CB"/>
<stop offset="0.671875" stop-color="#6BCFA3"/>
<stop offset="1" stop-color="#88C378"/>
</linearGradient>
<linearGradient id="paint18_linear" x1="40.0962" y1="375.5" x2="52.4791" y2="375.5" gradientUnits="userSpaceOnUse">
<stop stop-color="#3991D3"/>
<stop offset="0.229167" stop-color="#5FB2CB"/>
<stop offset="0.671875" stop-color="#6BCFA3"/>
<stop offset="1" stop-color="#88C378"/>
</linearGradient>
<linearGradient id="paint19_linear" x1="40.0962" y1="375.5" x2="52.4791" y2="375.5" gradientUnits="userSpaceOnUse">
<stop stop-color="#3991D3"/>
<stop offset="0.229167" stop-color="#5FB2CB"/>
<stop offset="0.671875" stop-color="#6BCFA3"/>
<stop offset="1" stop-color="#88C378"/>
</linearGradient>
<linearGradient id="paint20_linear" x1="-9.12573" y1="146.726" x2="153.477" y2="79.0858" gradientUnits="userSpaceOnUse">
<stop stop-color="#BDBDBD"/>
<stop offset="1" stop-color="#EEEEEE"/>
</linearGradient>
<linearGradient id="paint21_linear" x1="27.5582" y1="96.5749" x2="63.0064" y2="175.778" gradientUnits="userSpaceOnUse">
<stop stop-color="#EEEEEE"/>
<stop offset="1" stop-color="#BDBDBD"/>
</linearGradient>
<linearGradient id="paint22_linear" x1="67.9573" y1="149.203" x2="156.573" y2="117.487" gradientUnits="userSpaceOnUse">
<stop stop-color="#BDBDBD"/>
<stop offset="1" stop-color="#EEEEEE"/>
</linearGradient>
<linearGradient id="paint23_linear" x1="115.826" y1="194.486" x2="119.736" y2="130.32" gradientUnits="userSpaceOnUse">
<stop stop-color="#BDBDBD"/>
<stop offset="1" stop-color="#EEEEEE"/>
</linearGradient>
<linearGradient id="paint24_linear" x1="35.0278" y1="193.451" x2="38.7842" y2="130.55" gradientUnits="userSpaceOnUse">
<stop stop-color="#BDBDBD"/>
<stop offset="1" stop-color="#EEEEEE"/>
</linearGradient>
<linearGradient id="paint25_linear" x1="35.0278" y1="148.324" x2="38.8861" y2="84.5792" gradientUnits="userSpaceOnUse">
<stop stop-color="#BDBDBD"/>
<stop offset="1" stop-color="#EEEEEE"/>
</linearGradient>
<linearGradient id="paint26_linear" x1="115.826" y1="146.36" x2="119.532" y2="83.8813" gradientUnits="userSpaceOnUse">
<stop stop-color="#BDBDBD"/>
<stop offset="1" stop-color="#EEEEEE"/>
</linearGradient>
<linearGradient id="paint27_linear" x1="61.7659" y1="96.5749" x2="61.7659" y2="109.577" gradientUnits="userSpaceOnUse">
<stop stop-color="#EEEEEE"/>
<stop offset="1" stop-color="#BDBDBD"/>
</linearGradient>
<linearGradient id="paint28_linear" x1="61.7659" y1="89.4547" x2="61.7659" y2="102.457" gradientUnits="userSpaceOnUse">
<stop stop-color="#EEEEEE"/>
<stop offset="1" stop-color="#BDBDBD"/>
</linearGradient>
<linearGradient id="paint29_linear" x1="55.5745" y1="89.4544" x2="81.9893" y2="78.4203" gradientUnits="userSpaceOnUse">
<stop stop-color="#BDBDBD"/>
<stop offset="1" stop-color="#EEEEEE"/>
</linearGradient>
<linearGradient id="paint30_linear" x1="61.7659" y1="82.3342" x2="61.7659" y2="95.3362" gradientUnits="userSpaceOnUse">
<stop stop-color="#EEEEEE"/>
<stop offset="1" stop-color="#BDBDBD"/>
</linearGradient>
<linearGradient id="paint31_linear" x1="68.1116" y1="38.3748" x2="68.1116" y2="83.9595" gradientUnits="userSpaceOnUse">
<stop stop-color="#EEEEEE"/>
<stop offset="1" stop-color="#BDBDBD"/>
</linearGradient>
<linearGradient id="paint32_linear" x1="64.3675" y1="0.523926" x2="64.3675" y2="571.181" gradientUnits="userSpaceOnUse">
<stop stop-color="#F1F1F1" stop-opacity="0"/>
<stop offset="0.705859" stop-color="#F1F1F1"/>
<stop offset="1" stop-color="#F1F1F1"/>
</linearGradient>
</defs>
</svg>
