<svg width="432" height="412" viewBox="0 0 432 412" fill="none" xmlns="http://www.w3.org/2000/svg">
<path fill-rule="evenodd" clip-rule="evenodd" d="M287.691 128.76L287.412 253.662L206.914 300.299L136.7 134.288L287.691 128.76Z" fill="url(#paint0_linear)"/>
<path fill-rule="evenodd" clip-rule="evenodd" d="M207.169 175.389L206.914 300.299L125.889 253.663L126.167 128.776L207.169 175.389Z" fill="url(#paint1_linear)"/>
<path fill-rule="evenodd" clip-rule="evenodd" d="M287.691 128.76L207.169 175.389L126.168 128.775L206.666 82.1232L287.691 128.76Z" fill="url(#paint2_linear)"/>
<path fill-rule="evenodd" clip-rule="evenodd" d="M287.691 128.76L207.169 175.389L126.168 128.775L206.666 82.1232L287.691 128.76Z" fill="url(#paint3_linear)"/>
<path fill-rule="evenodd" clip-rule="evenodd" d="M380.502 235.374L306.781 365.332L225.756 318.696L226.027 231.104L380.502 235.374Z" fill="url(#paint4_linear)"/>
<path fill-rule="evenodd" clip-rule="evenodd" d="M387.559 231.08L387.28 318.695L306.782 365.332L307.037 277.717L387.559 231.08Z" fill="url(#paint5_linear)"/>
<path fill-rule="evenodd" clip-rule="evenodd" d="M387.559 231.08L307.037 277.717L226.028 231.104L306.534 184.451L387.559 231.08Z" fill="url(#paint6_linear)"/>
<path fill-rule="evenodd" clip-rule="evenodd" d="M218.677 282.041L144.955 412L63.9298 365.363L64.2009 277.772L218.677 282.041Z" fill="url(#paint7_linear)"/>
<path fill-rule="evenodd" clip-rule="evenodd" d="M225.733 277.748L225.455 365.363L144.956 412L145.212 324.385L225.733 277.748Z" fill="url(#paint8_linear)"/>
<path fill-rule="evenodd" clip-rule="evenodd" d="M225.733 277.748L145.212 324.385L64.2021 277.771L144.708 231.119L225.733 277.748Z" fill="url(#paint9_linear)"/>
<path fill-rule="evenodd" clip-rule="evenodd" d="M225.733 277.748L145.212 324.385L64.2021 277.771L144.708 231.119L225.733 277.748Z" fill="url(#paint10_linear)"/>
<g clip-path="url(#clip0)">
<path d="M168.004 18.2925L218.068 7.00031C222.322 6.04086 225.741 8.82197 225.705 13.212L224.887 112.575C224.851 116.965 221.373 121.302 217.12 122.262L167.056 133.554C162.802 134.513 159.383 131.732 159.419 127.342L160.237 27.9788C160.273 23.5887 163.75 19.252 168.004 18.2925Z" fill="url(#paint11_linear)"/>
<path d="M221.407 12.07L221.288 26.5587L164.751 39.3109L164.87 24.8221C164.883 23.6797 165.793 22.5515 166.906 22.2968L173.529 20.803C174.401 20.613 175.167 21.013 175.436 21.7985L176.046 23.6029C176.585 25.1686 178.119 25.9612 179.859 25.5733L206.35 19.598C208.09 19.2012 209.642 17.7124 210.21 15.897L210.852 13.8101C211.135 12.9003 211.91 12.1524 212.782 11.9493L219.405 10.4555C220.519 10.2078 221.413 10.929 221.407 12.07Z" fill="url(#paint12_linear)"/>
<path d="M221.289 26.3567L220.555 115.561C220.542 116.704 219.632 117.832 218.518 118.087L166.02 129.928C164.906 130.176 164.012 129.455 164.018 128.314L164.752 39.109L221.289 26.3567Z" fill="url(#paint13_linear)"/>
</g>
<g clip-path="url(#clip1)">
<path d="M101.969 275.608L134.875 268.186L134.824 274.437L101.918 281.859L101.969 275.608Z" fill="#202020"/>
<path d="M129.909 256.449L143.62 253.357L143.418 277.932L129.707 281.024L129.909 256.449Z" fill="#202020"/>
<path d="M155.801 244.271L155.757 249.579C155.732 252.601 153.317 255.591 150.36 256.258L123.097 262.407C120.14 263.074 117.765 261.164 117.79 258.143L117.834 252.835L138.242 242.95L155.801 244.271Z" fill="#3F3F3F"/>
<path d="M172.716 176.348L103.154 190.357C95.8998 191.993 89.9694 196.146 89.9084 203.56L89.7297 215.301L89.7297 225.273L89.5918 249.457C89.5308 256.871 95.3622 261.555 102.617 259.919L172.178 245.91C179.433 244.274 185.363 236.937 185.424 229.523L185.741 183.626C185.802 176.212 179.971 174.711 172.716 176.348Z" fill="url(#paint14_linear)"/>
<path d="M168.937 176.113L106.827 190.122C99.5723 191.758 93.6419 199.094 93.5809 206.508L97.7194 219.007L93.4022 228.222L93.2643 244.977C93.2033 252.391 99.0348 257.075 106.289 255.439L168.399 241.43C175.654 239.794 181.584 232.457 181.645 225.043L181.962 186.574C182.023 179.16 176.191 174.476 168.937 176.113Z" fill="url(#paint15_linear)"/>
<path d="M161.173 226.189C176.062 222.831 188.233 207.774 188.359 192.557C188.484 177.341 176.515 167.728 161.626 171.086C146.737 174.445 134.566 189.502 134.44 204.718C134.315 219.935 146.284 229.548 161.173 226.189Z" fill="#505050"/>
<path d="M181.109 194.193C181.057 200.473 178.199 206.717 173.758 211.404C170.336 215.021 165.973 217.711 161.233 218.78C150.348 221.235 141.599 214.208 141.69 203.084C141.782 191.958 150.679 180.951 161.564 178.496C166.305 177.427 170.64 178.155 174.014 180.239C178.394 182.937 181.16 187.912 181.109 194.193Z" fill="url(#paint16_linear)"/>
<path d="M161.352 204.387C164.459 203.686 166.998 200.544 167.024 197.369C167.051 194.194 164.553 192.188 161.446 192.889C158.339 193.59 155.8 196.732 155.773 199.907C155.747 203.082 158.245 205.088 161.352 204.387Z" fill="url(#paint17_linear)"/>
<path d="M124.322 206.24L124.253 214.598C124.223 218.287 121.274 221.935 117.665 222.749L93.4021 228.222L93.5808 206.508L117.844 201.035C121.453 200.221 124.352 202.552 124.322 206.24Z" fill="#4C4C4C"/>
<path d="M105.6 285.946L98.132 287.63C93.7805 288.612 90.2826 285.802 90.3192 281.356C90.3558 276.908 93.9132 272.508 98.2646 271.526L105.733 269.842C110.084 268.86 113.582 271.67 113.546 276.117C113.509 280.564 109.952 284.965 105.6 285.946Z" fill="#3F3F3F"/>
<path d="M106.23 241.855C108.715 241.294 110.746 238.781 110.767 236.241C110.788 233.701 108.791 232.097 106.305 232.657C103.82 233.218 101.788 235.731 101.768 238.271C101.747 240.811 103.744 242.415 106.23 241.855Z" fill="url(#paint18_linear)"/>
<path d="M119.562 238.848C122.047 238.287 124.078 235.774 124.099 233.234C124.12 230.694 122.123 229.09 119.637 229.65C117.152 230.211 115.121 232.724 115.1 235.264C115.079 237.804 117.076 239.408 119.562 238.848Z" fill="url(#paint19_linear)"/>
<path d="M161.22 220.334C149.514 222.974 140.072 215.39 140.17 203.427C140.269 191.464 149.871 179.583 161.577 176.943C166.475 175.838 171.238 176.505 174.988 178.821C179.897 181.844 182.682 187.323 182.628 193.851C182.575 200.378 179.689 207.134 174.711 212.389C170.91 216.407 166.118 219.229 161.22 220.334ZM161.551 180.049C151.522 182.311 143.294 192.491 143.21 202.742C143.125 212.991 151.216 219.489 161.245 217.227C165.442 216.28 169.547 213.863 172.803 210.421C177.07 205.918 179.542 200.128 179.588 194.536C179.635 188.943 177.248 184.249 173.041 181.658C169.828 179.674 165.748 179.103 161.551 180.049Z" fill="url(#paint20_linear)" fill-opacity="0.8"/>
</g>
<path d="M355.411 320.027L367.137 319.349L358.939 310.146L355.411 320.027ZM195.226 361.402L184.062 355.663L185.758 366.7L195.226 361.402ZM398.644 232.904C408.598 261.494 393.734 290.979 361.547 314.491L363 316.062C395.402 292.393 410.954 262.283 400.622 232.606L398.644 232.904ZM185.803 360.248C148.014 358.915 113.375 351.217 86.3979 338.647C59.4151 326.073 40.2148 308.689 33.0109 287.996L31.0333 288.294C38.5104 309.772 58.3611 327.58 85.7115 340.324C113.067 353.072 148.045 360.818 186.066 362.159L185.803 360.248ZM33.0109 287.996C25.6359 266.812 31.6442 245.288 48.2459 226.038C64.8453 206.79 91.971 189.905 126.559 178.074L125.563 176.268C90.769 188.169 63.3624 205.192 46.5313 224.708C29.7027 244.221 23.3825 266.318 31.0333 288.294L33.0109 287.996ZM287.592 164.894C343.88 174.598 386.992 199.434 398.644 232.904L400.622 232.606C388.53 197.873 344.148 172.757 287.643 163.016L287.592 164.894Z" fill="black"/>
<path d="M355.411 320.027L367.137 319.349L358.939 310.146L355.411 320.027ZM195.226 361.402L184.062 355.663L185.758 366.7L195.226 361.402ZM398.644 232.904C408.598 261.494 393.734 290.979 361.547 314.491L363 316.062C395.402 292.393 410.954 262.283 400.622 232.606L398.644 232.904ZM185.803 360.248C148.014 358.915 113.375 351.217 86.3979 338.647C59.4151 326.073 40.2148 308.689 33.0109 287.996L31.0333 288.294C38.5104 309.772 58.3611 327.58 85.7115 340.324C113.067 353.072 148.045 360.818 186.066 362.159L185.803 360.248ZM33.0109 287.996C25.6359 266.812 31.6442 245.288 48.2459 226.038C64.8453 206.79 91.971 189.905 126.559 178.074L125.563 176.268C90.769 188.169 63.3624 205.192 46.5313 224.708C29.7027 244.221 23.3825 266.318 31.0333 288.294L33.0109 287.996ZM287.592 164.894C343.88 174.598 386.992 199.434 398.644 232.904L400.622 232.606C388.53 197.873 344.148 172.757 287.643 163.016L287.592 164.894Z" fill="url(#paint21_linear)"/>
<path d="M245.972 185.428C245.972 182.851 247.753 180.616 250.265 180.041L346.733 157.952C350.194 157.16 353.493 159.789 353.493 163.339L353.493 220.926C353.493 223.526 351.68 225.774 349.139 226.326L252.671 247.272C249.227 248.02 245.972 245.396 245.972 241.872L245.972 185.428Z" fill="url(#paint22_linear)"/>
<path d="M337.477 160.232L337.494 158.277C337.535 153.265 333.573 150.065 328.689 151.166L302.088 157.166C297.204 158.268 293.175 163.27 293.134 168.282L293.118 170.238L337.477 160.232Z" fill="#3F3F3F"/>
<path d="M278.403 186.143L278.027 231.787C278.001 234.999 275.407 238.208 272.264 238.917L347.409 221.968C350.553 221.259 353.146 218.05 353.173 214.838L353.548 169.193L278.403 186.143Z" fill="url(#paint23_linear)"/>
<path d="M347.937 157.826L272.792 174.776C275.935 174.066 278.486 176.115 278.459 179.327L278.4 186.565L353.545 169.616L353.605 162.378C353.631 159.166 351.081 157.117 347.937 157.826Z" fill="#B5DCFF"/>
<path d="M347.937 157.826L272.792 174.776C275.935 174.066 278.486 176.115 278.459 179.327L278.4 186.565L353.545 169.616L353.605 162.378C353.631 159.166 351.081 157.117 347.937 157.826Z" fill="url(#paint24_linear)"/>
<path d="M270.163 167.094L260.098 169.364C258.674 169.685 257.5 171.143 257.488 172.604L257.463 175.63C257.451 177.091 258.606 178.023 260.029 177.702L270.095 175.432C271.518 175.111 272.693 173.653 272.705 172.192L272.73 169.166C272.741 167.705 271.587 166.773 270.163 167.094Z" fill="#3F3F3F"/>
<path d="M251.101 192.301L250.725 237.945C250.698 241.157 253.249 243.206 256.392 242.497L272.677 238.825C275.82 238.116 278.414 234.907 278.44 231.694L278.816 186.05L251.101 192.301Z" fill="#3F3F3F" fill-opacity="0.72"/>
<path d="M273.205 174.683L256.92 178.355C253.777 179.064 251.183 182.273 251.157 185.485L251.097 192.723L278.813 186.472L278.872 179.235C278.899 176.022 276.348 173.974 273.205 174.683Z" fill="url(#paint25_linear)"/>
<path d="M314.743 232.636C298.291 236.347 285.019 225.687 285.158 208.874C285.296 192.061 298.793 175.364 315.244 171.653C331.696 167.943 344.968 178.602 344.829 195.415C344.691 212.228 331.194 228.926 314.743 232.636Z" fill="#505050"/>
<path d="M331.362 215.304C340.562 203.922 340.687 188.805 331.64 181.539C322.593 174.273 307.801 177.61 298.6 188.991C289.4 200.373 289.276 215.49 298.323 222.756C307.369 230.022 322.162 226.686 331.362 215.304Z" fill="url(#paint26_linear)" fill-opacity="0.8"/>
<path d="M325.02 210.213C330.66 203.237 330.736 193.971 325.191 189.517C319.646 185.063 310.579 187.108 304.939 194.085C299.3 201.061 299.224 210.327 304.769 214.781C310.314 219.235 319.381 217.19 325.02 210.213Z" fill="url(#paint27_linear)"/>
<path d="M318.04 204.607C319.759 202.48 319.782 199.656 318.092 198.299C316.402 196.941 313.639 197.565 311.92 199.691C310.201 201.817 310.178 204.641 311.868 205.999C313.558 207.356 316.322 206.733 318.04 204.607Z" fill="url(#paint28_linear)"/>
<path d="M250.826 349.812L255.04 348.861C255.06 348.15 255.268 347.493 255.664 346.826C256.03 346.197 256.681 345.761 257.617 345.55C258.491 345.353 259.12 345.5 259.534 345.921C259.949 346.341 260.177 346.868 260.187 347.476C260.202 348.371 259.933 349.171 259.411 349.802C258.858 350.473 258.113 350.898 257.177 351.109L255.772 351.426L255.831 354.946L257.11 354.657C258.422 354.361 259.395 354.463 260.06 354.923C260.695 355.422 261.052 356.144 261.068 357.136C261.086 358.224 260.789 359.158 260.237 359.925C259.686 360.692 258.911 361.188 257.943 361.406C256.945 361.631 256.159 361.519 255.588 361.07C255.016 360.621 254.66 359.899 254.581 358.953L250.367 359.903C250.447 360.913 250.649 361.799 250.975 362.56C251.301 363.322 251.813 363.945 252.447 364.412C253.082 364.879 253.839 365.19 254.75 365.306C255.66 365.422 256.724 365.342 257.973 365.061C259.221 364.779 260.342 364.333 261.272 363.738C262.202 363.143 263.005 362.448 263.619 361.667C264.233 360.887 264.72 360.038 265.018 359.136C265.317 358.233 265.489 357.295 265.473 356.367C265.449 354.896 265.023 353.771 264.257 352.949C263.492 352.158 262.451 351.718 261.197 351.68L261.195 351.584C261.63 351.357 262.033 351.074 262.465 350.687C262.867 350.34 263.235 349.903 263.541 349.417C263.846 348.963 264.119 348.419 264.298 347.865C264.477 347.311 264.592 346.707 264.581 346.067C264.568 345.235 264.399 344.502 264.075 343.869C263.751 343.235 263.304 342.726 262.702 342.348C262.101 341.97 261.376 341.748 260.529 341.65C259.65 341.559 258.68 341.617 257.618 341.857C256.526 342.103 255.561 342.481 254.723 342.991C253.886 343.501 253.175 344.111 252.623 344.814C252.039 345.524 251.583 346.333 251.283 347.172C250.984 348.01 250.811 348.916 250.826 349.812ZM267.619 354.92C267.639 356.104 267.844 357.15 268.235 358.025C268.625 358.9 269.201 359.605 269.931 360.147C270.629 360.696 271.481 361.082 272.487 361.241C273.492 361.399 274.588 361.345 275.805 361.07C276.991 360.803 278.112 360.357 279.104 359.716C280.096 359.075 280.929 358.309 281.635 357.411C282.341 356.545 282.889 355.555 283.278 354.503C283.637 353.459 283.838 352.354 283.82 351.266C283.802 350.178 283.598 349.196 283.238 348.314C282.848 347.439 282.366 346.744 281.73 346.181C281.094 345.618 280.336 345.243 279.486 345.017C278.606 344.831 277.697 344.811 276.697 344.972C276.509 345.014 276.26 345.103 275.948 345.173C275.636 345.275 275.45 345.35 275.325 345.41L279.894 337.539L275.118 338.616L270.397 346.746C269.606 348.145 268.939 349.516 268.397 350.827C267.855 352.169 267.596 353.512 267.619 354.92ZM272.021 353.959C272 352.711 272.327 351.642 273.001 350.719C273.676 349.829 274.543 349.247 275.636 349.001C276.166 348.881 276.668 348.897 277.139 348.983C277.58 349.108 277.991 349.305 278.309 349.586C278.627 349.9 278.915 350.253 279.111 350.722C279.307 351.192 279.409 351.715 279.419 352.291C279.43 352.931 279.345 353.496 279.166 354.018C278.987 354.572 278.713 355.051 278.407 355.474C278.07 355.935 277.668 356.283 277.234 356.573C276.769 356.871 276.271 357.079 275.772 357.192C275.273 357.305 274.771 357.321 274.331 357.228C273.891 357.134 273.481 356.97 273.162 356.656C272.813 356.382 272.525 356.029 272.33 355.56C272.134 355.122 272.032 354.599 272.021 353.959ZM285.576 347.112C285.614 349.416 285.895 351.247 286.42 352.639C286.945 354.062 287.589 355.105 288.384 355.825C289.148 356.551 290.033 356.994 290.975 357.135C291.918 357.308 292.857 357.256 293.794 357.045C294.543 356.876 295.352 356.533 296.283 356.002C297.214 355.471 298.047 354.673 298.843 353.594C299.641 352.547 300.276 351.183 300.812 349.521C301.317 347.865 301.565 345.818 301.525 343.386C301.489 341.211 301.209 339.475 300.716 338.109C300.193 336.75 299.58 335.732 298.816 335.005C298.053 334.31 297.2 333.892 296.257 333.72C295.314 333.547 294.406 333.559 293.531 333.756C292.533 333.982 291.569 334.424 290.608 335.058C289.647 335.692 288.784 336.561 288.05 337.626C287.284 338.698 286.68 340.023 286.205 341.607C285.73 343.192 285.541 345.001 285.576 347.112ZM297.126 344.507C297.15 345.979 297.045 347.223 296.875 348.257C296.673 349.33 296.406 350.193 296.104 350.872C295.802 351.582 295.435 352.115 295.033 352.462C294.601 352.849 294.197 353.068 293.792 353.16C293.261 353.279 292.759 353.264 292.318 353.075C291.876 352.885 291.462 352.497 291.139 351.927C290.816 351.358 290.553 350.614 290.349 349.633C290.145 348.651 290.031 347.456 290.007 346.017C289.984 344.673 290.058 343.468 290.23 342.466C290.401 341.464 290.669 340.632 291.002 339.947C291.305 339.269 291.672 338.736 292.104 338.382C292.537 338.027 292.972 337.769 293.44 337.663C294.501 337.423 295.386 337.866 296.062 338.966C296.707 340.073 297.082 341.916 297.126 344.507ZM303.98 336.056C303.99 336.664 304.093 337.219 304.32 337.682C304.548 338.176 304.868 338.586 305.28 338.878C305.661 339.178 306.135 339.392 306.638 339.503C307.142 339.647 307.705 339.616 308.329 339.475C308.891 339.348 309.452 339.126 309.978 338.75C310.474 338.413 310.937 337.988 311.336 337.512C311.704 337.044 312.008 336.494 312.218 335.9C312.428 335.339 312.543 334.735 312.533 334.127C312.523 333.551 312.389 333.003 312.161 332.509C311.934 332.046 311.614 331.637 311.233 331.337C310.821 331.045 310.348 330.83 309.844 330.687C309.309 330.583 308.745 330.582 308.184 330.708C307.559 330.849 306.999 331.104 306.504 331.44C306.009 331.809 305.546 332.235 305.177 332.703C304.778 333.179 304.474 333.729 304.264 334.29C304.054 334.883 303.97 335.48 303.98 336.056ZM305.915 335.62C305.904 334.948 306.113 334.323 306.543 333.776C306.972 333.23 307.53 332.847 308.217 332.692C308.841 332.551 309.407 332.68 309.851 333.03C310.296 333.379 310.555 333.899 310.566 334.571C310.578 335.275 310.338 335.907 309.908 336.453C309.479 337 308.921 337.351 308.296 337.491C307.61 337.646 307.044 337.549 306.6 337.2C306.155 336.85 305.927 336.324 305.915 335.62Z" fill="url(#paint29_linear)"/>
<defs>
<linearGradient id="paint0_linear" x1="475.243" y1="300.392" x2="339.075" y2="401.449" gradientUnits="userSpaceOnUse">
<stop stop-color="#BDBDBD"/>
<stop offset="1" stop-color="#EEEEEE"/>
</linearGradient>
<linearGradient id="paint1_linear" x1="166.529" y1="128.776" x2="166.633" y2="356.415" gradientUnits="userSpaceOnUse">
<stop stop-color="#EEEEEE"/>
<stop offset="0.53125" stop-color="#BDBDBD"/>
<stop offset="1" stop-color="#BDBDBD"/>
</linearGradient>
<linearGradient id="paint2_linear" x1="329.505" y1="229.452" x2="112.042" y2="51.3289" gradientUnits="userSpaceOnUse">
<stop stop-color="#000D16"/>
<stop offset="0.35" stop-color="#00121F"/>
<stop offset="0.91" stop-color="#011F36"/>
<stop offset="1" stop-color="#01213B"/>
</linearGradient>
<linearGradient id="paint3_linear" x1="207.136" y1="175.672" x2="187.069" y2="48.8728" gradientUnits="userSpaceOnUse">
<stop stop-color="#BDBDBD"/>
<stop offset="1" stop-color="#EEEEEE"/>
</linearGradient>
<linearGradient id="paint4_linear" x1="303.129" y1="231.104" x2="303.163" y2="409.247" gradientUnits="userSpaceOnUse">
<stop stop-color="#EEEEEE"/>
<stop offset="0.53125" stop-color="#BDBDBD"/>
<stop offset="1" stop-color="#BDBDBD"/>
</linearGradient>
<linearGradient id="paint5_linear" x1="487.896" y1="365.404" x2="398.049" y2="410.985" gradientUnits="userSpaceOnUse">
<stop stop-color="#BDBDBD"/>
<stop offset="1" stop-color="#EEEEEE"/>
</linearGradient>
<linearGradient id="paint6_linear" x1="307" y1="278" x2="286.934" y2="151.201" gradientUnits="userSpaceOnUse">
<stop stop-color="#BDBDBD"/>
<stop offset="1" stop-color="#EEEEEE"/>
</linearGradient>
<linearGradient id="paint7_linear" x1="141.303" y1="277.772" x2="141.337" y2="455.915" gradientUnits="userSpaceOnUse">
<stop stop-color="#EEEEEE"/>
<stop offset="0.53125" stop-color="#BDBDBD"/>
<stop offset="1" stop-color="#BDBDBD"/>
</linearGradient>
<linearGradient id="paint8_linear" x1="326.07" y1="412.072" x2="236.223" y2="457.653" gradientUnits="userSpaceOnUse">
<stop stop-color="#BDBDBD"/>
<stop offset="1" stop-color="#EEEEEE"/>
</linearGradient>
<linearGradient id="paint9_linear" x1="267.549" y1="378.449" x2="50.0841" y2="200.315" gradientUnits="userSpaceOnUse">
<stop stop-color="#000D16"/>
<stop offset="0.35" stop-color="#00121F"/>
<stop offset="0.91" stop-color="#011F36"/>
<stop offset="1" stop-color="#01213B"/>
</linearGradient>
<linearGradient id="paint10_linear" x1="145.175" y1="324.668" x2="125.109" y2="197.869" gradientUnits="userSpaceOnUse">
<stop stop-color="#BDBDBD"/>
<stop offset="1" stop-color="#EEEEEE"/>
</linearGradient>
<linearGradient id="paint11_linear" x1="226" y1="-38" x2="201.764" y2="138.177" gradientUnits="userSpaceOnUse">
<stop stop-color="#BDBDBD"/>
<stop offset="1" stop-color="#5F5F5F"/>
</linearGradient>
<linearGradient id="paint12_linear" x1="164" y1="130.384" x2="221.275" y2="130.455" gradientUnits="userSpaceOnUse">
<stop stop-color="#278EDB"/>
<stop offset="0.294647" stop-color="#55BDDE"/>
<stop offset="0.762033" stop-color="#2FDC9D"/>
<stop offset="1" stop-color="#06D48A"/>
</linearGradient>
<linearGradient id="paint13_linear" x1="164" y1="130.384" x2="221.275" y2="130.455" gradientUnits="userSpaceOnUse">
<stop stop-color="#278EDB"/>
<stop offset="0.294647" stop-color="#55BDDE"/>
<stop offset="0.762033" stop-color="#2FDC9D"/>
<stop offset="1" stop-color="#06D48A"/>
</linearGradient>
<linearGradient id="paint14_linear" x1="185.936" y1="144.972" x2="193.948" y2="255.17" gradientUnits="userSpaceOnUse">
<stop stop-color="#BDBDBD"/>
<stop offset="1" stop-color="#5F5F5F"/>
</linearGradient>
<linearGradient id="paint15_linear" x1="189.082" y1="209.327" x2="113.061" y2="272.446" gradientUnits="userSpaceOnUse">
<stop stop-color="#9D9D9D"/>
<stop offset="1" stop-color="#535353"/>
</linearGradient>
<linearGradient id="paint16_linear" x1="141.524" y1="223.225" x2="190.177" y2="211.73" gradientUnits="userSpaceOnUse">
<stop stop-color="#4B4B4B"/>
<stop offset="1" stop-color="#8D8D8D"/>
</linearGradient>
<linearGradient id="paint17_linear" x1="155.726" y1="205.656" x2="167.139" y2="205.601" gradientUnits="userSpaceOnUse">
<stop stop-color="#278EDB"/>
<stop offset="0.294647" stop-color="#55BDDE"/>
<stop offset="0.762033" stop-color="#2FDC9D"/>
<stop offset="1" stop-color="#06D48A"/>
</linearGradient>
<linearGradient id="paint18_linear" x1="102.026" y1="236.065" x2="113.386" y2="232.766" gradientUnits="userSpaceOnUse">
<stop stop-color="#3991D3"/>
<stop offset="0.229167" stop-color="#5FB2CB"/>
<stop offset="0.671875" stop-color="#6BCFA3"/>
<stop offset="0.998141" stop-color="#88C378"/>
</linearGradient>
<linearGradient id="paint19_linear" x1="115.358" y1="233.058" x2="126.718" y2="229.759" gradientUnits="userSpaceOnUse">
<stop stop-color="#3991D3"/>
<stop offset="0.229167" stop-color="#5FB2CB"/>
<stop offset="0.671875" stop-color="#6BCFA3"/>
<stop offset="0.998141" stop-color="#88C378"/>
</linearGradient>
<linearGradient id="paint20_linear" x1="139.992" y1="225.122" x2="183.061" y2="224.914" gradientUnits="userSpaceOnUse">
<stop stop-color="#278EDB"/>
<stop offset="0.294647" stop-color="#55BDDE"/>
<stop offset="0.762033" stop-color="#2FDC9D"/>
<stop offset="1" stop-color="#06D48A"/>
</linearGradient>
<linearGradient id="paint21_linear" x1="-34.7202" y1="409.917" x2="-42.475" y2="128.784" gradientUnits="userSpaceOnUse">
<stop stop-color="#3991D3"/>
<stop offset="0.229167" stop-color="#5FB2CB"/>
<stop offset="0.671875" stop-color="#6BCFA3"/>
<stop offset="0.998141" stop-color="#88C378"/>
</linearGradient>
<linearGradient id="paint22_linear" x1="353.286" y1="121.729" x2="328.65" y2="260.993" gradientUnits="userSpaceOnUse">
<stop stop-color="#BDBDBD"/>
<stop offset="1" stop-color="#5F5F5F"/>
</linearGradient>
<linearGradient id="paint23_linear" x1="360.001" y1="197.5" x2="299.14" y2="258.095" gradientUnits="userSpaceOnUse">
<stop stop-color="#9D9D9D"/>
<stop offset="1" stop-color="#535353"/>
</linearGradient>
<linearGradient id="paint24_linear" x1="272.684" y1="187.854" x2="298.634" y2="131.294" gradientUnits="userSpaceOnUse">
<stop offset="0.583333" stop-color="#939393"/>
<stop offset="1" stop-color="#EEEEEE"/>
</linearGradient>
<linearGradient id="paint25_linear" x1="251.097" y1="192.723" x2="280.22" y2="180.375" gradientUnits="userSpaceOnUse">
<stop stop-color="#939393"/>
<stop offset="1" stop-color="#C4C4C4"/>
</linearGradient>
<linearGradient id="paint26_linear" x1="314.703" y1="235.913" x2="347.619" y2="193.491" gradientUnits="userSpaceOnUse">
<stop stop-color="#278EDB"/>
<stop offset="0.294647" stop-color="#55BDDE"/>
<stop offset="0.762033" stop-color="#2FDC9D"/>
<stop offset="1" stop-color="#06D48A"/>
</linearGradient>
<linearGradient id="paint27_linear" x1="314.81" y1="222.845" x2="329.301" y2="187.207" gradientUnits="userSpaceOnUse">
<stop stop-color="#4B4B4B"/>
<stop offset="1" stop-color="#8D8D8D"/>
</linearGradient>
<linearGradient id="paint28_linear" x1="314.928" y1="208.456" x2="321.077" y2="200.532" gradientUnits="userSpaceOnUse">
<stop stop-color="#278EDB"/>
<stop offset="0.294647" stop-color="#55BDDE"/>
<stop offset="0.762033" stop-color="#2FDC9D"/>
<stop offset="1" stop-color="#06D48A"/>
</linearGradient>
<linearGradient id="paint29_linear" x1="248.409" y1="370.28" x2="316.552" y2="367.156" gradientUnits="userSpaceOnUse">
<stop stop-color="#278EDB"/>
<stop offset="0.294647" stop-color="#55BDDE"/>
<stop offset="0.762033" stop-color="#2FDC9D"/>
<stop offset="1" stop-color="#06D48A"/>
</linearGradient>
<clipPath id="clip0">
<rect width="115.616" height="115.265" fill="white" transform="matrix(0.975493 -0.220028 -0.00822918 0.999966 136.322 25.4387)"/>
</clipPath>
<clipPath id="clip1">
<rect width="105.774" height="102.934" fill="white" transform="matrix(0.975494 -0.220024 -0.00822935 0.999966 87.0156 187.914)"/>
</clipPath>
</defs>
</svg>
