<svg width="68" height="68" viewBox="0 0 68 68" fill="none" xmlns="http://www.w3.org/2000/svg">
<g clip-path="url(#clip0)">
<path d="M34 68C52.7777 68 68 52.7777 68 34C68 15.2223 52.7777 0 34 0C15.2223 0 0 15.2223 0 34C0 52.7777 15.2223 68 34 68Z" fill="#1F4851"/>
<path d="M68 33.9999C68.007 39.178 66.8236 44.2884 64.5414 48.9365C62.4311 47.6703 60.3286 46.3962 58.2338 45.1144C57.0457 44.4697 55.9462 43.6736 54.9628 42.7461C53.9762 41.8035 53.3852 40.5209 53.3097 39.1585C53.298 36.6965 55.4552 34.8558 57.2959 33.2027C59.0725 31.8223 60.3987 29.9452 61.1063 27.8096C61.6456 25.6406 60.7897 22.9792 58.6911 22.1703C57.6945 21.7951 56.4987 21.842 55.7014 21.1151C54.5876 20.1185 54.9394 18.3247 55.3966 16.8827C54.0065 16.6625 52.6042 17.1984 51.7152 18.2896C50.8444 19.3656 49.7931 20.282 48.6083 20.9978C47.3421 21.5606 45.4897 21.1151 45.2083 19.7551C44.9973 18.6999 45.818 17.7503 46.4863 16.9061C48.467 14.3542 49.5397 11.2144 49.5345 7.98405C49.3931 6.62126 49.4923 5.24421 49.8276 3.91578V3.90405C61.0079 9.77876 68.007 21.3702 68 33.9999Z" fill="url(#paint0_linear)"/>
<path d="M34.5862 42.5234C34.3061 44.6846 33.6093 46.771 32.5345 48.6668C31.5731 50.6599 30.6 52.6648 29.6386 54.6696C28.5835 56.8503 27.3055 59.2537 24.9842 60.0392C24.5143 60.2039 24.0133 60.26 23.5186 60.2034C23.3414 60.1855 23.1676 60.142 23.0028 60.0744C22.8326 60.0166 22.6738 59.9293 22.5338 59.8165C21.825 59.1254 21.497 58.1325 21.6545 57.1551C21.8232 56.1918 21.8822 55.2124 21.8304 54.2358C21.5021 52.2779 19.6145 50.9882 17.7504 50.2965C15.8862 49.6048 13.8697 49.2648 12.2517 48.1275C10.6338 46.9668 9.63727 44.5751 10.8097 42.9806C11.6069 41.902 13.1193 41.5268 13.8931 40.4365C14.9952 38.8537 14.0573 36.7082 13.1076 35.0317C11.584 32.0704 9.69328 29.3131 7.48003 26.8248C6.1083 25.4179 4.49037 24.1517 3.69313 22.3579C3.33343 21.5408 3.14203 20.6595 3.13037 19.7668C8.25068 8.61486 19.0006 1.10294 31.2331 0.128906C30.4593 3.41166 29.8028 6.99925 31.3621 9.98891C32.2179 11.6303 33.7421 13.0372 33.9179 14.9013C34.1876 17.7737 31.198 19.802 30.0373 22.4517C29.2986 24.1399 29.0993 26.4027 27.3993 27.1061C25.6759 27.8213 23.8704 26.3558 22.018 26.1096C19.8904 25.9616 17.9379 27.2891 17.2931 29.322C16.8199 30.9565 17.1177 32.7175 18.1021 34.1055C18.3188 34.4257 18.5662 34.7241 18.8407 34.9965C20.3813 36.4202 22.4322 37.1602 24.5269 37.0482C27.0007 36.9661 29.6269 35.9227 31.8545 37.0248C33.754 38.1731 34.8186 40.3159 34.5862 42.5234Z" fill="url(#paint1_linear)"/>
<path d="M46.2529 26.0756C45.5726 26.1295 44.8881 26.0592 44.2329 25.8681C43.6162 25.5938 43.2011 24.9912 42.5915 24.6957C41.997 24.3989 41.2883 24.4478 40.7402 24.8235C40.2021 25.2187 39.96 25.9024 40.1294 26.5481C40.3803 27.397 41.2889 27.8378 41.8775 28.5002C42.3115 29.0845 42.6821 29.7133 42.9831 30.3761C43.2919 31.0464 43.8644 31.5591 44.5647 31.7923C45.4856 31.8823 46.3901 31.504 46.9728 30.7852C47.5172 30.28 47.9211 29.6421 48.1452 28.934C48.3866 28.2988 48.3073 27.5861 47.9321 27.0195C47.557 26.4529 46.932 26.1016 46.2529 26.0756Z" fill="url(#paint2_linear)"/>
</g>
<defs>
<linearGradient id="paint0_linear" x1="45.1746" y1="48.9365" x2="68.3029" y2="48.7804" gradientUnits="userSpaceOnUse">
<stop stop-color="#278EDB"/>
<stop offset="0.276042" stop-color="#55BDDE"/>
<stop offset="0.762033" stop-color="#2FDC9D"/>
<stop offset="1" stop-color="#06D48A"/>
</linearGradient>
<linearGradient id="paint1_linear" x1="3.13037" y1="60.2248" x2="35.0355" y2="60.0022" gradientUnits="userSpaceOnUse">
<stop stop-color="#278EDB"/>
<stop offset="0.276042" stop-color="#55BDDE"/>
<stop offset="0.762033" stop-color="#2FDC9D"/>
<stop offset="1" stop-color="#06D48A"/>
</linearGradient>
<linearGradient id="paint2_linear" x1="40.076" y1="31.8054" x2="48.3902" y2="31.681" gradientUnits="userSpaceOnUse">
<stop stop-color="#278EDB"/>
<stop offset="0.276042" stop-color="#55BDDE"/>
<stop offset="0.762033" stop-color="#2FDC9D"/>
<stop offset="1" stop-color="#06D48A"/>
</linearGradient>
<clipPath id="clip0">
<rect width="68" height="68" fill="white"/>
</clipPath>
</defs>
</svg>
