<svg width="20" height="20" viewBox="0 0 20 20" fill="none" xmlns="http://www.w3.org/2000/svg">
<path fill-rule="evenodd" clip-rule="evenodd" d="M1.69173 6.08691L8.07858 10.5632L2.18828 15.7172C1.81963 15.243 1.6001 14.6472 1.6001 14.0001V6.80006C1.6001 6.55361 1.63194 6.3146 1.69173 6.08691ZM18.3085 6.08699C18.3683 6.31468 18.4001 6.55369 18.4001 6.80014V14.0001C18.4001 14.644 18.1827 15.2372 17.8174 15.7102L11.9292 10.558L18.3085 6.08699ZM8.66723 11.1112L2.76642 16.2744C3.22621 16.6053 3.7904 16.8001 4.40011 16.8001H15.6001C16.2131 16.8001 16.7801 16.6031 17.2413 16.269L11.3466 11.1112C11.2939 11.066 11.2569 11.0164 11.2332 10.9651C10.4538 11.2964 9.55892 11.298 8.77834 10.9699C8.75463 11.0195 8.71829 11.0674 8.66723 11.1112Z" fill="#5F5F5F"/>
<path fill-rule="evenodd" clip-rule="evenodd" d="M17.9732 5.31336L11.2359 10.0352C10.4948 10.5281 9.50529 10.5281 8.76414 10.0352L2.02686 5.31336C2.5221 4.52445 3.39982 4 4.40003 4H15.6C16.6002 4 17.478 4.52445 17.9732 5.31336Z" fill="#5F5F5F"/>
</svg>
