<svg width="20" height="20" viewBox="0 0 20 20" fill="none" xmlns="http://www.w3.org/2000/svg">
<path d="M15.2735 18.7496C14.511 18.7496 13.4399 18.4739 11.836 17.5778C9.88561 16.484 8.37702 15.4742 6.43718 13.5395C4.56687 11.6703 3.65671 10.4602 2.38288 8.14221C0.94382 5.52503 1.18913 4.15315 1.46335 3.56682C1.78991 2.86604 2.27194 2.4469 2.89499 2.03089C3.24888 1.79903 3.62338 1.60027 4.01374 1.43714C4.0528 1.42034 4.08913 1.40433 4.12155 1.38987C4.31491 1.30276 4.60788 1.17112 4.97898 1.31175C5.22663 1.40472 5.44773 1.59495 5.79382 1.93675C6.50358 2.63675 7.47351 4.19573 7.83132 4.96136C8.07155 5.47737 8.23054 5.818 8.23093 6.20003C8.23093 6.64729 8.00593 6.99221 7.73288 7.36448C7.68171 7.4344 7.63093 7.5012 7.58171 7.56604C7.28444 7.95667 7.21921 8.06956 7.26218 8.27112C7.34929 8.6762 7.9989 9.88206 9.06647 10.9473C10.1341 12.0125 11.3051 12.6211 11.7118 12.7078C11.9219 12.7528 12.0372 12.6848 12.4403 12.377C12.4981 12.3328 12.5575 12.2871 12.6196 12.2414C13.036 11.9317 13.3649 11.7125 13.8016 11.7125H13.804C14.184 11.7125 14.5094 11.8774 15.0485 12.1492C15.7516 12.5039 17.3575 13.4614 18.0618 14.1719C18.4044 14.5172 18.5954 14.7375 18.6887 14.9848C18.8294 15.3571 18.6969 15.6489 18.6106 15.8442C18.5962 15.8766 18.5801 15.9121 18.5633 15.9516C18.3989 16.3413 18.199 16.715 17.9661 17.068C17.5508 17.6891 17.1301 18.1699 16.4278 18.4969C16.0671 18.6675 15.6724 18.7539 15.2735 18.7496Z" fill="#5F5F5F"/>
</svg>
